<svg id="Layer_1" data-name="Layer 1" xmlns="http://www.w3.org/2000/svg" viewBox="0 0 150.4 47"><title>motion-gator-logo</title><circle cx="29.1" cy="23.5" r="23.5" style="fill:#89c732"/><path d="M60.6,23l-4.8,2.7a8.3,8.3,0,0,1-2.2.3H38.3a7.5,7.5,0,0,0,.4-2.6,9.4,9.4,0,0,0-2.8-6.8A9.2,9.2,0,0,0,29,13.9a9,9,0,0,0-6.8,2.8,9.4,9.4,0,0,0-2.8,6.8c0,.4.1.8.1,1.2h0c.1.3.1.7.2,1s-.3,4-4,4.6h-6a2.9,2.9,0,0,1-1.8-.7,2.5,2.5,0,0,1,1.8-4.3h.4a3.3,3.3,0,0,0,2.5-1,3.6,3.6,0,0,0,0-5.2,3.7,3.7,0,0,0-2.5-1H9.7a9.4,9.4,0,0,0-6.9,2.8A9,9,0,0,0,0,27.8a9.4,9.4,0,0,0,2.8,6.9,9,9,0,0,0,6.9,2.8h1.6a1.6,1.6,0,0,1,.3.9v.2a2.4,2.4,0,0,0,.8,2,2.8,2.8,0,0,0,2,.8,3,3,0,0,0,2-.8,2.7,2.7,0,0,0,.7-2v-1h8a1.9,1.9,0,0,1,.2.8v.2a2.8,2.8,0,1,0,5.6,0v-.2c0-.3-.1-.6-.1-.8H59.7a11.1,11.1,0,0,0,8.8-4.3l-2.1-2.5a2,2,0,0,0-3.2,0l-2.3,2.8a1.9,1.9,0,0,1-1.4.7,1.7,1.7,0,0,1-1.4-.7l-2.3-2.8a2,2,0,0,0-3.2,0l-2.3,2.8a1.9,1.9,0,0,1-1.4.7,1.7,1.7,0,0,1-1.4-.7l-2.3-2.8a2,2,0,0,0-3.2,0l-2.5,3a.6.6,0,1,1-.9-.7L41.1,30a3.2,3.2,0,0,1,5,0l2.3,2.9a.9.9,0,0,0,1,0L51.7,30a3.2,3.2,0,0,1,5,0L59,32.9a.9.9,0,0,0,1,0L62.3,30a3.2,3.2,0,0,1,5,0l1.9,2.3.3-.6C73.1,24.6,65.7,19.4,60.6,23ZM31.5,26A3.3,3.3,0,0,1,29,27a3.1,3.1,0,0,1-2.4-1,3.3,3.3,0,0,1-1-2.5,3.3,3.3,0,0,1,1-2.5A3.1,3.1,0,0,1,29,20a3.3,3.3,0,0,1,2.5,1,3.4,3.4,0,0,1,0,5Z" style="fill:#222e3a"/><text transform="translate(75.3 23.5)" style="font-size:17.428205490112305px;fill:#222e3a;font-family:Gotham-Bold, Gotham;font-weight:700">M<tspan x="15.1" y="0" style="letter-spacing:-0.030005913061255177em">O</tspan><tspan x="29.4" y="0">TION</tspan></text><text transform="translate(75.3 38.1)" style="font-size:17.428205490112305px;fill:#89c732;font-family:GothamBlack, Gotham Black">GATOR</text></svg>