<?xml version="1.0" encoding="UTF-8"?>
<svg width="95px" height="86px" viewBox="0 0 95 86" version="1.1" xmlns="http://www.w3.org/2000/svg" xmlns:xlink="http://www.w3.org/1999/xlink">
    <!-- Generator: Sketch 48.2 (47327) - http://www.bohemiancoding.com/sketch -->
    <title>Group 12</title>
    <desc>Created with Sketch.</desc>
    <defs></defs>
    <g id="Page-1" stroke="none" stroke-width="1" fill="none" fill-rule="evenodd">
        <g id="Group-12">
            <rect id="Rectangle-7" fill="#FFFFFF" x="0" y="0" width="95" height="86"></rect>
            <g id="Group-11" transform="translate(10.000000, 2.000000)">
                <g id="Group-10" transform="translate(5.000000, 5.000000)">
                    <g id="Page-1-Copy-10" fill="#000000">
                        <path d="M39.0353273,42.0933555 C36.6427157,39.6885755 34.2953942,37.3286559 32.0265755,35.0476736 C25.038959,42.0359858 18.0155418,49.0592375 10.9597745,56.1148405 C17.6502016,61.8151396 25.4219839,64.428262 34.3169609,63.9429925 C32.3492136,55.7891707 33.9240153,48.4782082 39.0353273,42.0933555 Z M42.0727838,39.0928802 C45.0606369,36.5940657 48.4992343,34.8803095 52.3527754,34.0378817 C56.2041598,33.1967478 60.0469175,33.3192514 63.9440234,34.3454347 C64.4249612,25.4087114 61.8076244,17.6267139 56.0609568,10.8993688 C48.9866421,17.9739512 41.9705576,24.9903013 34.9725891,31.988966 C37.338458,34.3557871 39.6905242,36.7092364 42.0727838,39.0928802 Z M0,33.6544109 C0.0362320854,33.8765565 0.0897175448,34.0978394 0.106539584,34.3221417 C0.547794625,40.3023875 2.51381659,45.7339552 5.99339079,50.6129626 C6.61710026,51.4877418 7.31241124,52.3103275 7.90765264,53.0707988 C15.0018087,45.9815505 22.0282453,38.9600242 28.998177,31.9945735 C26.6888129,29.6829653 24.3363154,27.3282219 21.9713091,24.9605381 C15.5207039,30.1031008 8.23331007,31.6758054 0.167789062,29.7321392 C0.106970919,29.9301292 0.0534854594,30.1031008 0,30.2765038 L0,33.6544109 Z M33.7782243,0 C35.0329759,0.16650136 36.2963542,0.28814225 37.5420478,0.506837041 C43.2705993,1.51102141 48.3443853,3.91925222 52.7741891,7.686669 C52.8833167,7.77984075 52.9842489,7.88293356 53.034715,7.92995078 C46.0009458,14.966143 38.9818419,21.9872379 32.0015581,28.9695112 C29.7254067,26.6855094 27.3673018,24.3191196 24.9906496,21.9337504 C30.0985109,15.5251734 31.675038,8.23879787 29.7331708,0.172540269 C29.9285652,0.110425772 30.1019616,0.0552128862 30.275358,0 L33.7782243,0 Z" id="Fill-1"></path>
                    </g>
                    <path d="M41.9146276,44.8831169 C37.5226367,49.8672082 36.3446075,57.4352622 38.3472572,63.1688312 C43.9658875,62.0276881 48.9158,59.5889929 53.1948052,55.9341641 C49.4080323,52.2240564 45.6597972,48.5520868 41.9146276,44.8831169 Z" id="Path" fill="#EF0F0F"></path>
                    <path d="M44.8831169,41.8662821 C48.5877362,45.663912 52.2453914,49.4133764 55.9342138,53.1948052 C59.5636905,48.943544 61.9989963,43.9934452 63.1688312,38.251681 C56.4187986,36.4003748 50.3476119,37.5637903 44.8831169,41.8662821 Z" id="Path" fill="#EF0F0F"></path>
                    <path d="M19.1168831,22.0473179 C15.4446324,18.3009655 11.7702356,14.5524232 8.09669722,10.8051948 C4.70771966,14.392128 1.68313444,20.5043673 0.831168831,25.6368789 C6.26872667,27.6410067 14.1132483,26.5390868 19.1168831,22.0473179 Z" id="Path" fill="#EF0F0F"></path>
                    <path d="M25.7339493,0.831168831 C20.0322649,1.99308737 15.0838641,4.41332443 10.8051948,8.07097915 C14.581675,11.7563595 18.3240342,15.4080426 22.1250114,19.1168831 C26.434302,13.6028887 27.6119094,7.53736678 25.7339493,0.831168831 Z" id="Path" fill="#EF0F0F"></path>
                </g>
                <circle id="Oval-5" stroke="#000000" stroke-width="2.61999989" cx="37" cy="37" r="37"></circle>
            </g>
        </g>
    </g>
</svg>