<?xml version="1.0" encoding="UTF-8"?>
<svg width="104px" height="61px" viewBox="0 0 104 61" version="1.1" xmlns="http://www.w3.org/2000/svg" xmlns:xlink="http://www.w3.org/1999/xlink">
    <!-- Generator: Sketch 48.2 (47327) - http://www.bohemiancoding.com/sketch -->
    <title>Page 1</title>
    <desc>Created with Sketch.</desc>
    <defs>
        <polygon id="path-1" points="0 0.222383915 30.2027981 0.222383915 30.2027981 54.1532072 0 54.1532072"></polygon>
        <polygon id="path-3" points="0.429252571 0.443639094 38.5907154 0.443639094 38.5907154 61.4095238 0.429252571 61.4095238"></polygon>
    </defs>
    <g id="iPhone-8" stroke="none" stroke-width="1" fill="none" fill-rule="evenodd" transform="translate(-229.000000, -962.000000)">
        <g id="Page-1" transform="translate(229.000000, 961.545455)">
            <g id="Group-3" transform="translate(0.000000, 4.952381)">
                <mask id="mask-2" fill="white">
                    <use xlink:href="#path-1"></use>
                </mask>
                <g id="Clip-2"></g>
                <path d="M30.2027981,52.1085342 C29.9258648,52.2501723 29.6176362,52.3373342 29.28756,52.3373342 L3.83803619,52.3373342 C2.69841714,52.3373342 1.77136952,51.3870273 1.77136952,50.2188157 L1.77136952,44.2815162 C1.79144571,44.2827268 1.81034095,44.2875691 1.83041714,44.2875691 L30.2027981,44.2875691 L30.2027981,0.33981037 C29.908741,0.265964868 29.6034648,0.222383915 29.28756,0.222383915 L3.83803619,0.222383915 C1.72176952,0.222383915 -5.9047619e-05,1.96017439 -5.9047619e-05,4.09624635 L-5.9047619e-05,50.2188157 C-5.9047619e-05,52.3881786 1.72176952,54.1532072 3.83803619,54.1532072 L29.28756,54.1532072 C29.6034648,54.1532072 29.908741,54.1096262 30.2027981,54.0357807 L30.2027981,52.1085342 Z" id="Fill-1" fill="#000000" mask="url(#mask-2)"></path>
            </g>
            <path d="M13.6057029,32.1004329 L21.1973767,32.1004329 L21.1973767,25.4282251 C20.3077274,24.96 15.9781009,22.7944589 14.8512119,22.1506494 L14.673282,22.0335931 L14.6139721,24.1991342 L12.4788138,21.565368 L12.4788138,29.6422511 L13.5463929,29.6422511 L13.5463929,32.1004329 L13.6057029,32.1004329 Z M21.7904762,32.6857143 L12.9532934,32.6857143 L12.9532934,30.2275325 L11.8857143,30.2275325 L11.8857143,19.8095238 L14.0208725,22.5018182 L14.0208725,21.0386147 L15.0884517,21.6238961 C16.3339607,22.3262338 21.5532364,24.96 21.6125463,24.96 L21.7904762,25.0185281 L21.7904762,32.6857143 Z" id="Fill-4" fill="#FFFFFF"></path>
            <polygon id="Fill-6" fill="#FFFFFF" points="13.9338176 30.2714286 16.6366425 30.2714286 16.6366425 28.4761905 15.5790153 28.4761905 15.5790153 29.1571429 12.8761905 29.1571429 12.8761905 25.752381 17.5767554 25.752381 17.5767554 28.6 19.8095238 28.6 19.8095238 31.6952381 13.9338176 31.6952381"></polygon>
            <polygon id="Fill-8" fill="#FFFFFF" points="24.4737662 30.7047619 23.7714286 30.0510476 25.5002597 27.8521905 23.7714286 25.415619 24.4737662 24.7619048 26.7428571 27.8521905"></polygon>
            <polygon id="Fill-10" fill="#FFFFFF" points="8.21194805 30.7047619 5.94285714 27.6144762 8.21194805 24.7619048 8.91428571 25.415619 7.18545455 27.6144762 8.91428571 30.0510476"></polygon>
            <path d="M16.8380952,51.5047619 C17.9321469,51.5047619 18.8190476,52.3916626 18.8190476,53.4857143 C18.8190476,54.579766 17.9321469,55.4666667 16.8380952,55.4666667 C15.7440435,55.4666667 14.8571429,54.579766 14.8571429,53.4857143 C14.8571429,52.3916626 15.7440435,51.5047619 16.8380952,51.5047619" id="Fill-12" fill="#000000"></path>
            <path d="M73.2952381,56.4102976 C73.5773737,56.5507667 73.8901241,56.6372092 74.2256854,56.6372092 L100.098124,56.6372092 C101.256681,56.6372092 102.199134,55.6947455 102.199134,54.5361755 L102.199134,48.6478786 C102.178724,48.6490792 102.159515,48.6538815 102.139105,48.6538815 L73.2952381,48.6538815 L73.2952381,5.06883825 C73.5941818,4.99560222 73.904531,4.95238095 74.2256854,4.95238095 L100.098124,4.95238095 C102.249558,4.95238095 104,6.67582887 104,8.79427111 L104,54.5361755 C104,56.687634 102.249558,58.4380952 100.098124,58.4380952 L74.2256854,58.4380952 C73.904531,58.4380952 73.5941818,58.394874 73.2952381,58.3216379 L73.2952381,56.4102976 Z" id="Fill-14" fill="#000000"></path>
            <path d="M83.9295124,32.1004329 L91.5211862,32.1004329 L91.5211862,25.4282251 C90.6315369,24.96 86.3019105,22.7944589 85.1750214,22.1506494 L84.9970915,22.0335931 L84.9377816,24.1991342 L82.8026233,21.565368 L82.8026233,29.6422511 L83.8696094,29.6422511 L83.8696094,32.1004329 L83.9295124,32.1004329 Z M92.1142857,32.6857143 L83.2765098,32.6857143 L83.2765098,30.2275325 L82.2095238,30.2275325 L82.2095238,19.8095238 L84.3446821,22.5018182 L84.3446821,21.0386147 L85.4122612,21.6238961 C86.6577702,22.3262338 91.8764528,24.96 91.9363559,24.96 L92.1142857,25.0185281 L92.1142857,32.6857143 Z" id="Fill-16" fill="#FFFFFF"></path>
            <polygon id="Fill-18" fill="#FFFFFF" points="84.258125 30.2714286 86.9607208 30.2714286 86.9607208 28.4761905 85.9031833 28.4761905 85.9031833 29.1571429 83.2 29.1571429 83.2 25.752381 87.9001667 25.752381 87.9001667 28.6 90.1333333 28.6 90.1333333 31.6952381 84.258125 31.6952381"></polygon>
            <polygon id="Fill-20" fill="#FFFFFF" points="94.7975758 30.7047619 94.0952381 30.0510476 95.8240693 27.8521905 94.0952381 25.415619 94.7975758 24.7619048 97.0666667 27.8521905"></polygon>
            <polygon id="Fill-22" fill="#FFFFFF" points="78.5357576 30.7047619 76.2666667 27.6144762 78.5357576 24.7619048 79.2380952 25.415619 77.5098043 27.6144762 79.2380952 30.0510476"></polygon>
            <path d="M87.1619048,51.5047619 C88.2565224,51.5047619 89.1428571,52.3916626 89.1428571,53.4857143 C89.1428571,54.579766 88.2565224,55.4666667 87.1619048,55.4666667 C86.0678531,55.4666667 85.1809524,54.579766 85.1809524,53.4857143 C85.1809524,52.3916626 86.0678531,51.5047619 87.1619048,51.5047619" id="Fill-24" fill="#000000"></path>
            <path d="M70.3238095,50.3931197 C70.3238095,51.0185314 69.7712276,51.5047619 69.150396,51.5047619 L34.849604,51.5047619 C34.2281738,51.5047619 33.6761905,51.0185314 33.6761905,50.3931197 L33.6761905,4.20363421 C33.6761905,2.95341334 34.6424606,1.98095238 35.8847223,1.98095238 L68.0458308,1.98095238 C69.2886912,1.98095238 70.2549613,2.95341334 70.2549613,4.20363421 L70.2549613,50.3931197 L70.3238095,50.3931197 Z" id="Fill-26" fill="#EF0F0F"></path>
            <g id="Group-30" transform="translate(32.685714, 0.000000)">
                <mask id="mask-4" fill="white">
                    <use xlink:href="#path-3"></use>
                </mask>
                <g id="Clip-29"></g>
                <path d="M4.746144,2.232266 C3.37215543,2.232266 2.21210971,3.36506304 2.21210971,4.70593701 L2.21210971,57.0787215 C2.21210971,58.4804088 3.34897829,59.6209565 4.746144,59.6209565 L34.2732297,59.6209565 C35.6709897,59.6209565 36.8078583,58.4804088 36.8078583,57.0787215 L36.8078583,4.77450104 C36.8078583,3.37281376 35.6709897,2.232266 34.2732297,2.232266 L4.746144,2.232266 Z M34.2732297,61.4095834 L4.746144,61.4095834 C2.36602971,61.4095834 0.429252571,59.4665384 0.429252571,57.0787215 L0.429252571,4.70593701 C0.429252571,2.35568126 2.36602971,0.443639094 4.746144,0.443639094 L34.2732297,0.443639094 C36.6539383,0.443639094 38.5907154,2.38668412 38.5907154,4.77450104 L38.5907154,57.0787215 C38.5907154,59.4665384 36.6539383,61.4095834 34.2732297,61.4095834 Z" id="Fill-28" fill="#000000" mask="url(#mask-4)"></path>
            </g>
            <path d="M47.6258985,32.0102831 L56.7357481,32.0102831 L56.7357481,24.3116564 C55.6682503,23.7715457 50.4727651,21.2725089 49.1206423,20.5297104 L48.9070193,20.3949756 L48.8354,22.8934266 L46.2737758,19.854865 L46.2737758,29.1738236 L47.5542792,29.1738236 L47.5542792,32.0102831 L47.6258985,32.0102831 Z M57.447619,32.6857143 L46.8430256,32.6857143 L46.8430256,29.8492548 L45.5619048,29.8492548 L45.5619048,17.8285714 L48.1241464,20.9350862 L48.1241464,19.2468012 L49.4052673,19.9222324 C50.9000111,20.7323983 57.1629941,23.7715457 57.2346134,23.7715457 L57.447619,23.8389131 L57.447619,32.6857143 Z" id="Fill-31" fill="#FFFFFF"></path>
            <polygon id="Fill-33" fill="#FFFFFF" points="48.7515541 30.0337942 51.8405758 30.0337942 51.8405758 27.9394476 50.6318788 27.9394476 50.6318788 28.7338333 47.5428571 28.7338333 47.5428571 24.7619048 52.9147142 24.7619048 52.9147142 28.0841661 55.4666667 28.0841661 55.4666667 31.6952381 48.7515541 31.6952381"></polygon>
            <polygon id="Fill-35" fill="#FFFFFF" points="61.3557819 29.7142857 60.4190476 28.9516672 62.7243263 26.3865503 60.4190476 23.5435709 61.3557819 22.7809524 64.3809524 26.3865503"></polygon>
            <polygon id="Fill-37" fill="#FFFFFF" points="42.6443658 29.7142857 39.6190476 26.1092892 42.6443658 22.7809524 43.5809524 23.5435709 41.2760373 26.1092892 43.5809524 28.9516672"></polygon>
            <path d="M52,53.4857143 C53.3678881,53.4857143 54.4761905,54.5946303 54.4761905,55.9619048 C54.4761905,57.3291792 53.3678881,58.4380952 52,58.4380952 C50.6327256,58.4380952 49.5238095,57.3291792 49.5238095,55.9619048 C49.5238095,54.5946303 50.6327256,53.4857143 52,53.4857143" id="Fill-39" fill="#000000"></path>
        </g>
    </g>
</svg>