<?xml version="1.0" encoding="UTF-8"?>
<svg width="450px" height="480px" viewBox="0 0 450 480" version="1.1" xmlns="http://www.w3.org/2000/svg" xmlns:xlink="http://www.w3.org/1999/xlink">
    <!-- Generator: Sketch 48.2 (47327) - http://www.bohemiancoding.com/sketch -->
    <title>Group 7</title>
    <desc>Created with Sketch.</desc>
    <defs>
        <path d="M19.2682852,0.456943301 L38.3466822,0.457429662 C39.8870548,0.457468387 41.1455464,1.68746351 41.1808591,3.22743138 C41.3630891,11.1743888 45.3271805,15.2404994 53.0731331,15.4257633 C65.9730328,15.7342969 123.507692,15.4306296 134.836583,15.4306296 C141.667789,15.4306296 145.243698,11.3474915 145.564309,3.18121519 L145.564302,3.18121491 C145.624027,1.65995292 146.874622,0.457463318 148.397056,0.457425401 L167.931325,0.456470062 C178.327754,0.456211133 186.755935,8.88397238 186.756194,19.2804017 C186.756194,19.2805579 186.756194,19.2807142 186.756194,19.2808705 L186.755725,388.14724 C186.755725,398.543669 178.327754,406.97164 167.931325,406.97164 L19.2682852,406.97164 C8.87185589,406.97164 0.443884739,398.543669 0.443884739,388.14724 L0.443411499,19.2808705 C0.443411499,8.8844412 8.87138265,0.456470056 19.2678119,0.456470056 C19.2679697,0.456470056 19.2681274,0.456470058 19.2682852,0.456470062 Z" id="path-1"></path>
        <path d="M19.2682852,0.456943301 L38.3466822,0.457429662 C39.8870548,0.457468387 41.1455464,1.68746351 41.1808591,3.22743138 C41.3630891,11.1743888 45.3271805,15.2404994 53.0731331,15.4257633 C65.9730328,15.7342969 123.507692,15.4306296 134.836583,15.4306296 C141.667789,15.4306296 145.243698,11.3474915 145.564309,3.18121519 L145.564302,3.18121491 C145.624027,1.65995292 146.874622,0.457463318 148.397056,0.457425401 L167.931325,0.456470062 C178.327754,0.456211133 186.755935,8.88397238 186.756194,19.2804017 C186.756194,19.2805579 186.756194,19.2807142 186.756194,19.2808705 L186.755725,388.14724 C186.755725,398.543669 178.327754,406.97164 167.931325,406.97164 L19.2682852,406.97164 C8.87185589,406.97164 0.443884739,398.543669 0.443884739,388.14724 L0.443411499,19.2808705 C0.443411499,8.8844412 8.87138265,0.456470056 19.2678119,0.456470056 C19.2679697,0.456470056 19.2681274,0.456470058 19.2682852,0.456470062 Z" id="path-3"></path>
        <path d="M21.4094351,0.50759728 L42.6287305,0.508145331 C44.3402054,0.508188327 45.7385061,1.87477516 45.7778058,3.58579884 C45.9805613,12.4133221 50.3871513,16.929982 58.9975759,17.1357787 C73.3374644,17.4785145 137.294597,17.1411844 149.888108,17.1411844 C157.481714,17.1411844 161.456787,12.6055956 161.813326,3.53441816 L161.813327,3.53441819 C161.879761,1.84418868 163.269283,0.508175203 164.960817,0.508133104 L186.686875,0.507071824 C198.238463,0.506784325 207.603109,9.87096365 207.603396,21.4225517 C207.603396,21.4227253 207.603396,21.4228988 207.603396,21.4230723 L207.602876,431.170279 C207.602876,442.721867 198.238463,452.086279 186.686875,452.086279 L21.4094351,452.086279 C9.85784705,452.086279 0.493434663,442.721867 0.493434663,431.170279 L0.492909207,21.4230723 C0.492909207,9.87148421 9.8573216,0.507071817 21.4089097,0.507071817 C21.4090848,0.507071817 21.40926,0.50707182 21.4094352,0.507071824 Z" id="path-5"></path>
    </defs>
    <g id="Desktop-HD" stroke="none" stroke-width="1" fill="none" fill-rule="evenodd" transform="translate(-745.000000, -1400.000000)">
        <g id="Group-7" transform="translate(745.000000, 1400.000000)">
            <g id="iPhone-X-Light-Copy" transform="translate(235.476718, 23.946785)">
                <path d="M31.7453627,0.0250090703 L182.777919,0.0250090703 C199.562515,0.0250090703 213.169118,13.6316124 213.169118,30.4162082 L213.169118,401.138265 C213.169118,417.922861 199.562515,431.529464 182.777919,431.529464 L31.7453627,431.529464 C14.9607669,431.529464 1.35416358,417.922861 1.35416358,401.138265 L1.35416358,30.4162082 C1.35416358,13.6316124 14.9607669,0.0250090703 31.7453627,0.0250090703 Z" id="Rectangle-3" fill="#F2F2F2"></path>
                <g id="Screen" transform="translate(13.548839, 11.893234)">
                    <mask id="mask-2" fill="white">
                        <use xlink:href="#path-1"></use>
                    </mask>
                    <use id="Mask" fill="#FFFFFF" xlink:href="#path-1"></use>
                </g>
                <path d="M1.134,128.25424 L1.35416358,128.25424 L1.35416358,159.864568 L1.134,159.864568 C0.507709094,159.864568 1.80155715e-15,159.356859 -2.22044605e-16,158.730568 L-2.22044605e-16,129.38824 C-2.9874312e-16,128.761949 0.507709094,128.25424 1.134,128.25424 Z" id="button-4" fill="#CDCDCD"></path>
                <path d="M1.134,88.7128562 L1.35416358,88.7128562 L1.35416358,120.323184 L1.134,120.323184 C0.507709094,120.323184 7.66985154e-17,119.815475 0,119.189184 L0,89.8468562 C-7.66985154e-17,89.2205652 0.507709094,88.7128562 1.134,88.7128562 Z" id="button-3" fill="#CDCDCD"></path>
                <path d="M1.134,57.7818735 L1.35416358,57.7818735 L1.35416358,74.4380637 L1.134,74.4380637 C0.507709094,74.4380637 2.02360175e-15,73.9303546 0,73.3040637 L0,58.9158735 C-7.66985154e-17,58.2895826 0.507709094,57.7818735 1.134,57.7818735 Z" id="button-2" fill="#CDCDCD"></path>
                <path d="M213.169118,99.2496322 L213.389282,99.2496322 C214.015573,99.2496322 214.523282,99.7573413 214.523282,100.383632 L214.523282,148.42024 C214.523282,149.046531 214.015573,149.55424 213.389282,149.55424 L213.169118,149.55424 L213.169118,99.2496322 Z" id="button-1" fill="#D2D2D2"></path>
                <rect id="speaker" fill="#D8D8D8" x="94.3403631" y="15.5217685" width="24.3749445" height="3.39896001" rx="1.69948"></rect>
                <ellipse id="camera" fill="#D8D8D8" cx="129.887157" cy="17.2212485" rx="3.38540896" ry="3.39896001"></ellipse>
            </g>
            <g id="iPhone-X-Light-Copy-2" transform="translate(0.000000, 23.946785)">
                <path d="M31.7453627,0.0250090703 L182.777919,0.0250090703 C199.562515,0.0250090703 213.169118,13.6316124 213.169118,30.4162082 L213.169118,401.138265 C213.169118,417.922861 199.562515,431.529464 182.777919,431.529464 L31.7453627,431.529464 C14.9607669,431.529464 1.35416358,417.922861 1.35416358,401.138265 L1.35416358,30.4162082 C1.35416358,13.6316124 14.9607669,0.0250090703 31.7453627,0.0250090703 Z" id="Rectangle-3" fill="#F2F2F2"></path>
                <g id="Screen" transform="translate(13.548839, 11.893234)">
                    <mask id="mask-4" fill="white">
                        <use xlink:href="#path-3"></use>
                    </mask>
                    <use id="Mask" fill="#FFFFFF" xlink:href="#path-3"></use>
                </g>
                <path d="M1.134,128.25424 L1.35416358,128.25424 L1.35416358,159.864568 L1.134,159.864568 C0.507709094,159.864568 1.80155715e-15,159.356859 -2.22044605e-16,158.730568 L-2.22044605e-16,129.38824 C-2.9874312e-16,128.761949 0.507709094,128.25424 1.134,128.25424 Z" id="button-4" fill="#CDCDCD"></path>
                <path d="M1.134,88.7128562 L1.35416358,88.7128562 L1.35416358,120.323184 L1.134,120.323184 C0.507709094,120.323184 7.66985154e-17,119.815475 0,119.189184 L0,89.8468562 C-7.66985154e-17,89.2205652 0.507709094,88.7128562 1.134,88.7128562 Z" id="button-3" fill="#CDCDCD"></path>
                <path d="M1.134,57.7818735 L1.35416358,57.7818735 L1.35416358,74.4380637 L1.134,74.4380637 C0.507709094,74.4380637 2.02360175e-15,73.9303546 0,73.3040637 L0,58.9158735 C-7.66985154e-17,58.2895826 0.507709094,57.7818735 1.134,57.7818735 Z" id="button-2" fill="#CDCDCD"></path>
                <path d="M213.169118,99.2496322 L213.389282,99.2496322 C214.015573,99.2496322 214.523282,99.7573413 214.523282,100.383632 L214.523282,148.42024 C214.523282,149.046531 214.015573,149.55424 213.389282,149.55424 L213.169118,149.55424 L213.169118,99.2496322 Z" id="button-1" fill="#D2D2D2"></path>
                <rect id="speaker" fill="#D8D8D8" x="94.3403631" y="15.5217685" width="24.3749445" height="3.39896001" rx="1.69948"></rect>
                <ellipse id="camera" fill="#D8D8D8" cx="129.887157" cy="17.2212485" rx="3.38540896" ry="3.39896001"></ellipse>
            </g>
            <g id="iPhone-X-Light" transform="translate(106.762749, 0.000000)">
                <path d="M35.2733251,0.0277814383 L203.196741,0.0277814383 C221.846292,0.0277814383 236.96474,15.1462296 236.96474,33.7957805 L236.96474,445.59845 C236.96474,464.248 221.846292,479.366449 203.196741,479.366449 L35.2733251,479.366449 C16.6237742,479.366449 1.50532603,464.248 1.50532603,445.59845 L1.50532603,33.7957805 C1.50532603,15.1462296 16.6237742,0.0277814383 35.2733251,0.0277814383 Z" id="Rectangle-3" fill="#F2F2F2"></path>
                <g id="Screen" transform="translate(15.061267, 13.211652)">
                    <mask id="mask-6" fill="white">
                        <use xlink:href="#path-5"></use>
                    </mask>
                    <use id="Mask" fill="#FFFFFF" xlink:href="#path-5"></use>
                </g>
                <path d="M1.26,142.4718 L1.50532603,142.4718 L1.50532603,177.586275 L1.26,177.586275 C0.564121215,177.586275 4.10263995e-15,177.022154 0,176.326275 L0,143.7318 C-8.52205726e-17,143.035921 0.564121215,142.4718 1.26,142.4718 Z" id="button-4" fill="#CDCDCD"></path>
                <path d="M1.26,98.5470758 L1.50532603,98.5470758 L1.50532603,133.661551 L1.26,133.661551 C0.564121215,133.661551 8.52205726e-17,133.09743 0,132.401551 L0,99.8070758 C-8.52205726e-17,99.111197 0.564121215,98.5470758 1.26,98.5470758 Z" id="button-3" fill="#CDCDCD"></path>
                <path d="M1.26,64.1872543 L1.50532603,64.1872543 L1.50532603,82.6898583 L1.26,82.6898583 C0.564121215,82.6898583 8.52205726e-17,82.1257371 0,81.4298583 L0,65.4472543 C-8.52205726e-17,64.7513756 0.564121215,64.1872543 1.26,64.1872543 Z" id="button-2" fill="#CDCDCD"></path>
                <path d="M236.96474,110.251901 L237.210067,110.251901 C237.905945,110.251901 238.470067,110.816022 238.470067,111.511901 L238.470067,164.873001 C238.470067,165.56888 237.905945,166.133001 237.210067,166.133001 L236.96474,166.133001 L236.96474,110.251901 Z" id="button-1" fill="#D2D2D2"></path>
                <rect id="speaker" fill="#D8D8D8" x="104.87138" y="17.2424264" width="27.0958686" height="3.77575003" rx="1.88787501"></rect>
                <ellipse id="camera" fill="#D8D8D8" cx="144.386189" cy="19.1303014" rx="3.76331508" ry="3.77575003"></ellipse>
            </g>
        </g>
    </g>
</svg>