<?xml version="1.0" encoding="UTF-8"?>
<svg width="90px" height="85px" viewBox="0 0 90 85" version="1.1" xmlns="http://www.w3.org/2000/svg" xmlns:xlink="http://www.w3.org/1999/xlink">
    <!-- Generator: Sketch 48.2 (47327) - http://www.bohemiancoding.com/sketch -->
    <title>Group 9</title>
    <desc>Created with Sketch.</desc>
    <defs>
        <polygon id="path-1" points="0 0 89.6913851 0 89.6913851 84.9689143 0 84.9689143"></polygon>
    </defs>
    <g id="Page-1" stroke="none" stroke-width="1" fill="none" fill-rule="evenodd">
        <g id="Group-9">
            <circle id="Oval-3" fill="#EF0F0F" cx="25" cy="36" r="14"></circle>
            <g id="Group-8" transform="translate(19.000000, 29.000000)">
                <path d="M2.57850666,1.02917271 L2.54339378,3.19114659 L0,0 L0,11.0486212 L1.27169689,11.0486212 L1.27169689,14 L11,14 L11,5.45573295 C11,5.45573295 4.81199112,2.29912917 3.30010178,1.44114659 L2.57850666,1.02917271 Z" id="Path" fill="#FFFFFF"></path>
                <polygon id="Path" fill="#EF0F0F" points="2.05379427 11.4144044 5.52557044 11.4144044 5.52557044 9.13621875 4.19590751 9.13621875 4.19590751 9.99991691 0.6875 9.99991691 0.6875 5.6 6.70706781 5.6 6.70706781 9.29325478 9.625 9.29325478 9.625 13.3 2.05379427 13.3"></polygon>
            </g>
            <g id="Page-1-Copy-6">
                <mask id="mask-2" fill="white">
                    <use xlink:href="#path-1"></use>
                </mask>
                <g id="Clip-2"></g>
                <path d="M71.7686149,69.6488786 L79.9105743,69.6488786 L79.9105743,1.82130714 L71.7686149,1.82130714 L71.7686149,69.6488786 Z M11.4491554,35.7350929 C11.4491554,28.5198071 17.3076689,22.6705929 24.5350338,22.6705929 C31.7617905,22.6705929 37.6196959,28.5198071 37.6196959,35.7350929 C37.6196959,42.9503786 31.7617905,48.7995929 24.5350338,48.7995929 C17.3076689,48.7995929 11.4491554,42.9503786 11.4491554,35.7350929 Z M29.2819257,80.4912357 C28.9231419,82.0552357 27.5500338,83.1474857 25.9421959,83.1474857 L14.1406419,83.1474857 C13.0648986,83.1474857 12.0736824,82.6581286 11.4193581,81.8057 C10.7656419,80.9526643 10.5521959,79.8695214 10.83375,78.8331286 L12.9609122,70.9912714 L31.4619932,70.9912714 L29.2819257,80.4912357 Z M81.7348986,-0.000121428571 L69.9448986,-0.000121428571 L69.9448986,5.97416429 L64.8319257,10.1628429 C61.9263851,12.5440571 58.2838176,13.8451643 54.5244932,13.8451643 L25.9105743,13.8451643 C16.8053716,13.8451643 8.99787162,19.3883786 5.68429054,27.2775929 L5.16861486,27.2775929 C2.31415541,27.2775929 -0.000304054054,29.5877714 -0.000304054054,32.4383071 L-0.000304054054,39.0318786 C-0.000304054054,41.8818071 2.31415541,44.1925929 5.16861486,44.1925929 L5.68429054,44.1925929 C7.61503378,48.7886643 11.0696959,52.5881643 15.4201014,54.9590571 L11.5081419,69.3805214 L9.07206081,78.3571286 C8.64152027,79.9454143 8.96929054,81.60595 9.9714527,82.9125214 C10.9723986,84.2197 12.4926689,84.9689143 14.1406419,84.9689143 L25.9421959,84.9689143 C28.4056419,84.9689143 30.5103041,83.2950214 31.0600338,80.8980214 L33.6098311,69.79095 L36.4016554,57.6250214 L54.6625338,57.6250214 C58.4765878,57.6250214 62.1690203,58.9649857 65.0940203,61.4093429 L69.9448986,65.4656643 L69.9448986,71.4703071 L81.7348986,71.4703071 L81.7348986,45.86345 C86.3005743,44.7408429 89.6913851,40.6395929 89.6913851,35.7350929 C89.6913851,30.8299857 86.3005743,26.7287357 81.7348986,25.6067357 L81.7348986,-0.000121428571 Z" id="Fill-1" fill="#000000" mask="url(#mask-2)"></path>
            </g>
        </g>
    </g>
</svg>