<?xml version="1.0" encoding="utf-8"?>
<!-- Generator: Adobe Illustrator 22.0.1, SVG Export Plug-In . SVG Version: 6.00 Build 0)  -->
<svg version="1.1" id="Layer_1" xmlns="http://www.w3.org/2000/svg" xmlns:xlink="http://www.w3.org/1999/xlink" x="0px" y="0px"
	 viewBox="0 0 68.2 139.9" style="enable-background:new 0 0 68.2 139.9;" xml:space="preserve">
<path d="M28.2,135.6c0.3,3.1,1.8,4.3,3.9,4.3c12-0.1,24.1-0.1,36-0.1v-4.2C54.8,135.6,41.5,135.6,28.2,135.6z"/>
<path d="M42,125.8c-0.8-2.5-1.7-5.1-2.6-7.8c2-0.4,3.8-0.8,5.8-1.2c0.5,1,0.9,1.9,1.3,2.8c-0.3,0.4-0.7,0.7-0.9,1.1
	c-1.1,1.5-0.7,3.4,0.9,4.4c1.4,0.9,3.4,0.3,4.2-1.1c0.9-1.6,0.3-3.7-1.4-4.3c-1.6-0.5-1.7-1.9-2.3-3c0.3-0.1,0.5-0.3,0.6-0.3
	c2.7-0.5,5.3-1.1,8.1-1.6c0.5,0.6,0.9,1.1,1.3,1.7c-0.5,0.9-1.1,1.6-1.3,2.4c-0.4,1.6,0.6,3.1,2.2,3.5c1.5,0.4,3.1-0.4,3.6-1.8
	c0.6-1.6-0.1-3.2-1.7-3.9c-1-0.4-1.8-1-2.1-2.5c3.5-0.5,7-1,10.5-1.5V111c-0.2,0.1-0.4,0.1-0.5,0.1c-3.3,0.5-6.5,1-9.8,1.6
	c-4.3,0.8-8.6,1.6-12.9,2.6c-3.7,0.8-7.3,1.7-10.9,2.7c-2.1,0.6-4.1,1.9-5.1,3.9c-1.9,3.6-1.3,7.5-1.2,11.5c13.5,0,27,0,40.5,0v-4.8
	c-7.4,0-14.8,0-22.2,0C42.4,128.6,43,128.8,42,125.8z"/>
<g>
	<path d="M55.5,23.9c-0.1-0.2-0.3-0.3-0.5-0.4s-0.4-0.1-0.7-0.1s-0.5,0-0.7,0.1s-0.3,0.2-0.5,0.4s-0.2,0.4-0.3,0.6s-0.1,0.5-0.1,0.8
		v4.5c0,0.3,0,0.5,0.1,0.8s0.1,0.4,0.3,0.6s0.3,0.3,0.5,0.4s0.4,0.1,0.7,0.1s0.5,0,0.7-0.1s0.3-0.2,0.5-0.4s0.2-0.4,0.3-0.6
		s0.1-0.5,0.1-0.8v-4.5c0-0.3,0-0.5-0.1-0.8S55.6,24,55.5,23.9z"/>
	<path d="M40.8,23.9c-0.1-0.2-0.3-0.3-0.5-0.4s-0.4-0.1-0.7-0.1s-0.5,0-0.7,0.1s-0.3,0.2-0.5,0.4s-0.2,0.4-0.3,0.6S38,25,38,25.3
		v4.5c0,0.3,0,0.5,0.1,0.8s0.1,0.4,0.3,0.6s0.3,0.3,0.5,0.4s0.4,0.1,0.7,0.1s0.5,0,0.7-0.1s0.3-0.2,0.5-0.4s0.2-0.4,0.3-0.6
		s0.1-0.5,0.1-0.8v-4.5c0-0.3,0-0.5-0.1-0.8S40.9,24,40.8,23.9z"/>
	<path d="M62.2,23.9c-0.1-0.2-0.3-0.3-0.6-0.4s-0.6-0.1-1.1-0.1h-0.4v3.4h0.4c0.4,0,0.7,0,0.9-0.1s0.4-0.1,0.6-0.3s0.2-0.3,0.3-0.5
		s0.1-0.4,0.1-0.7s0-0.5,0-0.8S62.3,24,62.2,23.9z"/>
	<path d="M26.9,18.8c0-6.5,0-12.6,0-18.8c-3.7,0-7.3,0-10.7,0c-0.9,4.4-1.7,8.5-2.6,12.8c-4.5,0-8.9,0-13.5,0c0,2.4,0,4.7,0,6.8
		c4,0,7.8,0,11.5,0c0.4-1.1,0.3-2.6,2.2-1.5c0,0.7,0,1.5,0,2.7c-4.7,0-9.2,0-13.8,0c0,2.5,0,4.6,0,6.8c4,0,7.9,0,11.8,0
		c0.1-1.7,0.6-2.4,1.9-1.4c0,0.9,0,1.7,0,2.7c-4.6,0-9.1,0-13.6,0c0,2.4,0,4.6,0,6.9c4,0,7.8,0,11.5,0c0.4-1.1,0.3-2.6,2.1-1.6
		c0.2,0.9,0.3,1.8,0.5,2.7c18,0,35.9,0,53.7,0c0-6,0-12,0-18C54.3,18.8,40.7,18.8,26.9,18.8z M31.1,30.3c0.1,0.3,0.2,0.6,0.3,0.8
		s0.3,0.3,0.5,0.4c0.2,0.1,0.4,0.1,0.6,0.1s0.4,0,0.6-0.1s0.3-0.2,0.5-0.4s0.3-0.5,0.3-0.8s0.1-0.8,0.1-1.4v-0.4h-1.5v-1.1h3v5.2
		h-1.1L34,31.5c0,0.1-0.1,0.3-0.2,0.4s-0.2,0.3-0.3,0.4s-0.3,0.2-0.4,0.3s-0.4,0.1-0.6,0.1c-0.3,0-0.6,0-0.9-0.1s-0.5-0.1-0.7-0.3
		s-0.4-0.3-0.6-0.5S30,31.3,29.9,31s-0.2-0.7-0.3-1.1s-0.1-0.9-0.1-1.5v-2.7c0-0.6,0.1-1.1,0.2-1.6s0.3-0.9,0.5-1.2s0.5-0.6,0.9-0.8
		s0.9-0.3,1.4-0.3s0.9,0.1,1.3,0.2s0.7,0.4,0.9,0.7s0.4,0.7,0.6,1.1s0.2,0.9,0.2,1.5H34c0-0.4,0-0.7-0.1-1s-0.1-0.5-0.3-0.7
		s-0.3-0.3-0.5-0.4s-0.4-0.1-0.7-0.1s-0.5,0-0.7,0.1s-0.3,0.2-0.5,0.4S31,24,30.9,24.3s-0.1,0.6-0.1,1v3.4C31,29.5,31,30,31.1,30.3z
		 M42.6,29.4c0,0.5,0,0.9-0.1,1.3s-0.3,0.8-0.5,1.1s-0.5,0.6-0.9,0.8s-0.9,0.3-1.4,0.3c-0.4,0-0.7,0-1-0.1s-0.6-0.2-0.8-0.4
		s-0.4-0.3-0.6-0.6s-0.3-0.5-0.4-0.7s-0.2-0.5-0.2-0.8s-0.1-0.6-0.1-0.9v-3.8c0-0.3,0-0.6,0.1-0.9s0.1-0.6,0.2-0.8s0.2-0.5,0.4-0.7
		s0.3-0.4,0.6-0.6s0.5-0.3,0.8-0.4s0.6-0.1,1-0.1c0.6,0,1.1,0.1,1.4,0.3s0.7,0.4,0.9,0.8s0.4,0.7,0.5,1.1s0.1,0.9,0.1,1.3V29.4z
		 M50.8,23.6H49v9.2h-1.5v-9.2h-1.9v-1.3h5.2V23.6z M57.4,29.4c0,0.5,0,0.9-0.1,1.3s-0.3,0.8-0.5,1.1s-0.5,0.6-0.9,0.8
		s-0.9,0.3-1.4,0.3c-0.4,0-0.7,0-1-0.1s-0.6-0.2-0.8-0.4s-0.4-0.3-0.6-0.6s-0.3-0.5-0.4-0.7s-0.2-0.5-0.2-0.8s-0.1-0.6-0.1-0.9v-3.8
		c0-0.3,0-0.6,0.1-0.9s0.1-0.6,0.2-0.8s0.2-0.5,0.4-0.7s0.3-0.4,0.6-0.6s0.5-0.3,0.8-0.4s0.6-0.1,1-0.1c0.6,0,1.1,0.1,1.4,0.3
		s0.7,0.4,0.9,0.8s0.4,0.7,0.5,1.1s0.1,0.9,0.1,1.3V29.4z M63.7,26.4c-0.1,0.3-0.3,0.6-0.6,0.8s-0.5,0.4-0.8,0.5s-0.7,0.1-1,0.1
		h-1.1v4.9h-1.5V22.2h2.6c0.5,0,0.9,0.1,1.2,0.2s0.6,0.3,0.8,0.6s0.4,0.6,0.5,0.9s0.1,0.8,0.1,1.3S63.9,26.1,63.7,26.4z"/>
</g>
</svg>
