<?xml version="1.0" encoding="utf-8"?>
<!-- Generator: Adobe Illustrator 22.0.1, SVG Export Plug-In . SVG Version: 6.00 Build 0)  -->
<svg version="1.1" xmlns="http://www.w3.org/2000/svg" xmlns:xlink="http://www.w3.org/1999/xlink" x="0px" y="0px"
	 viewBox="0 0 401.6 433.9" style="enable-background:new 0 0 401.6 433.9;" xml:space="preserve">
<style type="text/css">
	.st0{fill:#EF0F0F;}
	.st1{fill:#FFFFFF;}
</style>
<g id="color">
	<g>
		<circle class="st0" cx="247.8" cy="141.5" r="25.5"/>
		<path class="st0" d="M286.7,385.6c-0.8,3-2.4,4.1-4.4,4.9c-2.4,1-3.4,3.1-3.2,5.4c0.2,2.3,1.5,4.2,4,4.9c2.4,0.6,4.4,0.2,6.1-1.8
			c1.5-1.7,1.6-4.8,0.3-6.8c-0.5-0.7-1-1.3-1.6-2.1c0.8-1.1,1.7-2.2,2.6-3.5c5.4,1.1,10.6,2.2,16.2,3.3c-1,2.6-1.3,5-4.4,6
			s-4,4.9-2.4,7.8c1.5,2.8,5,3.8,7.7,2.1c2.8-1.7,3.7-5.3,1.9-8c-0.4-0.7-1-1.3-1.8-2.2c0.7-1.5,1.3-3.2,2.2-5.2
			c3.7,0.7,7.2,1.5,11.2,2.2c-1.1,3.3-2.1,6.4-3.1,9.4c-0.9,2.8-2,5.5-2.8,8.3c-0.5,1.5-1.4,2.2-2.9,2.1c-1.1,0-2.2,0.1-3.2,0.1
			c-20.1,0-40.1,0-60.2,0c-0.8,0-1.6-0.1-2.6-0.1c0-10.8,0-21.4,0-32.7C259.7,381.9,273.1,383.8,286.7,385.6z"/>
		<path class="st0" d="M203.6,226.8c3.6-4.4,6.8-8.4,10.4-12.8c3.6,4.4,6.9,8.5,10.4,12.8c-3.6,4.3-7,8.4-10.7,12.9
			C210.1,235.1,206.9,231,203.6,226.8z"/>
		<path class="st0" d="M181.7,380c0,11.1,0,21.7,0,32.6c-0.9,0.1-1.8,0.2-2.6,0.2c-20,0-40,0.1-60,0c-6.8,0-5.6,0.3-7.5-5.3
			c-1.6-4.7-3.2-9.4-4.9-14.5c3.7-0.8,7.2-1.5,10.8-2.3c0.9,1.9,1.6,3.5,2.4,5.2c-0.7,0.7-1.2,1.3-1.7,2c-2.1,2.7-1.3,6.4,1.7,8.2
			c2.6,1.6,6.3,0.6,7.8-2c1.6-2.9,0.5-7-2.6-8s-3.1-3.5-4.2-5.7c0.6-0.3,0.8-0.5,1.1-0.5c5-1,9.9-2,15-3c0.9,1.1,1.7,2.1,2.4,3.1
			c-0.9,1.6-2,3-2.3,4.5c-0.7,3,1.2,5.8,4,6.5c2.9,0.7,5.9-0.7,6.8-3.3c1-3-0.1-6-3.1-7.3c-1.8-0.8-3.3-1.8-3.8-4.6
			C154.5,383.8,167.9,381.9,181.7,380z M167.4,409c5.9,0.1,10.3-4.1,10.3-9.8c0-5.4-4.5-10.1-9.8-10.2c-5.8-0.1-10.5,4.4-10.4,10.1
			C157.5,404.6,161.7,408.9,167.4,409z"/>
		<path class="st0" d="M160.8,355.5h24c0-2,0-4,0-6h-24C160.8,351.5,160.8,353.5,160.8,355.5z"/>
		<path class="st0" d="M243.6,355.5h23.2c0-2,0-4,0-6h-23.1C243.6,351.5,243.6,353.5,243.6,355.5z"/>
		<path class="st0" d="M86.1,117.1c-3.9,0-8,0-12,0v25.1c3.9,0,7.9,0,12,0V117.1z"/>
	</g>
</g>
<g id="ball">
	<path d="M39.4,237.9c1.2,0.2,2.4,0.3,3.6,0.5c5.6,1,10.5,3.3,14.8,6.9c0.1,0.1,0.2,0.2,0.3,0.3c-6.8,6.8-13.6,13.6-20.4,20.4
		c-2.2-2.2-4.5-4.5-6.8-6.8c4.9-6.2,6.5-13.3,4.6-21.1c0.2,0,0.4-0.1,0.5-0.2C37.1,237.9,38.3,237.9,39.4,237.9z M6.6,270.6
		c0,0.2,0.1,0.4,0.1,0.6c0.4,5.8,2.3,11.1,5.7,15.8c0.6,0.8,1.3,1.6,1.8,2.4c6.9-6.9,13.7-13.7,20.5-20.5c-2.3-2.3-4.5-4.5-6.8-6.8
		c-6.3,5-13.3,6.5-21.1,4.6c0,0.2-0.1,0.4-0.2,0.5C6.6,268.3,6.6,269.5,6.6,270.6z M47.4,275.8c2.9-2.4,6.2-4.1,10-4.9
		c3.7-0.8,7.4-0.7,11.3,0.3c0.5-8.7-2.1-16.2-7.7-22.8c-6.9,6.9-13.7,13.7-20.5,20.5C42.8,271.2,45.1,273.5,47.4,275.8z M44.5,278.7
		c-2.3-2.3-4.6-4.6-6.8-6.8c-6.8,6.8-13.6,13.6-20.4,20.4c6.5,5.5,14,8.1,22.7,7.6C38,292,39.5,284.9,44.5,278.7z M31.5,238.5
		c-5.4,1.1-10.2,3.5-14.3,7.1c3.6,3.6,7.2,7.2,10.8,10.8C32.2,251,33.3,245.1,31.5,238.5z M25.1,259.3c-3.6-3.6-7.2-7.2-10.8-10.8
		c-3.3,3.4-6.2,9.2-7.1,14.2C12.6,264.6,20.2,263.6,25.1,259.3z M50.2,278.6c3.6,3.6,7.2,7.2,10.8,10.8c3.6-4.1,5.9-8.8,7.1-14.3
		C61.5,273.3,55.5,274.5,50.2,278.6z M47.3,281.5c-4.2,4.9-5.3,12.3-3.4,17.9c5.4-1.1,10.1-3.5,14.2-7.1
		C54.5,288.7,50.9,285.1,47.3,281.5z"/>
</g>
<g id="body">
	<g>
		<path d="M391,36.5c-3.9,3.3-6.9,7.1-6.5,12.6c0.4,5.4,3.9,8.6,8.2,11.3c-2.1,6.1-5.3,11.2-10.4,15c-2.9,2.1-5.9,1.3-8.8,0
			c-3.9-1.8-7.5-1.5-11.3,0.1c-4.6,2-7.9,1.5-11.3-2.3c-7.7-8.8-11.7-18.9-9-30.6c2.2-9.8,11-14.1,20.2-11.1
			c3.9,1.3,7.2,1.2,11.1-0.1C379.5,29.4,387.1,30.7,391,36.5z"/>
		<path d="M221.8,340.3c0-5.5-0.3-11-0.4-16.5c-0.3-14.3-0.7-28.6-1-42.9c-0.2-9.2-0.3-18.5-0.5-27.7c0-1.9-0.2-3.7-0.3-5.6
			c-0.2-0.1-0.4-0.1-0.6-0.2c-1.5,2-3.1,4.1-4.8,6.4c-1.8-2.3-3.3-4.4-4.8-6.4c-0.2,0.1-0.4,0.1-0.6,0.2c-0.1,1.9-0.3,3.7-0.3,5.6
			c-0.2,9.2-0.3,18.5-0.5,27.7c-0.3,14.3-0.7,28.6-1,42.9c-0.1,5.5-0.4,11-0.4,16.5c0,1.1,0.4,2.5,1.1,3.4c1.9,2.7,3.9,5.3,6.2,8.3
			l0,0c0,0.1,0.1,0.1,0.1,0.2c0.1,0.1,0.2,0.2,0.2,0.3l0,0l0,0c0.1-0.1,0.2-0.2,0.2-0.3c0-0.1,0.1-0.1,0.1-0.2l0,0
			c2.3-3,4.4-5.6,6.2-8.3C221.4,342.7,221.8,341.4,221.8,340.3z"/>
		<path d="M86.1,426c32.9,0,65.7,0,98.6,0c0,2.6,0,5,0,7.8c-1.1,0-2.1,0-3.1,0c-29.5,0-59-0.1-88.4,0.1
			C89.4,433.9,86.5,431.6,86.1,426z"/>
		<path d="M243.1,433.8c0-2.9,0-5.3,0-7.8c32.9,0,65.7,0,98.4,0c0.2,3.7-2.6,8-6.9,8c-29.5-0.3-59-0.1-88.4-0.1
			C245.2,433.8,244.2,433.8,243.1,433.8z"/>
		<path d="M378.7,16.1c2.4,7.3-7,15.7-11.7,13.8C364.8,24,372.3,15.2,378.7,16.1z"/>
		<path class="st1" d="M206.8,38.9c11.8-6.1,23.6-12.3,35.8-18.6c0,13.1,0,25.8,0,39.1c-12.2-6.7-24-13.2-35.9-19.6
			C206.8,39.4,206.8,39.2,206.8,38.9z"/>
		<path d="M167.4,409c-5.7-0.1-9.9-4.3-9.9-9.9c0-5.7,4.7-10.2,10.4-10.1c5.3,0.1,9.9,4.8,9.8,10.2C177.7,404.8,173.3,409,167.4,409
			z"/>
		<polygon class="st1" points="167.6,392.9 169.4,396.4 173.2,397 170.4,399.7 171.1,403.5 167.6,401.7 164.2,403.5 164.9,399.7 
			162.1,397 165.9,396.4 		"/>
		<path d="M259.9,389c-5.7,0-10.1,4.4-10.2,10.1c-0.1,5.1,4.4,10.5,10.2,9.9c5.7,0,10-4.3,9.9-9.9C269.8,393.5,265.3,389,259.9,389z
			"/>
		<path d="M160.8,379.2c-0.6,0.2-1.2,0.3-1.7,0.4c-6.1,1-12.1,1.9-18.2,3.1c-8,1.5-16,3.1-24,4.8c-6.8,1.5-13.6,3.1-20.3,5
			c-4,1.2-7.6,3.5-9.5,7.2c-3.5,6.7-2.4,14.1-2.2,21.4c33.4,0,66.5,0,99.9,0c0-21.9,0-43.8,0-65.6h-24
			C160.8,363.4,160.8,371.3,160.8,379.2z M181.7,412.6c-0.9,0.1-1.8,0.2-2.6,0.2c-20,0-40,0.1-60,0c-6.8,0-5.6,0.3-7.5-5.3
			c-1.6-4.7-3.2-9.4-4.9-14.5c3.7-0.8,7.2-1.5,10.8-2.3c0.9,1.9,1.6,3.5,2.4,5.2c-0.7,0.7-1.2,1.3-1.7,2c-2.1,2.7-1.3,6.4,1.7,8.2
			c2.6,1.6,6.3,0.6,7.8-2c1.6-2.9,0.5-7-2.6-8c-3.1-1-3.1-3.5-4.2-5.7c0.6-0.3,0.8-0.5,1.1-0.5c5-1,9.9-2,15-3
			c0.9,1.1,1.7,2.1,2.4,3.1c-0.9,1.6-2,3-2.3,4.5c-0.7,3,1.2,5.8,4,6.5c2.9,0.7,5.9-0.7,6.8-3.3c1-3-0.1-6-3.1-7.3
			c-1.8-0.8-3.3-1.8-3.8-4.6c13.6-1.9,27-3.8,40.8-5.7C181.7,391.1,181.7,401.7,181.7,412.6z"/>
		<path d="M160.8,349.5h24c0-3.5,0-7,0-10.5h-24C160.8,342.5,160.8,346,160.8,349.5z"/>
		<path d="M243.7,349.5h23.1c0-3.5,0-7,0-10.5h-23.1C243.7,342.5,243.7,346,243.7,349.5z"/>
		<path class="st1" d="M243.7,339h23.1c0-4,0-8,0-12h-23.2C243.6,331,243.6,335,243.7,339z"/>
		<path class="st1" d="M160.8,339h24c0-4,0-8,0-12h-24C160.8,331,160.8,335,160.8,339z"/>
		<path class="st1" d="M86.1,117.1v25.1c2,0,4,0,6,0v-25.1C90.1,117.1,88.1,117.1,86.1,117.1z"/>
		<path d="M336,88v11.2c3.3,2.6,6.4,5.2,9.7,7.6c1.6,1.2,2.2,2.4,2.2,4.4c-0.1,19.9,0,39.8,0,59.7c0,0.9-0.1,1.8-0.2,2.6h-61.9V83.2
			c-11.1-6-22-12-33.1-18.1v-55c-4.7,0.6-9.2,0.4-13.1,1.8c-5.8,2.1-11.2,5.4-16.8,8.2c-8.9,4.5-17.8,9-26.8,13.5
			c-11.6-6.3-23.1-12.6-35.2-19.3v12.1c-14.5-9-28.4-17.6-43-26.7v117.4H92.1v25.1h25.6v27.2h21.9c0.3,16.4,0.6,32.5,1,49h20.2V327
			h24V218.3c2.3,0,4.3,0,6.3,0c2.1,0,4.2,0,6.4,0c5.1-7.1,10.1-14.2,15.4-21.7c5.2,7.7,10.1,14.7,14.9,21.9h15.8c0,1.2,0,2.1,0,3
			c0,26.2,0.2,52.5-0.1,78.7c-0.1,8.9,0,17.9,0.1,26.8h23.2V218.1h18.8v-20h74.6c6.8,0,12.4-5.5,12.4-12.4v-78.6
			c9.7-2.9,19.3-5.7,28.8-8.4V87.4C379.6,88,357.9,88,336,88z M236.1,145.7c1.4,4.6,6.2,8,11.1,8.3c5.9,0.2,10.7-4,12.3-8.7
			c1.8-5.3-0.3-10.3-6.4-14.9c0-2.7,0-7.5,0-10.3c9.6,0.8,17.8,11.9,17.3,23.1c-0.5,11.8-10.8,21.3-22.9,21.1
			c-11.9-0.1-22.1-9.8-22.2-22.2c-0.2-11.6,8.3-20.6,17.5-22c0,2.7,0,7.4,0,10.1C236.3,134.9,234.3,139.5,236.1,145.7z M206.8,38.9
			c11.8-6.1,23.6-12.3,35.8-18.6c0,13.1,0,25.8,0,39.1c-12.2-6.7-24-13.2-35.9-19.6C206.8,39.4,206.8,39.2,206.8,38.9z M124,11.4
			c14.3,8.9,28.2,17.5,42.8,26.5c0-4.4,0-8.3,0-12.9c25.8,14.1,50.9,27.9,75.9,41.6c0,7.4,0,14.6,0,22.4
			c-26.8-14.8-53.1-29.4-80.3-44.5c0,5.3,0,9.8,0,14.4c-0.3,0.1-0.6,0.3-1,0.4c-12.5-8-25-16-37.5-24C124,27.5,124,19.8,124,11.4z
			 M231.4,212.6c-5.9-8.6-11.8-17.4-18.2-26.7c-6.5,9.2-12.7,18-19,26.8c-15.8,0-31.4,0-47.5,0c0-14.2,0-28.3,0-42.8
			c18.7,0,32.7,0,51.8,0c0-0.1,0-0.2,0-0.3h2.2v-17.8h-6.2v12.1c-24.7,0-45.3,0-70.6,0c0-20.1,0-39.9,0-59.9c36,0,71.7,0,107.6,0
			c0,2.9,0,5.6,0,8.5c-14.6,9.7-20.7,23.1-15.4,40.3c4.2,13.5,14.3,21.3,28.3,22.6c16.2,1.5,27.7-6.2,35.1-20.7
			c0.1,19.2,0.1,38.5,0.1,57.9C263.6,212.6,247.7,212.6,231.4,212.6z M279.7,109.9c-9.1-5-17.8-9.8-26.6-14.7c0-7.4,0-14.7,0-22.6
			c9.1,5,17.8,9.7,26.6,14.5C279.7,94.6,279.7,102,279.7,109.9z"/>
		<path d="M27.9,127.5v80.6c-9.6,2.9-18.8,5.7-28,8.4v11.7h65.7v-11.6c-3.2-2.5-6.5-5.1-9.9-7.5c-1.6-1.1-2.2-2.4-2.2-4.4
			c0.1-19.9,0-39.8,0-59.7c0-0.9,0.1-1.8,0.2-2.8h20.4v-25.1H38.3C32.6,117.1,27.9,121.8,27.9,127.5z"/>
		<path d="M242.7,379c-0.9,13.2-0.2,26.5-0.1,39.7c0,0.7,0.1,1.5,0.2,2.3c33.2,0,66.2,0,99.6,0c-0.1-6.3,0.5-12.3-1.1-18.3
			c-1-3.5-3-6.1-5.9-8c-1.5-1-3.2-2-4.9-2.5c-5.9-1.6-11.9-3.2-17.9-4.5c-11.1-2.3-22.3-4.5-33.5-6.6c-4.1-0.8-8.2-1.3-12.3-2
			c0-7.9,0-15.7,0-23.6h-23.2C243.5,363.3,243.2,371.2,242.7,379z M286.7,385.6c-0.8,3-2.4,4.1-4.4,4.9c-2.4,1-3.4,3.1-3.2,5.4
			s1.5,4.2,4,4.9c2.4,0.6,4.4,0.2,6.1-1.8c1.5-1.7,1.6-4.8,0.3-6.8c-0.5-0.7-1-1.3-1.6-2.1c0.8-1.1,1.7-2.2,2.6-3.5
			c5.4,1.1,10.6,2.2,16.2,3.3c-1,2.6-1.3,5-4.4,6c-3.1,1-4,4.9-2.4,7.8c1.5,2.8,5,3.8,7.7,2.1c2.8-1.7,3.7-5.3,1.9-8
			c-0.4-0.7-1-1.3-1.8-2.2c0.7-1.5,1.3-3.2,2.2-5.2c3.7,0.7,7.2,1.5,11.2,2.2c-1.1,3.3-2.1,6.4-3.1,9.4c-0.9,2.8-2,5.5-2.8,8.3
			c-0.5,1.5-1.4,2.2-2.9,2.1c-1.1,0-2.2,0.1-3.2,0.1c-20.1,0-40.1,0-60.2,0c-0.8,0-1.6-0.1-2.6-0.1c0-10.8,0-21.4,0-32.7
			C259.7,381.9,273.1,383.8,286.7,385.6z"/>
		<polygon class="st1" points="259.3,392.9 261,396.4 264.9,397 262.1,399.7 262.8,403.5 259.3,401.7 255.9,403.5 256.5,399.7 
			253.7,397 257.6,396.4 		"/>
		<path d="M201.5,135.8c-11.1-7.9-63.2-7.8-73.7,0.2c9.7,0,18.8,0,27.8,0c-0.9,1.6-1.5,3.5-1.5,5.5c0,6,4.9,10.9,10.9,10.9
			s10.9-4.9,10.9-10.9c0-2.1-0.6-4-1.6-5.6C183.4,135.8,192.4,135.8,201.5,135.8z M164.4,144.3c-1.7,0-3-1.3-3-3s1.3-3,3-3
			s3,1.3,3,3S166,144.3,164.4,144.3z"/>
	</g>
</g>
</svg>
