<?xml version="1.0" encoding="UTF-8"?>
<svg width="1440px" height="710px" viewBox="0 0 1440 710" version="1.1" xmlns="http://www.w3.org/2000/svg" xmlns:xlink="http://www.w3.org/1999/xlink">
    <!-- Generator: Sketch 48.2 (47327) - http://www.bohemiancoding.com/sketch -->
    <title>Group 2</title>
    <desc>Created with Sketch.</desc>
    <defs>
        <rect id="path-1" x="0" y="0" width="1440" height="710"></rect>
    </defs>
    <g id="Desktop-HD" stroke="none" stroke-width="1" fill="none" fill-rule="evenodd" opacity="0.851279438">
        <g id="Group-2">
            <mask id="mask-2" fill="white">
                <use xlink:href="#path-1"></use>
            </mask>
            <g id="Mask"></g>
            <g mask="url(#mask-2)">
                <g transform="translate(-569.000000, -386.000000)">
                    <g id="Group-3-Copy-3" opacity="0.803102355" transform="translate(1555.774043, 719.506272) rotate(-45.000000) translate(-1555.774043, -719.506272) translate(1047.274043, 211.506272)">
                        <g id="Page-1" style="mix-blend-mode: multiply;" transform="translate(508.500000, 508.000000) rotate(-360.000000) translate(-508.500000, -508.000000) ">
                            <g style="mix-blend-mode: multiply;" transform="translate(-0.000000, -0.000000)">
                                <polygon id="Fill-1" fill="#FFFFFF" points="0 1015.40816 1015.40816 1015.40816 1015.40816 0 0 0"></polygon>
                                <polygon id="Fill-2" fill="#FBFBFB" points="388.820206 0 390.916617 0.952469641 393.016107 0"></polygon>
                                <polygon id="Fill-3" fill="#FEFEFE" points="311.895345 0 353.166045 40.5603812 394.414741 0"></polygon>
                                <polygon id="Fill-4" fill="#F8F8F8" points="467.1437 0 469.241651 0.952469641 471.339602 0"></polygon>
                                <polygon id="Fill-6" fill="#FBFBFB" points="388.890521 0 349.658458 38.8733806 390.922275 79.7221285 432.177855 38.8733806 392.954028 0"></polygon>
                                <polygon id="Fill-7" fill="#FDFDFD" points="393.016107 79.0022291 351.767389 120.28251 310.496711 79.0022291 351.767389 37.7631135"></polygon>
                                <polygon id="Fill-8" fill="#FEFEFE" points="355.252994 118.222996 314.002908 159.444257 272.733598 118.222996 314.002908 76.9248609"></polygon>
                                <polygon id="Fill-10" fill="#F7F7F7" points="467.1437 0 508.404775 40.5603812 549.663097 0"></polygon>
                                <polygon id="Fill-11" fill="#F8F8F8" points="467.229419 0 427.981953 38.8733806 469.262254 79.7221285 510.501349 38.8733806 471.292343 0"></polygon>
                                <polygon id="Fill-12" fill="#FCFCFC" points="471.339602 79.0022291 430.056555 120.28251 388.820206 79.0022291 430.056555 37.7631135"></polygon>
                                <polygon id="Fill-13" fill="#FCFCFC" points="432.177855 118.222996 390.920902 159.444257 349.658458 118.222996 390.920902 76.9248609"></polygon>
                                <polygon id="Fill-14" fill="#FDFDFD" points="393.016107 157.343561 351.767389 198.606004 310.496711 157.343561 351.767389 116.086608"></polygon>
                                <polygon id="Fill-17" fill="#F8F8F8" points="545.536205 0 506.305448 38.8733806 547.567891 79.7221285 588.824844 38.8733806 549.599577 0"></polygon>
                                <polygon id="Fill-18" fill="#FBFBFB" points="549.663097 79.0022291 508.406147 120.28251 467.1437 79.0022291 508.406147 37.7631135"></polygon>
                                <polygon id="Fill-19" fill="#FCFCFC" points="510.501349 118.222996 469.262254 159.444257 427.981953 118.222996 469.262254 76.9248609"></polygon>
                                <polygon id="Fill-20" fill="#FCFCFC" points="471.339602 157.343561 430.056555 198.606004 388.820206 157.343561 430.056555 116.086608"></polygon>
                                <polygon id="Fill-21" fill="#FCFCFC" points="432.177855 196.508054 390.920902 237.767752 349.658458 196.508054 390.920902 155.248356"></polygon>
                                <polygon id="Fill-22" fill="#FDFDFD" points="393.016107 234.312353 351.767389 275.530865 310.496711 234.312353 351.767389 193.011469"></polygon>
                                <polygon id="Fill-26" fill="#F9F9F9" points="627.986591 79.0022291 586.706311 120.28251 545.467195 79.0022291 586.706311 37.7631135"></polygon>
                                <polygon id="Fill-27" fill="#F6F6F6" points="588.824844 118.222996 547.567891 159.444257 506.305448 118.222996 547.567891 76.9248609"></polygon>
                                <polygon id="Fill-28" fill="#F6F6F6" points="549.663097 157.343561 508.406147 198.606004 467.1437 157.343561 508.406147 116.086608"></polygon>
                                <polygon id="Fill-29" fill="#FCFCFC" points="510.501349 196.508054 469.262254 237.767752 427.981953 196.508054 469.262254 155.248356"></polygon>
                                <polygon id="Fill-30" fill="#FCFCFC" points="471.339602 234.312353 430.056555 275.530865 388.820206 234.312353 430.056555 193.011469"></polygon>
                                <polygon id="Fill-31" fill="#FCFCFC" points="432.177855 273.41506 390.920902 314.692613 349.658458 273.41506 390.920902 232.173216"></polygon>
                                <polygon id="Fill-32" fill="#FCFCFC" points="393.016107 312.574079 351.767389 353.85436 310.496711 312.574079 351.767389 271.334964"></polygon>
                                <polygon id="Fill-33" fill="#FEFEFE" points="355.252994 351.735827 314.002908 393.016107 272.733598 351.735827 314.002908 310.496711"></polygon>
                                <polygon id="Fill-38" fill="#F3F3F3" points="667.148339 118.222996 625.869412 159.444257 584.628942 118.222996 625.869412 76.9248609"></polygon>
                                <polygon id="Fill-39" fill="#F2F2F2" points="627.986591 157.343561 586.706311 198.606004 545.467195 157.343561 586.706311 116.086608"></polygon>
                                <polygon id="Fill-40" fill="#F2F2F2" points="588.824844 196.508054 547.567891 237.767752 506.305448 196.508054 547.567891 155.248356"></polygon>
                                <polygon id="Fill-41" fill="#F9F9F9" points="549.663097 234.312353 508.406147 275.530865 467.1437 234.312353 508.406147 193.011469"></polygon>
                                <polygon id="Fill-42" fill="#FCFCFC" points="510.501349 273.41506 469.262254 314.692613 427.981953 273.41506 469.262254 232.173216"></polygon>
                                <polygon id="Fill-43" fill="#FCFCFC" points="471.339602 312.574079 430.056555 353.85436 388.820206 312.574079 430.056555 271.334964"></polygon>
                                <polygon id="Fill-44" fill="#F9F9F9" points="432.177855 351.735827 390.920902 393.016107 349.658458 351.735827 390.920902 310.496711"></polygon>
                                <polygon id="Fill-45" fill="#FCFCFC" points="393.016107 390.918157 351.767389 432.177855 310.496711 390.918157 351.767389 349.658458"></polygon>
                                <polygon id="Fill-51" fill="#E4E4E4" points="707.70872 157.343561 666.450395 198.606004 625.189324 157.343561 666.450395 116.086608"></polygon>
                                <polygon id="Fill-52" fill="#F0F0F0" points="667.148339 196.508054 625.869412 237.767752 584.628942 196.508054 625.869412 155.248356"></polygon>
                                <polygon id="Fill-53" fill="#F5F5F5" points="627.986591 234.312353 586.706311 275.530865 545.467195 234.312353 586.706311 193.011469"></polygon>
                                <polygon id="Fill-54" fill="#F2F2F2" points="588.824844 273.41506 547.567891 314.692613 506.305448 273.41506 547.567891 232.173216"></polygon>
                                <polygon id="Fill-55" fill="#F7F7F7" points="549.663097 312.574079 508.406147 353.85436 467.1437 312.574079 508.406147 271.334964"></polygon>
                                <polygon id="Fill-56" fill="#FAFAFA" points="510.501349 351.735827 469.262254 393.016107 427.981953 351.735827 469.262254 310.496711"></polygon>
                                <polygon id="Fill-57" fill="#F8F8F8" points="471.339602 390.918157 430.056555 432.177855 388.820206 390.918157 430.056555 349.658458"></polygon>
                                <polygon id="Fill-58" fill="#F8F8F8" points="432.177855 430.10188 390.920902 471.339602 349.658458 430.10188 390.920902 388.820206"></polygon>
                                <polygon id="Fill-59" fill="#FDFDFD" points="393.016107 469.221069 351.767389 510.501349 310.496711 469.221069 351.767389 427.981953"></polygon>
                                <polygon id="Fill-60" fill="#FEFEFE" points="355.252994 508.404771 314.002908 549.663097 272.733598 508.404771 314.002908 467.1437"></polygon>
                                <polygon id="Fill-67" fill="#E4E4E4" points="746.870467 196.508054 705.613515 237.767752 664.351071 196.508054 705.613515 155.248356"></polygon>
                                <polygon id="Fill-68" fill="#DFDFDF" points="707.70872 234.312353 666.450395 275.530865 625.189324 234.312353 666.450395 193.011469"></polygon>
                                <polygon id="Fill-69" fill="#E7E7E7" points="667.148339 273.41506 625.869412 314.692613 584.628942 273.41506 625.869412 232.173216"></polygon>
                                <polygon id="Fill-70" fill="#F2F2F2" points="627.986591 312.574079 586.706311 353.85436 545.467195 312.574079 586.706311 271.334964"></polygon>
                                <polygon id="Fill-71" fill="#EEEEEE" points="588.824844 351.735827 547.567891 393.016107 506.305448 351.735827 547.567891 310.496711"></polygon>
                                <polygon id="Fill-72" fill="#F7F7F7" points="549.663097 390.918157 508.406147 432.177855 467.1437 390.918157 508.406147 349.658458"></polygon>
                                <polygon id="Fill-73" fill="#F7F7F7" points="510.501349 430.10188 469.262254 471.339602 427.981953 430.10188 469.262254 388.820206"></polygon>
                                <polygon id="Fill-74" fill="#FCFCFC" points="471.339602 469.221069 430.056555 510.501349 388.820206 469.221069 430.056555 427.981953"></polygon>
                                <polygon id="Fill-75" fill="#FCFCFC" points="432.177855 508.404771 390.920902 549.663097 349.658458 508.404771 390.920902 467.1437"></polygon>
                                <polygon id="Fill-76" fill="#FEFEFE" points="393.016107 547.563773 351.767389 588.824844 310.496711 547.563773 351.767389 506.305448"></polygon>
                                <polygon id="Fill-86" fill="#E7E7E7" points="786.032215 234.312353 744.793099 275.530865 703.512818 234.312353 744.793099 193.011469"></polygon>
                                <polygon id="Fill-87" fill="#EDEDED" points="746.870467 273.41506 705.613515 314.692613 664.351071 273.41506 705.613515 232.173216"></polygon>
                                <polygon id="Fill-88" fill="#EDEDED" points="707.70872 312.574079 666.450395 353.85436 625.189324 312.574079 666.450395 271.334964"></polygon>
                                <polygon id="Fill-89" fill="#ECECEC" points="667.148339 351.735827 625.869412 393.016107 584.628942 351.735827 625.869412 310.496711"></polygon>
                                <polygon id="Fill-90" fill="#F6F6F6" points="627.986591 390.918157 586.706311 432.177855 545.467195 390.918157 586.706311 349.658458"></polygon>
                                <polygon id="Fill-91" fill="#F6F6F6" points="588.824844 430.10188 547.567891 471.339602 506.305448 430.10188 547.567891 388.820206"></polygon>
                                <polygon id="Fill-92" fill="#F3F3F3" points="549.663097 469.221069 508.406147 510.501349 467.1437 469.221069 508.406147 427.981953"></polygon>
                                <polygon id="Fill-93" fill="#EDEDED" points="510.501349 508.404771 469.262254 549.663097 427.981953 508.404771 469.262254 467.1437"></polygon>
                                <polygon id="Fill-94" fill="#F6F6F6" points="471.339602 547.563773 430.056555 588.824844 388.820206 547.563773 430.056555 506.305448"></polygon>
                                <polygon id="Fill-95" fill="#F6F6F6" points="432.177855 586.72552 390.920902 627.986591 349.658458 586.72552 390.920902 545.467195"></polygon>
                                <polygon id="Fill-96" fill="#FEFEFE" points="393.016107 625.868058 351.767389 667.148339 310.496711 625.868058 351.767389 584.628942"></polygon>
                                <polygon id="Fill-103" fill="#DEDEDE" points="825.193962 273.41506 783.934264 314.692613 742.674566 273.41506 783.934264 232.173216"></polygon>
                                <polygon id="Fill-104" fill="#DEDEDE" points="786.032215 312.574079 744.793099 353.85436 703.512818 312.574079 744.793099 271.334964"></polygon>
                                <polygon id="Fill-105" fill="#EDEDED" points="746.870467 351.735827 705.613515 393.016107 664.351071 351.735827 705.613515 310.496711"></polygon>
                                <polygon id="Fill-106" fill="#ECECEC" points="707.70872 390.918157 666.450395 432.177855 625.189324 390.918157 666.450395 349.658458"></polygon>
                                <polygon id="Fill-107" fill="#F0F0F0" points="667.148339 430.10188 625.869412 471.339602 584.628942 430.10188 625.869412 388.820206"></polygon>
                                <polygon id="Fill-108" fill="#F5F5F5" points="627.986591 469.221069 586.706311 510.501349 545.467195 469.221069 586.706311 427.981953"></polygon>
                                <polygon id="Fill-109" fill="#ECECEC" points="588.824844 508.404771 547.567891 549.663097 506.305448 508.404771 547.567891 467.1437"></polygon>
                                <polygon id="Fill-110" fill="#EDEDED" points="549.663097 547.563773 508.406147 588.824844 467.1437 547.563773 508.406147 506.305448"></polygon>
                                <polygon id="Fill-111" fill="#ECECEC" points="510.501349 586.72552 469.262254 627.986591 427.981953 586.72552 469.262254 545.467195"></polygon>
                                <polygon id="Fill-112" fill="#F9F9F9" points="471.339602 625.868058 430.056555 667.148339 388.820206 625.868058 430.056555 584.628942"></polygon>
                                <polygon id="Fill-113" fill="#FBFBFB" points="432.177855 666.488833 390.920902 707.70872 349.658458 666.488833 390.920902 625.189324"></polygon>
                                <polygon id="Fill-119" fill="#DEDEDE" points="864.355709 312.574079 823.096011 353.85436 781.836313 312.574079 823.096011 271.334964"></polygon>
                                <polygon id="Fill-120" fill="#E3E3E3" points="825.193962 351.735827 783.934264 393.016107 742.674566 351.735827 783.934264 310.496711"></polygon>
                                <polygon id="Fill-121" fill="#E3E3E3" points="786.032215 390.918157 744.793099 432.177855 703.512818 390.918157 744.793099 349.658458"></polygon>
                                <polygon id="Fill-122" fill="#ECECEC" points="746.870467 430.10188 705.613515 471.339602 664.351071 430.10188 705.613515 388.820206"></polygon>
                                <polygon id="Fill-123" fill="#EFEFEF" points="707.70872 469.221069 666.450395 510.501349 625.189324 469.221069 666.450395 427.981953"></polygon>
                                <polygon id="Fill-124" fill="#EEEEEE" points="667.148339 508.404771 625.869412 549.663097 584.628942 508.404771 625.869412 467.1437"></polygon>
                                <polygon id="Fill-125" fill="#F2F2F2" points="627.986591 547.563773 586.706311 588.824844 545.467195 547.563773 586.706311 506.305448"></polygon>
                                <polygon id="Fill-126" fill="#F2F2F2" points="588.824844 586.72552 547.567891 627.986591 506.305448 586.72552 547.567891 545.467195"></polygon>
                                <polygon id="Fill-127" fill="#EDEDED" points="549.663097 625.868058 508.406147 667.148339 467.1437 625.868058 508.406147 584.628942"></polygon>
                                <polygon id="Fill-128" fill="#EFEFEF" points="510.501349 666.488833 469.262254 707.70872 427.981953 666.488833 469.262254 625.189324"></polygon>
                                <polygon id="Fill-129" fill="#FBFBFB" points="471.339602 702.817624 430.056555 744.0732 388.820206 702.817624 430.056555 661.553803"></polygon>
                                <polygon id="Fill-130" fill="#FEFEFE" points="432.177855 741.895629 390.920902 783.234947 349.658458 741.895629 390.920902 700.715551"></polygon>
                                <polygon id="Fill-135" fill="#E0E0E0" points="903.517457 351.735827 862.257758 393.016107 820.99806 351.735827 862.257758 310.496711"></polygon>
                                <polygon id="Fill-136" fill="#E2E2E2" points="864.355709 390.918157 823.096011 432.177855 781.836313 390.918157 823.096011 349.658458"></polygon>
                                <polygon id="Fill-137" fill="#E2E2E2" points="825.193962 430.10188 783.934264 471.339602 742.674566 430.10188 783.934264 388.820206"></polygon>
                                <polygon id="Fill-138" fill="#ECECEC" points="786.032215 469.221069 744.793099 510.501349 703.512818 469.221069 744.793099 427.981953"></polygon>
                                <polygon id="Fill-139" fill="#F2F2F2" points="746.870467 508.404771 705.613515 549.663097 664.351071 508.404771 705.613515 467.1437"></polygon>
                                <polygon id="Fill-140" fill="#EDEDED" points="707.70872 547.563773 666.450395 588.824844 625.189324 547.563773 666.450395 506.305448"></polygon>
                                <polygon id="Fill-141" fill="#EBEBEB" points="667.148339 586.72552 625.869412 627.986591 584.628942 586.72552 625.869412 545.467195"></polygon>
                                <polygon id="Fill-142" fill="#ECECEC" points="627.986591 625.868058 586.706311 667.148339 545.467195 625.868058 586.706311 584.628942"></polygon>
                                <polygon id="Fill-143" fill="#EEEEEE" points="588.824844 666.488833 547.567891 707.70872 506.305448 666.488833 547.567891 625.189324"></polygon>
                                <polygon id="Fill-144" fill="#F2F2F2" points="549.663097 702.817624 508.406147 744.0732 467.1437 702.817624 508.406147 661.553803"></polygon>
                                <polygon id="Fill-145" fill="#F8F8F8" points="510.501349 741.895629 469.262254 783.234947 427.981953 741.895629 469.262254 700.715551"></polygon>
                                <polygon id="Fill-149" fill="#E2E2E2" points="942.679204 390.918157 901.437361 432.177855 860.159808 390.918157 901.437361 349.658458"></polygon>
                                <polygon id="Fill-150" fill="#DCDCDC" points="903.517457 430.10188 862.257758 471.339602 820.99806 430.10188 862.257758 388.820206"></polygon>
                                <polygon id="Fill-151" fill="#D3D3D3" points="864.355709 469.221069 823.096011 510.501349 781.836313 469.221069 823.096011 427.981953"></polygon>
                                <polygon id="Fill-152" fill="#D2D2D2" points="825.193962 508.404771 783.934264 549.663097 742.674566 508.404771 783.934264 467.1437"></polygon>
                                <polygon id="Fill-153" fill="#D8D8D8" points="786.032215 547.563773 744.793099 588.824844 703.512818 547.563773 744.793099 506.305448"></polygon>
                                <polygon id="Fill-154" fill="#EDEDED" points="746.870467 586.72552 705.613515 627.986591 664.351071 586.72552 705.613515 545.467195"></polygon>
                                <polygon id="Fill-155" fill="#EFEFEF" points="707.70872 625.868058 666.450395 667.148339 625.189324 625.868058 666.450395 584.628942"></polygon>
                                <polygon id="Fill-156" fill="#D0D0D0" points="667.148339 666.488833 625.869412 707.70872 584.628942 666.488833 625.869412 625.189324"></polygon>
                                <polygon id="Fill-157" fill="#EEEEEE" points="627.986591 702.817624 586.706311 744.0732 545.467195 702.817624 586.706311 661.553803"></polygon>
                                <polygon id="Fill-158" fill="#F0F0F0" points="588.824844 741.895629 547.567891 783.234947 506.305448 741.895629 547.567891 700.715551"></polygon>
                                <polygon id="Fill-159" fill="#F8F8F8" points="549.663097 781.135623 508.406147 822.396694 467.1437 781.135623 508.406147 739.877298"></polygon>
                                <polygon id="Fill-162" fill="#DFDFDF" points="980.442317 430.10188 939.182619 471.339602 897.922921 430.10188 939.182619 388.820206"></polygon>
                                <polygon id="Fill-163" fill="#D9D9D9" points="942.679204 469.221069 901.437361 510.501349 860.159808 469.221069 901.437361 427.981953"></polygon>
                                <polygon id="Fill-164" fill="#DBDBDB" points="903.517457 508.404771 862.257758 549.663097 820.99806 508.404771 862.257758 467.1437"></polygon>
                                <polygon id="Fill-165" fill="#DCDCDC" points="864.355709 547.563773 823.096011 588.824844 781.836313 547.563773 823.096011 506.305448"></polygon>
                                <polygon id="Fill-166" fill="#DCDCDC" points="825.193962 586.72552 783.934264 627.986591 742.674566 586.72552 783.934264 545.467195"></polygon>
                                <polygon id="Fill-167" fill="#EAEAEA" points="786.032215 625.868058 744.793099 667.148339 703.512818 625.868058 744.793099 584.628942"></polygon>
                                <polygon id="Fill-168" fill="#F1F1F1" points="746.870467 666.488833 705.613515 707.70872 664.351071 666.488833 705.613515 625.189324"></polygon>
                                <polygon id="Fill-169" fill="#F1F1F1" points="707.70872 702.817624 666.450395 744.0732 625.189324 702.817624 666.450395 661.553803"></polygon>
                                <polygon id="Fill-170" fill="#E2E2E2" points="667.148339 741.895629 625.869412 783.234947 584.628942 741.895629 625.869412 700.715551"></polygon>
                                <polygon id="Fill-171" fill="#F6F6F6" points="627.986591 781.135623 586.706311 822.396694 545.467195 781.135623 586.706311 739.877298"></polygon>
                                <polygon id="Fill-172" fill="#FCFCFC" points="588.824844 821.657526 547.567891 862.957075 506.305448 821.657526 547.567891 780.437679"></polygon>
                                <polygon id="Fill-173" fill="#FEFEFE" points="549.663097 860.822061 508.406147 902.118823 467.1437 860.822061 508.406147 819.599427"></polygon>
                                <polygon id="Fill-175" fill="#E2E2E2" points="937.084669 469.221069 978.467119 510.501349 1015.40816 473.644936 1015.40816 464.80269 978.467119 427.981953"></polygon>
                                <polygon id="Fill-176" fill="#E2E2E2" points="980.442317 508.404771 939.182619 549.663097 897.922921 508.404771 939.182619 467.1437"></polygon>
                                <polygon id="Fill-177" fill="#E1E1E1" points="942.679204 547.563773 901.437361 588.824844 860.159808 547.563773 901.437361 506.305448"></polygon>
                                <polygon id="Fill-178" fill="#DCDCDC" points="903.517457 586.72552 862.257758 627.986591 820.99806 586.72552 862.257758 545.467195"></polygon>
                                <polygon id="Fill-179" fill="#E2E2E2" points="864.355709 625.868058 823.096011 667.148339 781.836313 625.868058 823.096011 584.628942"></polygon>
                                <polygon id="Fill-180" fill="#E2E2E2" points="825.193962 666.488833 783.934264 707.70872 742.674566 666.488833 783.934264 625.189324"></polygon>
                                <polygon id="Fill-181" fill="#EDEDED" points="786.032215 702.817624 744.793099 744.0732 703.512818 702.817624 744.793099 661.553803"></polygon>
                                <polygon id="Fill-182" fill="#D9D9D9" points="746.870467 741.895629 705.613515 783.234947 664.351071 741.895629 705.613515 700.715551"></polygon>
                                <polygon id="Fill-183" fill="#EDEDED" points="707.70872 781.135623 666.450395 822.396694 625.189324 781.135623 666.450395 739.877298"></polygon>
                                <polygon id="Fill-184" fill="#FAFAFA" points="667.148339 821.657526 625.869412 862.957075 584.628942 821.657526 625.869412 780.437679"></polygon>
                                <polygon id="Fill-185" fill="#FCFCFC" points="627.986591 860.822061 586.706311 902.118823 545.467195 860.822061 586.706311 819.599427"></polygon>
                                <polygon id="Fill-186" fill="#FDFDFD" points="588.824844 900.059309 547.567891 941.28057 506.305448 900.059309 547.567891 858.761174"></polygon>
                                <polygon id="Fill-187" fill="#E2E2E2" points="976.246416 508.40476 1015.40816 546.865829 1015.40816 469.940968"></polygon>
                                <polygon id="Fill-188" fill="#EDEDED" points="937.084669 547.563773 978.467119 588.824844 1015.40816 551.984504 1015.40816 543.143042 978.467119 506.305448"></polygon>
                                <polygon id="Fill-189" fill="#EDEDED" points="980.442317 586.72552 939.182619 627.986591 897.922921 586.72552 939.182619 545.467195"></polygon>
                                <polygon id="Fill-190" fill="#E5E5E5" points="942.679204 625.868058 901.437361 667.148339 860.159808 625.868058 901.437361 584.628942"></polygon>
                                <polygon id="Fill-191" fill="#E0E0E0" points="903.517457 666.488833 862.257758 707.70872 820.99806 666.488833 862.257758 625.189324"></polygon>
                                <polygon id="Fill-192" fill="#E2E2E2" points="864.355709 702.817624 823.096011 744.0732 781.836313 702.817624 823.096011 661.553803"></polygon>
                                <polygon id="Fill-193" fill="#F1F1F1" points="825.193962 741.895629 783.934264 783.234947 742.674566 741.895629 783.934264 700.715551"></polygon>
                                <polygon id="Fill-194" fill="#F2F2F2" points="786.032215 781.135623 744.793099 822.396694 703.512818 781.135623 744.793099 739.877298"></polygon>
                                <polygon id="Fill-195" fill="#F7F7F7" points="746.870467 821.657526 705.613515 862.957075 664.351071 821.657526 705.613515 780.437679"></polygon>
                                <polygon id="Fill-196" fill="#F7F7F7" points="707.70872 860.822061 666.450395 902.118823 625.189324 860.822061 666.450395 819.599427"></polygon>
                                <polygon id="Fill-197" fill="#FBFBFB" points="667.148339 900.059309 625.869412 941.28057 584.628942 900.059309 625.869412 858.761174"></polygon>
                                <polygon id="Fill-198" fill="#EDEDED" points="976.246416 586.725532 1015.40816 625.189324 1015.40816 548.264463"></polygon>
                                <polygon id="Fill-199" fill="#F0F0F0" points="937.084669 625.868058 978.467119 667.148339 1015.40816 630.291925 1015.40816 621.449679 978.467119 584.628942"></polygon>
                                <polygon id="Fill-200" fill="#FCFCFC" points="980.442317 666.488833 939.182619 707.70872 897.922921 666.488833 939.182619 625.189324"></polygon>
                                <polygon id="Fill-201" fill="#E9E9E9" points="942.679204 702.817624 901.437361 744.0732 860.159808 702.817624 901.437361 661.553803"></polygon>
                                <polygon id="Fill-202" fill="#F9F9F9" points="903.517457 741.895629 862.257758 783.234947 820.99806 741.895629 862.257758 700.715551"></polygon>
                                <polygon id="Fill-203" fill="#FCFCFC" points="864.355709 781.135623 823.096011 822.396694 781.836313 781.135623 823.096011 739.877298"></polygon>
                                <polygon id="Fill-204" fill="#FDFDFD" points="825.193962 821.657526 783.934264 862.957075 742.674566 821.657526 783.934264 780.437679"></polygon>
                                <polygon id="Fill-205" fill="#FCFCFC" points="786.032215 860.822061 744.793099 902.118823 703.512818 860.822061 744.793099 819.599427"></polygon>
                                <polygon id="Fill-206" fill="#FCFCFC" points="746.870467 900.059309 705.613515 941.28057 664.351071 900.059309 705.613515 858.761174"></polygon>
                                <polygon id="Fill-207" fill="#FCFCFC" points="976.246416 665.087139 1015.40816 703.512818 1015.40816 626.587957"></polygon>
                                <polygon id="Fill-208" fill="#FCFCFC" points="937.084669 702.817624 978.467119 744.0732 1015.40816 707.239434 1015.40816 698.395813 978.467119 661.553803"></polygon>
                                <polygon id="Fill-209" fill="#FDFDFD" points="864.355709 860.822061 823.096011 902.118823 781.836313 860.822061 823.096011 819.599427"></polygon>
                            </g>
                        </g>
                    </g>
                    <g id="Group-3-Copy-4" opacity="0.579766757" transform="translate(718.774043, 880.774043) rotate(-45.000000) translate(-718.774043, -880.774043) translate(210.274043, 372.774043)">
                        <g id="Page-1" style="mix-blend-mode: multiply;" transform="translate(508.500000, 508.000000) rotate(-360.000000) translate(-508.500000, -508.000000) ">
                            <g style="mix-blend-mode: multiply;" transform="translate(-0.000000, -0.000000)">
                                <polygon id="Fill-1" fill="#FFFFFF" points="0 1015.40816 1015.40816 1015.40816 1015.40816 0 0 0"></polygon>
                                <polygon id="Fill-35" fill="#F1F1F1" points="703.512818 0 744.79314 40.5603812 786.032215 0"></polygon>
                                <polygon id="Fill-36" fill="#F3F3F3" points="703.583134 0 664.351071 38.8733806 705.614888 79.7221285 746.870467 38.8733806 707.646641 0"></polygon>
                                <polygon id="Fill-37" fill="#F3F3F3" points="707.70872 79.0022291 666.450395 120.28251 625.189324 79.0022291 666.450395 37.7631135"></polygon>
                                <polygon id="Fill-38" fill="#F3F3F3" points="667.148339 118.222996 625.869412 159.444257 584.628942 118.222996 625.869412 76.9248609"></polygon>
                                <polygon id="Fill-39" fill="#F2F2F2" points="627.986591 157.343561 586.706311 198.606004 545.467195 157.343561 586.706311 116.086608"></polygon>
                                <polygon id="Fill-40" fill="#F2F2F2" points="588.824844 196.508054 547.567891 237.767752 506.305448 196.508054 547.567891 155.248356"></polygon>
                                <polygon id="Fill-41" fill="#F9F9F9" points="549.663097 234.312353 508.406147 275.530865 467.1437 234.312353 508.406147 193.011469"></polygon>
                                <polygon id="Fill-42" fill="#FCFCFC" points="510.501349 273.41506 469.262254 314.692613 427.981953 273.41506 469.262254 232.173216"></polygon>
                                <polygon id="Fill-43" fill="#FCFCFC" points="471.339602 312.574079 430.056555 353.85436 388.820206 312.574079 430.056555 271.334964"></polygon>
                                <polygon id="Fill-44" fill="#F9F9F9" points="432.177855 351.735827 390.920902 393.016107 349.658458 351.735827 390.920902 310.496711"></polygon>
                                <polygon id="Fill-45" fill="#FCFCFC" points="393.016107 390.918157 351.767389 432.177855 310.496711 390.918157 351.767389 349.658458"></polygon>
                                <polygon id="Fill-48" fill="#E7E7E7" points="781.902443 0 742.674566 38.8733806 783.934264 79.7221285 825.193962 38.8733806 785.966085 0"></polygon>
                                <polygon id="Fill-49" fill="#E7E7E7" points="786.032215 79.0022291 744.793099 120.28251 703.512818 79.0022291 744.793099 37.7631135"></polygon>
                                <polygon id="Fill-50" fill="#F1F1F1" points="746.870467 118.222996 705.613515 159.444257 664.351071 118.222996 705.613515 76.9248609"></polygon>
                                <polygon id="Fill-51" fill="#E4E4E4" points="707.70872 157.343561 666.450395 198.606004 625.189324 157.343561 666.450395 116.086608"></polygon>
                                <polygon id="Fill-52" fill="#F0F0F0" points="667.148339 196.508054 625.869412 237.767752 584.628942 196.508054 625.869412 155.248356"></polygon>
                                <polygon id="Fill-53" fill="#F5F5F5" points="627.986591 234.312353 586.706311 275.530865 545.467195 234.312353 586.706311 193.011469"></polygon>
                                <polygon id="Fill-54" fill="#F2F2F2" points="588.824844 273.41506 547.567891 314.692613 506.305448 273.41506 547.567891 232.173216"></polygon>
                                <polygon id="Fill-55" fill="#F7F7F7" points="549.663097 312.574079 508.406147 353.85436 467.1437 312.574079 508.406147 271.334964"></polygon>
                                <polygon id="Fill-56" fill="#FAFAFA" points="510.501349 351.735827 469.262254 393.016107 427.981953 351.735827 469.262254 310.496711"></polygon>
                                <polygon id="Fill-57" fill="#F8F8F8" points="471.339602 390.918157 430.056555 432.177855 388.820206 390.918157 430.056555 349.658458"></polygon>
                                <polygon id="Fill-58" fill="#F8F8F8" points="432.177855 430.10188 390.920902 471.339602 349.658458 430.10188 390.920902 388.820206"></polygon>
                                <polygon id="Fill-59" fill="#FDFDFD" points="393.016107 469.221069 351.767389 510.501349 310.496711 469.221069 351.767389 427.981953"></polygon>
                                <polygon id="Fill-60" fill="#FEFEFE" points="355.252994 508.404771 314.002908 549.663097 272.733598 508.404771 314.002908 467.1437"></polygon>
                                <polygon id="Fill-64" fill="#DEDEDE" points="864.355709 79.0022291 823.096011 120.28251 781.836313 79.0022291 823.096011 37.7631135"></polygon>
                                <polygon id="Fill-65" fill="#DCDCDC" points="825.193962 118.222996 783.934264 159.444257 742.674566 118.222996 783.934264 76.9248609"></polygon>
                                <polygon id="Fill-66" fill="#EAEAEA" points="786.032215 157.343561 744.793099 198.606004 703.512818 157.343561 744.793099 116.086608"></polygon>
                                <polygon id="Fill-67" fill="#E4E4E4" points="746.870467 196.508054 705.613515 237.767752 664.351071 196.508054 705.613515 155.248356"></polygon>
                                <polygon id="Fill-68" fill="#DFDFDF" points="707.70872 234.312353 666.450395 275.530865 625.189324 234.312353 666.450395 193.011469"></polygon>
                                <polygon id="Fill-69" fill="#E7E7E7" points="667.148339 273.41506 625.869412 314.692613 584.628942 273.41506 625.869412 232.173216"></polygon>
                                <polygon id="Fill-70" fill="#F2F2F2" points="627.986591 312.574079 586.706311 353.85436 545.467195 312.574079 586.706311 271.334964"></polygon>
                                <polygon id="Fill-71" fill="#EEEEEE" points="588.824844 351.735827 547.567891 393.016107 506.305448 351.735827 547.567891 310.496711"></polygon>
                                <polygon id="Fill-72" fill="#F7F7F7" points="549.663097 390.918157 508.406147 432.177855 467.1437 390.918157 508.406147 349.658458"></polygon>
                                <polygon id="Fill-73" fill="#F7F7F7" points="510.501349 430.10188 469.262254 471.339602 427.981953 430.10188 469.262254 388.820206"></polygon>
                                <polygon id="Fill-74" fill="#FCFCFC" points="471.339602 469.221069 430.056555 510.501349 388.820206 469.221069 430.056555 427.981953"></polygon>
                                <polygon id="Fill-75" fill="#FCFCFC" points="432.177855 508.404771 390.920902 549.663097 349.658458 508.404771 390.920902 467.1437"></polygon>
                                <polygon id="Fill-76" fill="#FEFEFE" points="393.016107 547.563773 351.767389 588.824844 310.496711 547.563773 351.767389 506.305448"></polygon>
                                <polygon id="Fill-83" fill="#DEDEDE" points="903.517457 118.222996 862.257758 159.444257 820.99806 118.222996 862.257758 76.9248609"></polygon>
                                <polygon id="Fill-84" fill="#DEDEDE" points="864.355709 157.343561 823.096011 198.606004 781.836313 157.343561 823.096011 116.086608"></polygon>
                                <polygon id="Fill-85" fill="#DEDEDE" points="825.193962 196.508054 783.934264 237.767752 742.674566 196.508054 783.934264 155.248356"></polygon>
                                <polygon id="Fill-86" fill="#E7E7E7" points="786.032215 234.312353 744.793099 275.530865 703.512818 234.312353 744.793099 193.011469"></polygon>
                                <polygon id="Fill-87" fill="#EDEDED" points="746.870467 273.41506 705.613515 314.692613 664.351071 273.41506 705.613515 232.173216"></polygon>
                                <polygon id="Fill-88" fill="#EDEDED" points="707.70872 312.574079 666.450395 353.85436 625.189324 312.574079 666.450395 271.334964"></polygon>
                                <polygon id="Fill-89" fill="#ECECEC" points="667.148339 351.735827 625.869412 393.016107 584.628942 351.735827 625.869412 310.496711"></polygon>
                                <polygon id="Fill-90" fill="#F6F6F6" points="627.986591 390.918157 586.706311 432.177855 545.467195 390.918157 586.706311 349.658458"></polygon>
                                <polygon id="Fill-91" fill="#F6F6F6" points="588.824844 430.10188 547.567891 471.339602 506.305448 430.10188 547.567891 388.820206"></polygon>
                                <polygon id="Fill-92" fill="#F3F3F3" points="549.663097 469.221069 508.406147 510.501349 467.1437 469.221069 508.406147 427.981953"></polygon>
                                <polygon id="Fill-93" fill="#EDEDED" points="510.501349 508.404771 469.262254 549.663097 427.981953 508.404771 469.262254 467.1437"></polygon>
                                <polygon id="Fill-94" fill="#F6F6F6" points="471.339602 547.563773 430.056555 588.824844 388.820206 547.563773 430.056555 506.305448"></polygon>
                                <polygon id="Fill-95" fill="#F6F6F6" points="432.177855 586.72552 390.920902 627.986591 349.658458 586.72552 390.920902 545.467195"></polygon>
                                <polygon id="Fill-96" fill="#FEFEFE" points="393.016107 625.868058 351.767389 667.148339 310.496711 625.868058 351.767389 584.628942"></polygon>
                                <polygon id="Fill-100" fill="#C3C3C3" points="942.679204 157.343561 901.437361 198.606004 860.159808 157.343561 901.437361 116.086608"></polygon>
                                <polygon id="Fill-101" fill="#BABABA" points="903.517457 196.508054 862.257758 237.767752 820.99806 196.508054 862.257758 155.248356"></polygon>
                                <polygon id="Fill-102" fill="#E0E0E0" points="864.355709 234.312353 823.096011 275.530865 781.836313 234.312353 823.096011 193.011469"></polygon>
                                <polygon id="Fill-103" fill="#DEDEDE" points="825.193962 273.41506 783.934264 314.692613 742.674566 273.41506 783.934264 232.173216"></polygon>
                                <polygon id="Fill-104" fill="#DEDEDE" points="786.032215 312.574079 744.793099 353.85436 703.512818 312.574079 744.793099 271.334964"></polygon>
                                <polygon id="Fill-105" fill="#EDEDED" points="746.870467 351.735827 705.613515 393.016107 664.351071 351.735827 705.613515 310.496711"></polygon>
                                <polygon id="Fill-106" fill="#ECECEC" points="707.70872 390.918157 666.450395 432.177855 625.189324 390.918157 666.450395 349.658458"></polygon>
                                <polygon id="Fill-107" fill="#F0F0F0" points="667.148339 430.10188 625.869412 471.339602 584.628942 430.10188 625.869412 388.820206"></polygon>
                                <polygon id="Fill-108" fill="#F5F5F5" points="627.986591 469.221069 586.706311 510.501349 545.467195 469.221069 586.706311 427.981953"></polygon>
                                <polygon id="Fill-109" fill="#ECECEC" points="588.824844 508.404771 547.567891 549.663097 506.305448 508.404771 547.567891 467.1437"></polygon>
                                <polygon id="Fill-110" fill="#EDEDED" points="549.663097 547.563773 508.406147 588.824844 467.1437 547.563773 508.406147 506.305448"></polygon>
                                <polygon id="Fill-111" fill="#ECECEC" points="510.501349 586.72552 469.262254 627.986591 427.981953 586.72552 469.262254 545.467195"></polygon>
                                <polygon id="Fill-112" fill="#F9F9F9" points="471.339602 625.868058 430.056555 667.148339 388.820206 625.868058 430.056555 584.628942"></polygon>
                                <polygon id="Fill-113" fill="#FBFBFB" points="432.177855 666.488833 390.920902 707.70872 349.658458 666.488833 390.920902 625.189324"></polygon>
                                <polygon id="Fill-116" fill="#D2D2D2" points="980.442317 196.508054 939.182619 237.767752 897.922921 196.508054 939.182619 155.248356"></polygon>
                                <polygon id="Fill-117" fill="#C1C1C1" points="942.679204 234.312353 901.437361 275.530865 860.159808 234.312353 901.437361 193.011469"></polygon>
                                <polygon id="Fill-118" fill="#D6D6D6" points="903.517457 273.41506 862.257758 314.692613 820.99806 273.41506 862.257758 232.173216"></polygon>
                                <polygon id="Fill-119" fill="#DEDEDE" points="864.355709 312.574079 823.096011 353.85436 781.836313 312.574079 823.096011 271.334964"></polygon>
                                <polygon id="Fill-120" fill="#E3E3E3" points="825.193962 351.735827 783.934264 393.016107 742.674566 351.735827 783.934264 310.496711"></polygon>
                                <polygon id="Fill-121" fill="#E3E3E3" points="786.032215 390.918157 744.793099 432.177855 703.512818 390.918157 744.793099 349.658458"></polygon>
                                <polygon id="Fill-122" fill="#ECECEC" points="746.870467 430.10188 705.613515 471.339602 664.351071 430.10188 705.613515 388.820206"></polygon>
                                <polygon id="Fill-123" fill="#EFEFEF" points="707.70872 469.221069 666.450395 510.501349 625.189324 469.221069 666.450395 427.981953"></polygon>
                                <polygon id="Fill-124" fill="#EEEEEE" points="667.148339 508.404771 625.869412 549.663097 584.628942 508.404771 625.869412 467.1437"></polygon>
                                <polygon id="Fill-125" fill="#F2F2F2" points="627.986591 547.563773 586.706311 588.824844 545.467195 547.563773 586.706311 506.305448"></polygon>
                                <polygon id="Fill-126" fill="#F2F2F2" points="588.824844 586.72552 547.567891 627.986591 506.305448 586.72552 547.567891 545.467195"></polygon>
                                <polygon id="Fill-127" fill="#EDEDED" points="549.663097 625.868058 508.406147 667.148339 467.1437 625.868058 508.406147 584.628942"></polygon>
                                <polygon id="Fill-128" fill="#EFEFEF" points="510.501349 666.488833 469.262254 707.70872 427.981953 666.488833 469.262254 625.189324"></polygon>
                                <polygon id="Fill-129" fill="#FBFBFB" points="471.339602 702.817624 430.056555 744.0732 388.820206 702.817624 430.056555 661.553803"></polygon>
                                <polygon id="Fill-130" fill="#FEFEFE" points="432.177855 741.895629 390.920902 783.234947 349.658458 741.895629 390.920902 700.715551"></polygon>
                                <polygon id="Fill-132" fill="#CFCFCF" points="937.084669 234.313724 978.467119 275.530865 1015.40816 238.731415 1015.40816 229.887796 978.467119 193.011469"></polygon>
                                <polygon id="Fill-133" fill="#D7D7D7" points="980.442317 273.41506 939.182619 314.692613 897.922921 273.41506 939.182619 232.173216"></polygon>
                                <polygon id="Fill-134" fill="#CDCDCD" points="942.679204 312.574079 901.437361 353.85436 860.159808 312.574079 901.437361 271.334964"></polygon>
                                <polygon id="Fill-135" fill="#E0E0E0" points="903.517457 351.735827 862.257758 393.016107 820.99806 351.735827 862.257758 310.496711"></polygon>
                                <polygon id="Fill-136" fill="#E2E2E2" points="864.355709 390.918157 823.096011 432.177855 781.836313 390.918157 823.096011 349.658458"></polygon>
                                <polygon id="Fill-137" fill="#E2E2E2" points="825.193962 430.10188 783.934264 471.339602 742.674566 430.10188 783.934264 388.820206"></polygon>
                                <polygon id="Fill-138" fill="#ECECEC" points="786.032215 469.221069 744.793099 510.501349 703.512818 469.221069 744.793099 427.981953"></polygon>
                                <polygon id="Fill-139" fill="#F2F2F2" points="746.870467 508.404771 705.613515 549.663097 664.351071 508.404771 705.613515 467.1437"></polygon>
                                <polygon id="Fill-140" fill="#EDEDED" points="707.70872 547.563773 666.450395 588.824844 625.189324 547.563773 666.450395 506.305448"></polygon>
                                <polygon id="Fill-141" fill="#EBEBEB" points="667.148339 586.72552 625.869412 627.986591 584.628942 586.72552 625.869412 545.467195"></polygon>
                                <polygon id="Fill-142" fill="#ECECEC" points="627.986591 625.868058 586.706311 667.148339 545.467195 625.868058 586.706311 584.628942"></polygon>
                                <polygon id="Fill-143" fill="#EEEEEE" points="588.824844 666.488833 547.567891 707.70872 506.305448 666.488833 547.567891 625.189324"></polygon>
                                <polygon id="Fill-144" fill="#F2F2F2" points="549.663097 702.817624 508.406147 744.0732 467.1437 702.817624 508.406147 661.553803"></polygon>
                                <polygon id="Fill-145" fill="#F8F8F8" points="510.501349 741.895629 469.262254 783.234947 427.981953 741.895629 469.262254 700.715551"></polygon>
                                <polygon id="Fill-146" fill="#D7D7D7" points="976.246416 273.417934 1015.40816 311.895345 1015.40816 234.970484"></polygon>
                                <polygon id="Fill-147" fill="#F1F1F1" points="937.084669 312.572708 978.467119 353.85436 1015.40816 316.996428 1015.40816 308.154476 978.467119 271.334964"></polygon>
                                <polygon id="Fill-148" fill="#FAFAFA" points="980.442317 351.735827 939.182619 393.016107 897.922921 351.735827 939.182619 310.496711"></polygon>
                                <polygon id="Fill-149" fill="#E2E2E2" points="942.679204 390.918157 901.437361 432.177855 860.159808 390.918157 901.437361 349.658458"></polygon>
                                <polygon id="Fill-150" fill="#DCDCDC" points="903.517457 430.10188 862.257758 471.339602 820.99806 430.10188 862.257758 388.820206"></polygon>
                                <polygon id="Fill-151" fill="#D3D3D3" points="864.355709 469.221069 823.096011 510.501349 781.836313 469.221069 823.096011 427.981953"></polygon>
                                <polygon id="Fill-152" fill="#D2D2D2" points="825.193962 508.404771 783.934264 549.663097 742.674566 508.404771 783.934264 467.1437"></polygon>
                                <polygon id="Fill-153" fill="#D8D8D8" points="786.032215 547.563773 744.793099 588.824844 703.512818 547.563773 744.793099 506.305448"></polygon>
                                <polygon id="Fill-154" fill="#EDEDED" points="746.870467 586.72552 705.613515 627.986591 664.351071 586.72552 705.613515 545.467195"></polygon>
                                <polygon id="Fill-155" fill="#EFEFEF" points="707.70872 625.868058 666.450395 667.148339 625.189324 625.868058 666.450395 584.628942"></polygon>
                                <polygon id="Fill-156" fill="#D0D0D0" points="667.148339 666.488833 625.869412 707.70872 584.628942 666.488833 625.869412 625.189324"></polygon>
                                <polygon id="Fill-157" fill="#EEEEEE" points="627.986591 702.817624 586.706311 744.0732 545.467195 702.817624 586.706311 661.553803"></polygon>
                                <polygon id="Fill-158" fill="#F0F0F0" points="588.824844 741.895629 547.567891 783.234947 506.305448 741.895629 547.567891 700.715551"></polygon>
                                <polygon id="Fill-159" fill="#F8F8F8" points="549.663097 781.135623 508.406147 822.396694 467.1437 781.135623 508.406147 739.877298"></polygon>
                                <polygon id="Fill-162" fill="#F5F5F5" points="980.442317 430.10188 939.182619 471.339602 897.922921 430.10188 939.182619 388.820206"></polygon>
                                <polygon id="Fill-163" fill="#ECECEC" points="942.679204 469.221069 901.437361 510.501349 860.159808 469.221069 901.437361 427.981953"></polygon>
                                <polygon id="Fill-164" fill="#DBDBDB" points="903.517457 508.404771 862.257758 549.663097 820.99806 508.404771 862.257758 467.1437"></polygon>
                                <polygon id="Fill-165" fill="#DCDCDC" points="864.355709 547.563773 823.096011 588.824844 781.836313 547.563773 823.096011 506.305448"></polygon>
                                <polygon id="Fill-166" fill="#DCDCDC" points="825.193962 586.72552 783.934264 627.986591 742.674566 586.72552 783.934264 545.467195"></polygon>
                                <polygon id="Fill-167" fill="#EAEAEA" points="786.032215 625.868058 744.793099 667.148339 703.512818 625.868058 744.793099 584.628942"></polygon>
                                <polygon id="Fill-168" fill="#F1F1F1" points="746.870467 666.488833 705.613515 707.70872 664.351071 666.488833 705.613515 625.189324"></polygon>
                                <polygon id="Fill-169" fill="#F1F1F1" points="707.70872 702.817624 666.450395 744.0732 625.189324 702.817624 666.450395 661.553803"></polygon>
                                <polygon id="Fill-170" fill="#E2E2E2" points="667.148339 741.895629 625.869412 783.234947 584.628942 741.895629 625.869412 700.715551"></polygon>
                                <polygon id="Fill-171" fill="#F6F6F6" points="627.986591 781.135623 586.706311 822.396694 545.467195 781.135623 586.706311 739.877298"></polygon>
                                <polygon id="Fill-172" fill="#FCFCFC" points="588.824844 821.657526 547.567891 862.957075 506.305448 821.657526 547.567891 780.437679"></polygon>
                                <polygon id="Fill-173" fill="#FEFEFE" points="549.663097 860.822061 508.406147 902.118823 467.1437 860.822061 508.406147 819.599427"></polygon>
                                <polygon id="Fill-176" fill="#E2E2E2" points="980.442317 508.404771 939.182619 549.663097 897.922921 508.404771 939.182619 467.1437"></polygon>
                                <polygon id="Fill-177" fill="#E1E1E1" points="942.679204 547.563773 901.437361 588.824844 860.159808 547.563773 901.437361 506.305448"></polygon>
                                <polygon id="Fill-178" fill="#DCDCDC" points="903.517457 586.72552 862.257758 627.986591 820.99806 586.72552 862.257758 545.467195"></polygon>
                                <polygon id="Fill-179" fill="#E2E2E2" points="864.355709 625.868058 823.096011 667.148339 781.836313 625.868058 823.096011 584.628942"></polygon>
                                <polygon id="Fill-180" fill="#E2E2E2" points="825.193962 666.488833 783.934264 707.70872 742.674566 666.488833 783.934264 625.189324"></polygon>
                                <polygon id="Fill-181" fill="#EDEDED" points="786.032215 702.817624 744.793099 744.0732 703.512818 702.817624 744.793099 661.553803"></polygon>
                                <polygon id="Fill-182" fill="#D9D9D9" points="746.870467 741.895629 705.613515 783.234947 664.351071 741.895629 705.613515 700.715551"></polygon>
                                <polygon id="Fill-183" fill="#EDEDED" points="707.70872 781.135623 666.450395 822.396694 625.189324 781.135623 666.450395 739.877298"></polygon>
                                <polygon id="Fill-184" fill="#FAFAFA" points="667.148339 821.657526 625.869412 862.957075 584.628942 821.657526 625.869412 780.437679"></polygon>
                                <polygon id="Fill-185" fill="#FCFCFC" points="627.986591 860.822061 586.706311 902.118823 545.467195 860.822061 586.706311 819.599427"></polygon>
                                <polygon id="Fill-186" fill="#FDFDFD" points="588.824844 900.059309 547.567891 941.28057 506.305448 900.059309 547.567891 858.761174"></polygon>
                                <polygon id="Fill-189" fill="#EDEDED" points="980.442317 586.72552 939.182619 627.986591 897.922921 586.72552 939.182619 545.467195"></polygon>
                                <polygon id="Fill-190" fill="#E5E5E5" points="942.679204 625.868058 901.437361 667.148339 860.159808 625.868058 901.437361 584.628942"></polygon>
                                <polygon id="Fill-191" fill="#E0E0E0" points="903.517457 666.488833 862.257758 707.70872 820.99806 666.488833 862.257758 625.189324"></polygon>
                                <polygon id="Fill-192" fill="#E2E2E2" points="864.355709 702.817624 823.096011 744.0732 781.836313 702.817624 823.096011 661.553803"></polygon>
                                <polygon id="Fill-193" fill="#F1F1F1" points="825.193962 741.895629 783.934264 783.234947 742.674566 741.895629 783.934264 700.715551"></polygon>
                                <polygon id="Fill-194" fill="#F2F2F2" points="786.032215 781.135623 744.793099 822.396694 703.512818 781.135623 744.793099 739.877298"></polygon>
                                <polygon id="Fill-195" fill="#F7F7F7" points="746.870467 821.657526 705.613515 862.957075 664.351071 821.657526 705.613515 780.437679"></polygon>
                                <polygon id="Fill-196" fill="#F7F7F7" points="707.70872 860.822061 666.450395 902.118823 625.189324 860.822061 666.450395 819.599427"></polygon>
                                <polygon id="Fill-197" fill="#FBFBFB" points="667.148339 900.059309 625.869412 941.28057 584.628942 900.059309 625.869412 858.761174"></polygon>
                                <polygon id="Fill-200" fill="#FCFCFC" points="980.442317 666.488833 939.182619 707.70872 897.922921 666.488833 939.182619 625.189324"></polygon>
                                <polygon id="Fill-201" fill="#E9E9E9" points="942.679204 702.817624 901.437361 744.0732 860.159808 702.817624 901.437361 661.553803"></polygon>
                                <polygon id="Fill-202" fill="#F9F9F9" points="903.517457 741.895629 862.257758 783.234947 820.99806 741.895629 862.257758 700.715551"></polygon>
                                <polygon id="Fill-203" fill="#FCFCFC" points="864.355709 781.135623 823.096011 822.396694 781.836313 781.135623 823.096011 739.877298"></polygon>
                                <polygon id="Fill-204" fill="#FDFDFD" points="825.193962 821.657526 783.934264 862.957075 742.674566 821.657526 783.934264 780.437679"></polygon>
                                <polygon id="Fill-205" fill="#FCFCFC" points="786.032215 860.822061 744.793099 902.118823 703.512818 860.822061 744.793099 819.599427"></polygon>
                                <polygon id="Fill-206" fill="#FCFCFC" points="746.870467 900.059309 705.613515 941.28057 664.351071 900.059309 705.613515 858.761174"></polygon>
                                <polygon id="Fill-207" fill="#FCFCFC" points="976.246416 665.087139 1015.40816 703.512818 1015.40816 626.587957"></polygon>
                                <polygon id="Fill-208" fill="#FCFCFC" points="937.084669 702.817624 978.467119 744.0732 1015.40816 707.239434 1015.40816 698.395813 978.467119 661.553803"></polygon>
                                <polygon id="Fill-209" fill="#FDFDFD" points="864.355709 860.822061 823.096011 902.118823 781.836313 860.822061 823.096011 819.599427"></polygon>
                            </g>
                        </g>
                    </g>
                </g>
            </g>
        </g>
    </g>
</svg>