<?xml version="1.0" encoding="UTF-8"?>
<svg width="375px" height="571px" viewBox="0 0 375 571" version="1.1" xmlns="http://www.w3.org/2000/svg" xmlns:xlink="http://www.w3.org/1999/xlink">
    <!-- Generator: Sketch 48.2 (47327) - http://www.bohemiancoding.com/sketch -->
    <title>Group 3 Copy 2</title>
    <desc>Created with Sketch.</desc>
    <defs>
        <rect id="path-1" x="0" y="0" width="375" height="571"></rect>
    </defs>
    <g id="iPhone-8" stroke="none" stroke-width="1" fill="none" fill-rule="evenodd">
        <g id="Group-3-Copy-2">
            <mask id="mask-2" fill="white">
                <use xlink:href="#path-1"></use>
            </mask>
            <g id="Mask"></g>
            <g mask="url(#mask-2)" id="Page-1">
                <g transform="translate(240.201929, 354.201929) rotate(-45.000000) translate(-240.201929, -354.201929) translate(-178.798071, -64.298071)">
                    <g style="mix-blend-mode: multiply;" transform="translate(419.000000, 418.500000) rotate(-360.000000) translate(-419.000000, -418.500000) ">
                        <g style="mix-blend-mode: multiply;" transform="translate(-0.000000, -0.000000)">
                            <polygon id="Fill-1" fill="#FFFFFF" points="0 837 837 837 837 0 0 0"></polygon>
                            <polygon id="Fill-16" fill="#F8F8F8" points="449.628099 0 483.622564 33.4338843 517.64876 0"></polygon>
                            <polygon id="Fill-17" fill="#F8F8F8" points="449.684984 0 417.347107 32.0432913 451.359701 65.714876 485.367769 32.0432913 453.034418 0"></polygon>
                            <polygon id="Fill-18" fill="#FBFBFB" points="453.086777 65.1214636 419.078712 99.1487603 385.066116 65.1214636 419.078712 31.1280992"></polygon>
                            <polygon id="Fill-19" fill="#FCFCFC" points="420.805785 97.4511053 386.812438 131.429752 352.785124 97.4511053 386.812438 63.4090909"></polygon>
                            <polygon id="Fill-20" fill="#FCFCFC" points="388.524793 129.69815 354.495217 163.710744 320.504132 129.69815 354.495217 95.6900826"></polygon>
                            <polygon id="Fill-21" fill="#FCFCFC" points="356.243802 161.981405 322.235734 195.991736 288.22314 161.981405 322.235734 127.971074"></polygon>
                            <polygon id="Fill-22" fill="#FDFDFD" points="323.96281 193.143453 289.96153 227.119835 255.942149 193.143453 289.96153 159.099174"></polygon>
                            <polygon id="Fill-24" fill="#F3F3F3" points="515.342975 0 549.35444 33.4338843 583.363636 0"></polygon>
                            <polygon id="Fill-25" fill="#F3F3F3" points="514.230227 0 481.909091 32.0432913 515.903571 65.714876 549.929752 32.0432913 517.57918 0"></polygon>
                            <polygon id="Fill-26" fill="#F9F9F9" points="517.64876 65.1214636 483.621464 99.1487603 449.628099 65.1214636 483.621464 31.1280992"></polygon>
                            <polygon id="Fill-27" fill="#F6F6F6" points="485.367769 97.4511053 451.359701 131.429752 417.347107 97.4511053 451.359701 63.4090909"></polygon>
                            <polygon id="Fill-28" fill="#F6F6F6" points="453.086777 129.69815 419.078712 163.710744 385.066116 129.69815 419.078712 95.6900826"></polygon>
                            <polygon id="Fill-29" fill="#FCFCFC" points="420.805785 161.981405 386.812438 195.991736 352.785124 161.981405 386.812438 127.971074"></polygon>
                            <polygon id="Fill-30" fill="#FCFCFC" points="388.524793 193.143453 354.495217 227.119835 320.504132 193.143453 354.495217 159.099174"></polygon>
                            <polygon id="Fill-31" fill="#FCFCFC" points="356.243802 225.375778 322.235734 259.400826 288.22314 225.375778 322.235734 191.380165"></polygon>
                            <polygon id="Fill-32" fill="#FCFCFC" points="323.96281 257.654521 289.96153 291.681818 255.942149 257.654521 289.96153 223.661157"></polygon>
                            <polygon id="Fill-33" fill="#FEFEFE" points="292.834711 289.935513 258.832303 323.96281 224.81405 289.935513 258.832303 255.942149"></polygon>
                            <polygon id="Fill-36" fill="#F3F3F3" points="579.96292 0 547.623967 32.0432913 581.637692 65.714876 615.644628 32.0432913 583.312465 0"></polygon>
                            <polygon id="Fill-37" fill="#F3F3F3" points="583.363636 65.1214636 549.354437 99.1487603 515.342975 65.1214636 549.354437 31.1280992"></polygon>
                            <polygon id="Fill-38" fill="#F3F3F3" points="549.929752 97.4511053 515.903571 131.429752 481.909091 97.4511053 515.903571 63.4090909"></polygon>
                            <polygon id="Fill-39" fill="#F2F2F2" points="517.64876 129.69815 483.621464 163.710744 449.628099 129.69815 483.621464 95.6900826"></polygon>
                            <polygon id="Fill-40" fill="#F2F2F2" points="485.367769 161.981405 451.359701 195.991736 417.347107 161.981405 451.359701 127.971074"></polygon>
                            <polygon id="Fill-41" fill="#F9F9F9" points="453.086777 193.143453 419.078712 227.119835 385.066116 193.143453 419.078712 159.099174"></polygon>
                            <polygon id="Fill-42" fill="#FCFCFC" points="420.805785 225.375778 386.812438 259.400826 352.785124 225.375778 386.812438 191.380165"></polygon>
                            <polygon id="Fill-43" fill="#FCFCFC" points="388.524793 257.654521 354.495217 291.681818 320.504132 257.654521 354.495217 223.661157"></polygon>
                            <polygon id="Fill-44" fill="#F9F9F9" points="356.243802 289.935513 322.235734 323.96281 288.22314 289.935513 322.235734 255.942149"></polygon>
                            <polygon id="Fill-45" fill="#FCFCFC" points="323.96281 322.233471 289.96153 356.243802 255.942149 322.233471 289.96153 288.22314"></polygon>
                            <polygon id="Fill-49" fill="#E7E7E7" points="647.92562 65.1214636 613.932255 99.1487603 579.904959 65.1214636 613.932255 31.1280992"></polygon>
                            <polygon id="Fill-50" fill="#F1F1F1" points="615.644628 97.4511053 581.636561 131.429752 547.623967 97.4511053 581.636561 63.4090909"></polygon>
                            <polygon id="Fill-51" fill="#E4E4E4" points="583.363636 129.69815 549.354437 163.710744 515.342975 129.69815 549.354437 95.6900826"></polygon>
                            <polygon id="Fill-52" fill="#F0F0F0" points="549.929752 161.981405 515.903571 195.991736 481.909091 161.981405 515.903571 127.971074"></polygon>
                            <polygon id="Fill-53" fill="#F5F5F5" points="517.64876 193.143453 483.621464 227.119835 449.628099 193.143453 483.621464 159.099174"></polygon>
                            <polygon id="Fill-54" fill="#F2F2F2" points="485.367769 225.375778 451.359701 259.400826 417.347107 225.375778 451.359701 191.380165"></polygon>
                            <polygon id="Fill-55" fill="#F7F7F7" points="453.086777 257.654521 419.078712 291.681818 385.066116 257.654521 419.078712 223.661157"></polygon>
                            <polygon id="Fill-56" fill="#FAFAFA" points="420.805785 289.935513 386.812438 323.96281 352.785124 289.935513 386.812438 255.942149"></polygon>
                            <polygon id="Fill-57" fill="#F8F8F8" points="388.524793 322.233471 354.495217 356.243802 320.504132 322.233471 354.495217 288.22314"></polygon>
                            <polygon id="Fill-58" fill="#F8F8F8" points="356.243802 354.532577 322.235734 388.524793 288.22314 354.532577 322.235734 320.504132"></polygon>
                            <polygon id="Fill-59" fill="#FDFDFD" points="323.96281 386.778488 289.96153 420.805785 255.942149 386.778488 289.96153 352.785124"></polygon>
                            <polygon id="Fill-60" fill="#FEFEFE" points="292.834711 419.077578 258.832303 453.086777 224.81405 419.077578 258.832303 385.066116"></polygon>
                            <polygon id="Fill-65" fill="#DCDCDC" points="680.206612 97.4511053 646.196281 131.429752 612.18595 97.4511053 646.196281 63.4090909"></polygon>
                            <polygon id="Fill-66" fill="#EAEAEA" points="647.92562 129.69815 613.932255 163.710744 579.904959 129.69815 613.932255 95.6900826"></polygon>
                            <polygon id="Fill-67" fill="#E4E4E4" points="615.644628 161.981405 581.636561 195.991736 547.623967 161.981405 581.636561 127.971074"></polygon>
                            <polygon id="Fill-68" fill="#DFDFDF" points="583.363636 193.143453 549.354437 227.119835 515.342975 193.143453 549.354437 159.099174"></polygon>
                            <polygon id="Fill-69" fill="#E7E7E7" points="549.929752 225.375778 515.903571 259.400826 481.909091 225.375778 515.903571 191.380165"></polygon>
                            <polygon id="Fill-70" fill="#F2F2F2" points="517.64876 257.654521 483.621464 291.681818 449.628099 257.654521 483.621464 223.661157"></polygon>
                            <polygon id="Fill-71" fill="#EEEEEE" points="485.367769 289.935513 451.359701 323.96281 417.347107 289.935513 451.359701 255.942149"></polygon>
                            <polygon id="Fill-72" fill="#F7F7F7" points="453.086777 322.233471 419.078712 356.243802 385.066116 322.233471 419.078712 288.22314"></polygon>
                            <polygon id="Fill-73" fill="#F7F7F7" points="420.805785 354.532577 386.812438 388.524793 352.785124 354.532577 386.812438 320.504132"></polygon>
                            <polygon id="Fill-74" fill="#FCFCFC" points="388.524793 386.778488 354.495217 420.805785 320.504132 386.778488 354.495217 352.785124"></polygon>
                            <polygon id="Fill-75" fill="#FCFCFC" points="356.243802 419.077578 322.235734 453.086777 288.22314 419.077578 322.235734 385.066116"></polygon>
                            <polygon id="Fill-76" fill="#FEFEFE" points="323.96281 451.356306 289.96153 485.367769 255.942149 451.356306 289.96153 417.347107"></polygon>
                            <polygon id="Fill-84" fill="#DEDEDE" points="712.487603 129.69815 678.477273 163.710744 644.466942 129.69815 678.477273 95.6900826"></polygon>
                            <polygon id="Fill-85" fill="#DEDEDE" points="680.206612 161.981405 646.196281 195.991736 612.18595 161.981405 646.196281 127.971074"></polygon>
                            <polygon id="Fill-86" fill="#E7E7E7" points="647.92562 193.143453 613.932255 227.119835 579.904959 193.143453 613.932255 159.099174"></polygon>
                            <polygon id="Fill-87" fill="#EDEDED" points="615.644628 225.375778 581.636561 259.400826 547.623967 225.375778 581.636561 191.380165"></polygon>
                            <polygon id="Fill-88" fill="#EDEDED" points="583.363636 257.654521 549.354437 291.681818 515.342975 257.654521 549.354437 223.661157"></polygon>
                            <polygon id="Fill-89" fill="#ECECEC" points="549.929752 289.935513 515.903571 323.96281 481.909091 289.935513 515.903571 255.942149"></polygon>
                            <polygon id="Fill-90" fill="#F6F6F6" points="517.64876 322.233471 483.621464 356.243802 449.628099 322.233471 483.621464 288.22314"></polygon>
                            <polygon id="Fill-91" fill="#F6F6F6" points="485.367769 354.532577 451.359701 388.524793 417.347107 354.532577 451.359701 320.504132"></polygon>
                            <polygon id="Fill-92" fill="#F3F3F3" points="453.086777 386.778488 419.078712 420.805785 385.066116 386.778488 419.078712 352.785124"></polygon>
                            <polygon id="Fill-93" fill="#EDEDED" points="420.805785 419.077578 386.812438 453.086777 352.785124 419.077578 386.812438 385.066116"></polygon>
                            <polygon id="Fill-94" fill="#F6F6F6" points="388.524793 451.356306 354.495217 485.367769 320.504132 451.356306 354.495217 417.347107"></polygon>
                            <polygon id="Fill-95" fill="#F6F6F6" points="356.243802 483.637298 322.235734 517.64876 288.22314 483.637298 322.235734 449.628099"></polygon>
                            <polygon id="Fill-96" fill="#FEFEFE" points="323.96281 515.902455 289.96153 549.929752 255.942149 515.902455 289.96153 481.909091"></polygon>
                            <polygon id="Fill-101" fill="#BABABA" points="744.768595 161.981405 710.758264 195.991736 676.747934 161.981405 710.758264 127.971074"></polygon>
                            <polygon id="Fill-102" fill="#E0E0E0" points="712.487603 193.143453 678.477273 227.119835 644.466942 193.143453 678.477273 159.099174"></polygon>
                            <polygon id="Fill-103" fill="#DEDEDE" points="680.206612 225.375778 646.196281 259.400826 612.18595 225.375778 646.196281 191.380165"></polygon>
                            <polygon id="Fill-104" fill="#DEDEDE" points="647.92562 257.654521 613.932255 291.681818 579.904959 257.654521 613.932255 223.661157"></polygon>
                            <polygon id="Fill-105" fill="#EDEDED" points="615.644628 289.935513 581.636561 323.96281 547.623967 289.935513 581.636561 255.942149"></polygon>
                            <polygon id="Fill-106" fill="#ECECEC" points="583.363636 322.233471 549.354437 356.243802 515.342975 322.233471 549.354437 288.22314"></polygon>
                            <polygon id="Fill-107" fill="#F0F0F0" points="549.929752 354.532577 515.903571 388.524793 481.909091 354.532577 515.903571 320.504132"></polygon>
                            <polygon id="Fill-108" fill="#F5F5F5" points="517.64876 386.778488 483.621464 420.805785 449.628099 386.778488 483.621464 352.785124"></polygon>
                            <polygon id="Fill-109" fill="#ECECEC" points="485.367769 419.077578 451.359701 453.086777 417.347107 419.077578 451.359701 385.066116"></polygon>
                            <polygon id="Fill-110" fill="#EDEDED" points="453.086777 451.356306 419.078712 485.367769 385.066116 451.356306 419.078712 417.347107"></polygon>
                            <polygon id="Fill-111" fill="#ECECEC" points="420.805785 483.637298 386.812438 517.64876 352.785124 483.637298 386.812438 449.628099"></polygon>
                            <polygon id="Fill-112" fill="#F9F9F9" points="388.524793 515.902455 354.495217 549.929752 320.504132 515.902455 354.495217 481.909091"></polygon>
                            <polygon id="Fill-113" fill="#FBFBFB" points="356.243802 549.386122 322.235734 583.363636 288.22314 549.386122 322.235734 515.342975"></polygon>
                            <polygon id="Fill-117" fill="#C1C1C1" points="777.049587 193.143453 743.053974 227.119835 709.028926 193.143453 743.053974 159.099174"></polygon>
                            <polygon id="Fill-118" fill="#D6D6D6" points="744.768595 225.375778 710.758264 259.400826 676.747934 225.375778 710.758264 191.380165"></polygon>
                            <polygon id="Fill-119" fill="#DEDEDE" points="712.487603 257.654521 678.477273 291.681818 644.466942 257.654521 678.477273 223.661157"></polygon>
                            <polygon id="Fill-120" fill="#E3E3E3" points="680.206612 289.935513 646.196281 323.96281 612.18595 289.935513 646.196281 255.942149"></polygon>
                            <polygon id="Fill-121" fill="#E3E3E3" points="647.92562 322.233471 613.932255 356.243802 579.904959 322.233471 613.932255 288.22314"></polygon>
                            <polygon id="Fill-122" fill="#ECECEC" points="615.644628 354.532577 581.636561 388.524793 547.623967 354.532577 581.636561 320.504132"></polygon>
                            <polygon id="Fill-123" fill="#EFEFEF" points="583.363636 386.778488 549.354437 420.805785 515.342975 386.778488 549.354437 352.785124"></polygon>
                            <polygon id="Fill-124" fill="#EEEEEE" points="549.929752 419.077578 515.903571 453.086777 481.909091 419.077578 515.903571 385.066116"></polygon>
                            <polygon id="Fill-125" fill="#F2F2F2" points="517.64876 451.356306 483.621464 485.367769 449.628099 451.356306 483.621464 417.347107"></polygon>
                            <polygon id="Fill-126" fill="#F2F2F2" points="485.367769 483.637298 451.359701 517.64876 417.347107 483.637298 451.359701 449.628099"></polygon>
                            <polygon id="Fill-127" fill="#EDEDED" points="453.086777 515.902455 419.078712 549.929752 385.066116 515.902455 419.078712 481.909091"></polygon>
                            <polygon id="Fill-128" fill="#EFEFEF" points="420.805785 549.386122 386.812438 583.363636 352.785124 549.386122 386.812438 515.342975"></polygon>
                            <polygon id="Fill-129" fill="#FBFBFB" points="388.524793 579.33191 354.495217 613.338843 320.504132 579.33191 354.495217 545.318182"></polygon>
                            <polygon id="Fill-130" fill="#FEFEFE" points="356.243802 611.543873 322.235734 645.619835 288.22314 611.543873 322.235734 577.599174"></polygon>
                            <polygon id="Fill-133" fill="#D7D7D7" points="808.177686 225.375778 774.167355 259.400826 740.157025 225.375778 774.167355 191.380165"></polygon>
                            <polygon id="Fill-134" fill="#CDCDCD" points="777.049587 257.654521 743.053974 291.681818 709.028926 257.654521 743.053974 223.661157"></polygon>
                            <polygon id="Fill-135" fill="#E0E0E0" points="744.768595 289.935513 710.758264 323.96281 676.747934 289.935513 710.758264 255.942149"></polygon>
                            <polygon id="Fill-136" fill="#E2E2E2" points="712.487603 322.233471 678.477273 356.243802 644.466942 322.233471 678.477273 288.22314"></polygon>
                            <polygon id="Fill-137" fill="#E2E2E2" points="680.206612 354.532577 646.196281 388.524793 612.18595 354.532577 646.196281 320.504132"></polygon>
                            <polygon id="Fill-138" fill="#ECECEC" points="647.92562 386.778488 613.932255 420.805785 579.904959 386.778488 613.932255 352.785124"></polygon>
                            <polygon id="Fill-139" fill="#F2F2F2" points="615.644628 419.077578 581.636561 453.086777 547.623967 419.077578 581.636561 385.066116"></polygon>
                            <polygon id="Fill-140" fill="#EDEDED" points="583.363636 451.356306 549.354437 485.367769 515.342975 451.356306 549.354437 417.347107"></polygon>
                            <polygon id="Fill-141" fill="#EBEBEB" points="549.929752 483.637298 515.903571 517.64876 481.909091 483.637298 515.903571 449.628099"></polygon>
                            <polygon id="Fill-142" fill="#ECECEC" points="517.64876 515.902455 483.621464 549.929752 449.628099 515.902455 483.621464 481.909091"></polygon>
                            <polygon id="Fill-143" fill="#EEEEEE" points="485.367769 549.386122 451.359701 583.363636 417.347107 549.386122 451.359701 515.342975"></polygon>
                            <polygon id="Fill-144" fill="#F2F2F2" points="453.086777 579.33191 419.078712 613.338843 385.066116 579.33191 419.078712 545.318182"></polygon>
                            <polygon id="Fill-145" fill="#F8F8F8" points="420.805785 611.543873 386.812438 645.619835 352.785124 611.543873 386.812438 577.599174"></polygon>
                            <polygon id="Fill-147" fill="#D7D7D7" points="772.438017 257.653391 806.549532 291.681818 837 261.299859 837 254.011447 806.549532 223.661157"></polygon>
                            <polygon id="Fill-148" fill="#DADADA" points="808.177686 289.935513 774.167355 323.96281 740.157025 289.935513 774.167355 255.942149"></polygon>
                            <polygon id="Fill-149" fill="#E2E2E2" points="777.049587 322.233471 743.053974 356.243802 709.028926 322.233471 743.053974 288.22314"></polygon>
                            <polygon id="Fill-150" fill="#DCDCDC" points="744.768595 354.532577 710.758264 388.524793 676.747934 354.532577 710.758264 320.504132"></polygon>
                            <polygon id="Fill-151" fill="#D3D3D3" points="712.487603 386.778488 678.477273 420.805785 644.466942 386.778488 678.477273 352.785124"></polygon>
                            <polygon id="Fill-152" fill="#D2D2D2" points="680.206612 419.077578 646.196281 453.086777 612.18595 419.077578 646.196281 385.066116"></polygon>
                            <polygon id="Fill-153" fill="#D8D8D8" points="647.92562 451.356306 613.932255 485.367769 579.904959 451.356306 613.932255 417.347107"></polygon>
                            <polygon id="Fill-154" fill="#EDEDED" points="615.644628 483.637298 581.636561 517.64876 547.623967 483.637298 581.636561 449.628099"></polygon>
                            <polygon id="Fill-155" fill="#EFEFEF" points="583.363636 515.902455 549.354437 549.929752 515.342975 515.902455 549.354437 481.909091"></polygon>
                            <polygon id="Fill-156" fill="#D0D0D0" points="549.929752 549.386122 515.903571 583.363636 481.909091 549.386122 515.903571 515.342975"></polygon>
                            <polygon id="Fill-157" fill="#EEEEEE" points="517.64876 579.33191 483.621464 613.338843 449.628099 579.33191 483.621464 545.318182"></polygon>
                            <polygon id="Fill-158" fill="#F0F0F0" points="485.367769 611.543873 451.359701 645.619835 417.347107 611.543873 451.359701 577.599174"></polygon>
                            <polygon id="Fill-159" fill="#F8F8F8" points="453.086777 643.889364 419.078712 677.900826 385.066116 643.889364 419.078712 609.880165"></polygon>
                        </g>
                    </g>
                </g>
            </g>
        </g>
    </g>
</svg>