<?xml version="1.0" encoding="UTF-8"?>
<svg width="70px" height="69px" viewBox="0 0 70 69" version="1.1" xmlns="http://www.w3.org/2000/svg" xmlns:xlink="http://www.w3.org/1999/xlink">
    <!-- Generator: Sketch 48.2 (47327) - http://www.bohemiancoding.com/sketch -->
    <title>Page 1</title>
    <desc>Created with Sketch.</desc>
    <defs></defs>
    <g id="iPhone-8" stroke="none" stroke-width="1" fill="none" fill-rule="evenodd" transform="translate(-261.000000, -1325.000000)">
        <g id="Page-1" transform="translate(262.000000, 1326.000000)">
            <path d="M60.3657254,0 L25,0 L25,67 L60.3657254,67 C64.5821894,67 68,63.5980545 68,59.4011627 L68,7.59883726 C68,3.40194552 64.5821894,0 60.3657254,0" id="Fill-1" fill="#000000"></path>
            <path d="M7.63958007,0 C3.42018579,0 0,3.40194552 0,7.59883726 L0,59.4011627 C0,63.5980545 3.42018579,67 7.63958007,67 L25,67 L25,0 L7.63958007,0 Z" id="Fill-3" fill="#EF0F0F"></path>
            <path d="M8.35032049,18.5325694 L14.4884862,18.5325694 L14.4884862,13.3474065 C13.7522355,12.9963812 10.2944528,11.3003619 9.3733481,10.7937274 L9.25053415,10.7159228 L9.23027617,12.3727382 L7.51151381,10.3063932 L7.51151381,16.5832328 L8.37121152,16.5832328 L8.37121152,18.5325694 L8.35032049,18.5325694 Z M14.979742,19 L7.85969771,19 L7.85969771,17.0898673 L7,17.0898673 L7,9 L8.73902034,11.0862485 L8.75927831,9.93606755 L9.61897602,10.4034982 C10.6420036,10.9493366 14.8157791,12.9963812 14.8569281,13.0162847 L15,13.0741858 L15,19 L14.979742,19 Z" id="Fill-5" fill="#FFFFFF"></path>
            <polygon id="Fill-7" fill="#FFFFFF" points="8.75793119 17.0176796 10.7077748 17.0176796 10.7077748 15.8392265 9.94928508 15.8392265 9.94928508 16.2856354 8 16.2856354 8 14 11.3573503 14 11.3573503 15.9104972 13 15.9104972 13 18 8.75793119 18"></polygon>
            <path d="M8.85651931,36.3449629 L17.2964186,36.3449629 L17.2964186,29.0858142 C16.2838276,28.5943871 11.5292669,26.2202508 10.2636821,25.5102789 L10.094404,25.4016037 L10.0660884,27.7214024 L7.70296586,24.8283716 L7.70296586,33.6161392 L8.88483492,33.6161392 L8.88483492,36.3449629 L8.85651931,36.3449629 Z M17.9716844,37 L8.1812535,37 L8.1812535,34.3255139 L7,34.3255139 L7,23 L9.39143816,25.919901 L9.41913822,24.3100742 L10.6010073,24.9645142 C12.0075546,25.7288237 17.7470062,28.5943871 17.8030218,28.6218545 L18,28.7036595 L18,37 L17.9716844,37 Z" id="Fill-9" fill="#FFFFFF"></path>
            <polygon id="Fill-11" fill="#FFFFFF" points="9.21273402 33.5266654 12.3320957 33.5266654 12.3320957 31.7585466 11.1193617 31.7585466 11.1193617 32.428404 8 32.428404 8 29 13.3723043 29 13.3723043 31.8657941 16 31.8657941 16 35 9.21273402 35"></polygon>
            <path d="M9.1943336,56.2043727 L19.1688392,56.2043727 L19.1688392,47.3898557 C17.9722444,46.793566 12.3529751,43.9103504 10.8566551,43.0492346 L10.6572227,42.9165343 L10.6237918,45.7331126 L7.83116077,42.2202886 L7.83116077,52.8908864 L9.22776448,52.8908864 L9.22776448,56.2043727 L9.1943336,56.2043727 Z M19.9665691,57 L8.39660371,57 L8.39660371,53.7520022 L7,53.7520022 L7,40 L9.8260619,43.5461427 L9.85949277,41.5912547 L11.2555201,42.3863076 C12.9178416,43.3140608 19.7008513,46.793566 19.7671366,46.8268847 L20,46.9262663 L20,57 L19.9665691,57 Z" id="Fill-13" fill="#FFFFFF"></path>
            <polygon id="Fill-15" fill="#FFFFFF" points="10.5163652 54.0355982 14.4152325 54.0355982 14.4152325 51.6786875 12.8988673 51.6786875 12.8988673 52.5714286 9 52.5714286 9 48 15.7150635 48 15.7150635 51.8216994 19 51.8216994 19 56 10.5163652 56"></polygon>
            <path d="M37.3884823,47.4093326 L57.3378483,47.4093326 L57.3378483,29.7794849 C54.9435935,28.586926 43.7056043,22.8208304 40.7133767,21.0976565 L40.3145312,20.8326434 L40.2477615,26.4656436 L34.6621517,19.4404413 L34.6621517,40.78165 L37.455252,40.78165 L37.455252,47.4093326 L37.3884823,47.4093326 Z M58.9338212,49 L35.7925094,49 L35.7925094,42.5048239 L33,42.5048239 L33,15 L38.6517886,22.09175 L38.7185582,18.1813348 L41.5116586,19.7720021 C44.835962,21.6276826 58.4020272,28.586926 58.5349757,28.6528848 L59,28.8519391 L59,49 L58.9338212,49 Z" id="Fill-17" fill="#FFFFFF"></path>
            <polygon id="Fill-19" fill="#FFFFFF" points="39.8810226 42.3172406 47.28867 42.3172406 47.28867 37.8972152 44.4082569 37.8972152 44.4082569 39.5716836 37 39.5716836 37 31 49.7582922 31 49.7582922 38.1649873 56 38.1649873 56 46 39.8810226 46"></polygon>
            <path d="M60.3637757,67 L7.6362243,67 C3.41868343,67 0,63.5980545 0,59.4011627 L0,7.59883726 C0,3.40194552 3.41868343,0 7.6362243,0 L60.3637757,0 C64.5813166,0 68,3.40194552 68,7.59883726 L68,59.4011627 C68,63.5980545 64.5813166,67 60.3637757,67 Z" id="Stroke-21" stroke="#000000" stroke-width="2" stroke-linecap="round"></path>
        </g>
    </g>
</svg>