<?xml version="1.0" encoding="UTF-8"?>
<svg width="375px" height="238px" viewBox="0 0 375 238" version="1.1" xmlns="http://www.w3.org/2000/svg" xmlns:xlink="http://www.w3.org/1999/xlink">
    <!-- Generator: Sketch 48.2 (47327) - http://www.bohemiancoding.com/sketch -->
    <title>Group 6</title>
    <desc>Created with Sketch.</desc>
    <defs>
        <rect id="path-1" x="0" y="0" width="375" height="238"></rect>
        <polygon id="path-3" points="0 114.5 375 0.5 375 375 0 375"></polygon>
        <polygon id="path-5" points="0 114.5 375 0.5 375 375 0 375"></polygon>
        <polygon id="path-7" points="0 114.5 375 0.5 375 375 0 375"></polygon>
    </defs>
    <g id="iPhone-8" stroke="none" stroke-width="1" fill="none" fill-rule="evenodd" transform="translate(0.000000, -1408.000000)">
        <g id="Group-6" transform="translate(0.000000, 1408.000000)">
            <mask id="mask-2" fill="white">
                <use xlink:href="#path-1"></use>
            </mask>
            <g id="Mask"></g>
            <g mask="url(#mask-2)">
                <g transform="translate(-1.000000, -117.000000)">
                    <polygon id="Rectangle-2-Copy-8" fill="#262626" transform="translate(188.000000, 336.500000) rotate(-180.000000) translate(-188.000000, -336.500000) " points="1.89326617e-29 119.959021 376 1 376 557.825771 1.89326617e-29 672"></polygon>
                    <g id="Page-1" style="mix-blend-mode: multiply;" stroke-width="1" fill="none" transform="translate(1.000000, 0.000000)">
                        <mask id="mask-4" fill="white">
                            <use xlink:href="#path-3"></use>
                        </mask>
                        <g id="Mask"></g>
                        <g style="mix-blend-mode: multiply;" mask="url(#mask-4)">
                            <g transform="translate(-294.000000, -156.000000)">
                                <polygon id="Fill-1" fill="#FFFFFF" points="0 726 726 726 726 0 0 0"></polygon>
                                <polygon id="Fill-44" fill="#F9F9F9" points="309 251.485284 279.501963 281 250 251.485284 279.501963 222"></polygon>
                                <polygon id="Fill-56" fill="#FAFAFA" points="365 251.485284 335.514731 281 306 251.485284 335.514731 222"></polygon>
                                <polygon id="Fill-57" fill="#F8F8F8" points="337 279.5 307.483306 309 278 279.5 307.483306 250"></polygon>
                                <polygon id="Fill-58" fill="#F8F8F8" points="309 307.515712 279.501963 337 250 307.515712 279.501963 278"></polygon>
                                <polygon id="Fill-71" fill="#EEEEEE" points="421 251.485284 391.501963 281 362 251.485284 391.501963 222"></polygon>
                                <polygon id="Fill-72" fill="#F7F7F7" points="393 279.5 363.501965 309 334 279.5 363.501965 250"></polygon>
                                <polygon id="Fill-73" fill="#F7F7F7" points="365 307.515712 335.514731 337 306 307.515712 335.514731 278"></polygon>
                                <polygon id="Fill-74" fill="#FCFCFC" points="337 335.485284 307.483306 365 278 335.485284 307.483306 306"></polygon>
                                <polygon id="Fill-75" fill="#FCFCFC" points="309 363.500982 279.501963 393 250 363.500982 279.501963 334"></polygon>
                                <polygon id="Fill-89" fill="#ECECEC" points="477 251.485284 447.486252 281 418 251.485284 447.486252 222"></polygon>
                                <polygon id="Fill-90" fill="#F6F6F6" points="449 279.5 419.485284 309 390 279.5 419.485284 250"></polygon>
                                <polygon id="Fill-91" fill="#F6F6F6" points="421 307.515712 391.501963 337 362 307.515712 391.501963 278"></polygon>
                                <polygon id="Fill-92" fill="#F3F3F3" points="393 335.485284 363.501965 365 334 335.485284 363.501965 306"></polygon>
                                <polygon id="Fill-93" fill="#EDEDED" points="365 363.500982 335.514731 393 306 363.500982 335.514731 334"></polygon>
                                <polygon id="Fill-94" fill="#F6F6F6" points="337 391.499018 307.483306 421 278 391.499018 307.483306 362"></polygon>
                                <polygon id="Fill-95" fill="#F6F6F6" points="309 419.499018 279.501963 449 250 419.499018 279.501963 390"></polygon>
                                <polygon id="Fill-105" fill="#EDEDED" points="534 251.485284 504.501963 281 475 251.485284 504.501963 222"></polygon>
                                <polygon id="Fill-106" fill="#ECECEC" points="506 279.5 476.500982 309 447 279.5 476.500982 250"></polygon>
                                <polygon id="Fill-107" fill="#F0F0F0" points="477 307.515712 447.486252 337 418 307.515712 447.486252 278"></polygon>
                                <polygon id="Fill-108" fill="#F5F5F5" points="449 335.485284 419.485284 365 390 335.485284 419.485284 306"></polygon>
                                <polygon id="Fill-109" fill="#ECECEC" points="421 363.500982 391.501963 393 362 363.500982 391.501963 334"></polygon>
                                <polygon id="Fill-110" fill="#EDEDED" points="393 391.499018 363.501965 421 334 391.499018 363.501965 362"></polygon>
                                <polygon id="Fill-111" fill="#ECECEC" points="365 419.499018 335.514731 449 306 419.499018 335.514731 390"></polygon>
                                <polygon id="Fill-112" fill="#F9F9F9" points="337 447.485284 307.483306 477 278 447.485284 307.483306 418"></polygon>
                                <polygon id="Fill-113" fill="#FBFBFB" points="309 476.528464 279.501963 506 250 476.528464 279.501963 447"></polygon>
                                <polygon id="Fill-120" fill="#E3E3E3" points="590 251.485284 560.5 281 531 251.485284 560.5 222"></polygon>
                                <polygon id="Fill-121" fill="#E3E3E3" points="562 279.5 532.514716 309 503 279.5 532.514716 250"></polygon>
                                <polygon id="Fill-122" fill="#ECECEC" points="534 307.515712 504.501963 337 475 307.515712 504.501963 278"></polygon>
                                <polygon id="Fill-123" fill="#EFEFEF" points="506 335.485284 476.500982 365 447 335.485284 476.500982 306"></polygon>
                                <polygon id="Fill-124" fill="#EEEEEE" points="477 363.500982 447.486252 393 418 363.500982 447.486252 334"></polygon>
                                <polygon id="Fill-125" fill="#F2F2F2" points="449 391.499018 419.485284 421 390 391.499018 419.485284 362"></polygon>
                                <polygon id="Fill-126" fill="#F2F2F2" points="421 419.499018 391.501963 449 362 419.499018 391.501963 390"></polygon>
                                <polygon id="Fill-127" fill="#EDEDED" points="393 447.485284 363.501965 477 334 447.485284 363.501965 418"></polygon>
                                <polygon id="Fill-128" fill="#EFEFEF" points="365 476.528464 335.514731 506 306 476.528464 335.514731 447"></polygon>
                                <polygon id="Fill-129" fill="#FBFBFB" points="337 502.502947 307.483306 532 278 502.502947 307.483306 473"></polygon>
                                <polygon id="Fill-130" fill="#FEFEFE" points="309 530.443073 279.501963 560 250 530.443073 279.501963 501"></polygon>
                                <polygon id="Fill-135" fill="#E0E0E0" points="646 251.485284 616.5 281 587 251.485284 616.5 222"></polygon>
                                <polygon id="Fill-136" fill="#E2E2E2" points="618 279.5 588.5 309 559 279.5 588.5 250"></polygon>
                                <polygon id="Fill-137" fill="#E2E2E2" points="590 307.515712 560.5 337 531 307.515712 560.5 278"></polygon>
                                <polygon id="Fill-138" fill="#ECECEC" points="562 335.485284 532.514716 365 503 335.485284 532.514716 306"></polygon>
                                <polygon id="Fill-139" fill="#F2F2F2" points="534 363.500982 504.501963 393 475 363.500982 504.501963 334"></polygon>
                                <polygon id="Fill-140" fill="#EDEDED" points="506 391.499018 476.500982 421 447 391.499018 476.500982 362"></polygon>
                                <polygon id="Fill-141" fill="#EBEBEB" points="477 419.499018 447.486252 449 418 419.499018 447.486252 390"></polygon>
                                <polygon id="Fill-142" fill="#ECECEC" points="449 447.485284 419.485284 477 390 447.485284 419.485284 418"></polygon>
                                <polygon id="Fill-143" fill="#EEEEEE" points="421 476.528464 391.501963 506 362 476.528464 391.501963 447"></polygon>
                                <polygon id="Fill-144" fill="#F2F2F2" points="393 502.502947 363.501965 532 334 502.502947 363.501965 473"></polygon>
                                <polygon id="Fill-145" fill="#F8F8F8" points="365 530.443073 335.514731 560 306 530.443073 335.514731 501"></polygon>
                                <polygon id="Fill-148" fill="#DADADA" points="701 251.485284 671.5 281 642 251.485284 671.5 222"></polygon>
                                <polygon id="Fill-149" fill="#E2E2E2" points="674 279.5 644.512766 309 615 279.5 644.512766 250"></polygon>
                                <polygon id="Fill-150" fill="#DCDCDC" points="646 307.515712 616.5 337 587 307.515712 616.5 278"></polygon>
                                <polygon id="Fill-151" fill="#D3D3D3" points="618 335.485284 588.5 365 559 335.485284 588.5 306"></polygon>
                                <polygon id="Fill-152" fill="#D2D2D2" points="590 363.500982 560.5 393 531 363.500982 560.5 334"></polygon>
                                <polygon id="Fill-153" fill="#D8D8D8" points="562 391.499018 532.514716 421 503 391.499018 532.514716 362"></polygon>
                                <polygon id="Fill-154" fill="#EDEDED" points="534 419.499018 504.501963 449 475 419.499018 504.501963 390"></polygon>
                                <polygon id="Fill-155" fill="#EFEFEF" points="506 447.485284 476.500982 477 447 447.485284 476.500982 418"></polygon>
                                <polygon id="Fill-156" fill="#D0D0D0" points="477 476.528464 447.486252 506 418 476.528464 447.486252 447"></polygon>
                                <polygon id="Fill-157" fill="#EEEEEE" points="449 502.502947 419.485284 532 390 502.502947 419.485284 473"></polygon>
                                <polygon id="Fill-158" fill="#F0F0F0" points="421 530.443073 391.501963 560 362 530.443073 391.501963 501"></polygon>
                                <polygon id="Fill-162" fill="#DFDFDF" points="701 307.515712 671.5 337 642 307.515712 671.5 278"></polygon>
                                <polygon id="Fill-163" fill="#D9D9D9" points="674 335.485284 644.512766 365 615 335.485284 644.512766 306"></polygon>
                                <polygon id="Fill-164" fill="#DBDBDB" points="646 363.500982 616.5 393 587 363.500982 616.5 334"></polygon>
                                <polygon id="Fill-165" fill="#DCDCDC" points="618 391.499018 588.5 421 559 391.499018 588.5 362"></polygon>
                                <polygon id="Fill-166" fill="#DCDCDC" points="590 419.499018 560.5 449 531 419.499018 560.5 390"></polygon>
                                <polygon id="Fill-167" fill="#EAEAEA" points="562 447.485284 532.514716 477 503 447.485284 532.514716 418"></polygon>
                                <polygon id="Fill-168" fill="#F1F1F1" points="534 476.528464 504.501963 506 475 476.528464 504.501963 447"></polygon>
                                <polygon id="Fill-169" fill="#F1F1F1" points="506 502.502947 476.500982 532 447 502.502947 476.500982 473"></polygon>
                                <polygon id="Fill-170" fill="#E2E2E2" points="477 530.443073 447.486252 560 418 530.443073 447.486252 501"></polygon>
                                <polygon id="Fill-176" fill="#E2E2E2" points="701 363.500982 671.5 393 642 363.500982 671.5 334"></polygon>
                                <polygon id="Fill-177" fill="#E1E1E1" points="674 391.499018 644.512766 421 615 391.499018 644.512766 362"></polygon>
                                <polygon id="Fill-178" fill="#DCDCDC" points="646 419.499018 616.5 449 587 419.499018 616.5 390"></polygon>
                                <polygon id="Fill-179" fill="#E2E2E2" points="618 447.485284 588.5 477 559 447.485284 588.5 418"></polygon>
                                <polygon id="Fill-180" fill="#E2E2E2" points="590 476.528464 560.5 506 531 476.528464 560.5 447"></polygon>
                                <polygon id="Fill-181" fill="#EDEDED" points="562 502.502947 532.514716 532 503 502.502947 532.514716 473"></polygon>
                                <polygon id="Fill-182" fill="#D9D9D9" points="534 530.443073 504.501963 560 475 530.443073 504.501963 501"></polygon>
                                <polygon id="Fill-189" fill="#EDEDED" points="701 419.499018 671.5 449 642 419.499018 671.5 390"></polygon>
                                <polygon id="Fill-190" fill="#E5E5E5" points="674 447.485284 644.512766 477 615 447.485284 644.512766 418"></polygon>
                                <polygon id="Fill-191" fill="#E0E0E0" points="646 476.528464 616.5 506 587 476.528464 616.5 447"></polygon>
                                <polygon id="Fill-192" fill="#E2E2E2" points="618 502.502947 588.5 532 559 502.502947 588.5 473"></polygon>
                                <polygon id="Fill-193" fill="#F1F1F1" points="590 530.443073 560.5 560 531 530.443073 560.5 501"></polygon>
                                <polygon id="Fill-200" fill="#FCFCFC" points="701 476.528464 671.5 506 642 476.528464 671.5 447"></polygon>
                                <polygon id="Fill-201" fill="#E9E9E9" points="674 502.502947 644.512766 532 615 502.502947 644.512766 473"></polygon>
                                <polygon id="Fill-202" fill="#F9F9F9" points="646 530.443073 616.5 560 587 530.443073 616.5 501"></polygon>
                            </g>
                        </g>
                    </g>
                    <g id="Page-1" style="mix-blend-mode: multiply;" stroke-width="1" fill="none" transform="translate(1.000000, 0.000000)">
                        <mask id="mask-6" fill="white">
                            <use xlink:href="#path-5"></use>
                        </mask>
                        <g id="Mask"></g>
                        <g style="mix-blend-mode: multiply;" mask="url(#mask-6)">
                            <g transform="translate(-294.000000, -156.000000)">
                                <polygon id="Fill-1" fill="#FFFFFF" points="0 726 726 726 726 0 0 0"></polygon>
                                <polygon id="Fill-44" fill="#F9F9F9" points="309 251.485284 279.501963 281 250 251.485284 279.501963 222"></polygon>
                                <polygon id="Fill-56" fill="#FAFAFA" points="365 251.485284 335.514731 281 306 251.485284 335.514731 222"></polygon>
                                <polygon id="Fill-57" fill="#F8F8F8" points="337 279.5 307.483306 309 278 279.5 307.483306 250"></polygon>
                                <polygon id="Fill-58" fill="#F8F8F8" points="309 307.515712 279.501963 337 250 307.515712 279.501963 278"></polygon>
                                <polygon id="Fill-71" fill="#EEEEEE" points="421 251.485284 391.501963 281 362 251.485284 391.501963 222"></polygon>
                                <polygon id="Fill-72" fill="#F7F7F7" points="393 279.5 363.501965 309 334 279.5 363.501965 250"></polygon>
                                <polygon id="Fill-73" fill="#F7F7F7" points="365 307.515712 335.514731 337 306 307.515712 335.514731 278"></polygon>
                                <polygon id="Fill-74" fill="#FCFCFC" points="337 335.485284 307.483306 365 278 335.485284 307.483306 306"></polygon>
                                <polygon id="Fill-75" fill="#FCFCFC" points="309 363.500982 279.501963 393 250 363.500982 279.501963 334"></polygon>
                                <polygon id="Fill-89" fill="#ECECEC" points="477 251.485284 447.486252 281 418 251.485284 447.486252 222"></polygon>
                                <polygon id="Fill-90" fill="#F6F6F6" points="449 279.5 419.485284 309 390 279.5 419.485284 250"></polygon>
                                <polygon id="Fill-91" fill="#F6F6F6" points="421 307.515712 391.501963 337 362 307.515712 391.501963 278"></polygon>
                                <polygon id="Fill-92" fill="#F3F3F3" points="393 335.485284 363.501965 365 334 335.485284 363.501965 306"></polygon>
                                <polygon id="Fill-93" fill="#EDEDED" points="365 363.500982 335.514731 393 306 363.500982 335.514731 334"></polygon>
                                <polygon id="Fill-94" fill="#F6F6F6" points="337 391.499018 307.483306 421 278 391.499018 307.483306 362"></polygon>
                                <polygon id="Fill-95" fill="#F6F6F6" points="309 419.499018 279.501963 449 250 419.499018 279.501963 390"></polygon>
                                <polygon id="Fill-105" fill="#EDEDED" points="534 251.485284 504.501963 281 475 251.485284 504.501963 222"></polygon>
                                <polygon id="Fill-106" fill="#ECECEC" points="506 279.5 476.500982 309 447 279.5 476.500982 250"></polygon>
                                <polygon id="Fill-107" fill="#F0F0F0" points="477 307.515712 447.486252 337 418 307.515712 447.486252 278"></polygon>
                                <polygon id="Fill-108" fill="#F5F5F5" points="449 335.485284 419.485284 365 390 335.485284 419.485284 306"></polygon>
                                <polygon id="Fill-109" fill="#ECECEC" points="421 363.500982 391.501963 393 362 363.500982 391.501963 334"></polygon>
                                <polygon id="Fill-110" fill="#EDEDED" points="393 391.499018 363.501965 421 334 391.499018 363.501965 362"></polygon>
                                <polygon id="Fill-111" fill="#ECECEC" points="365 419.499018 335.514731 449 306 419.499018 335.514731 390"></polygon>
                                <polygon id="Fill-112" fill="#F9F9F9" points="337 447.485284 307.483306 477 278 447.485284 307.483306 418"></polygon>
                                <polygon id="Fill-113" fill="#FBFBFB" points="309 476.528464 279.501963 506 250 476.528464 279.501963 447"></polygon>
                                <polygon id="Fill-120" fill="#E3E3E3" points="590 251.485284 560.5 281 531 251.485284 560.5 222"></polygon>
                                <polygon id="Fill-121" fill="#E3E3E3" points="562 279.5 532.514716 309 503 279.5 532.514716 250"></polygon>
                                <polygon id="Fill-122" fill="#ECECEC" points="534 307.515712 504.501963 337 475 307.515712 504.501963 278"></polygon>
                                <polygon id="Fill-123" fill="#EFEFEF" points="506 335.485284 476.500982 365 447 335.485284 476.500982 306"></polygon>
                                <polygon id="Fill-124" fill="#EEEEEE" points="477 363.500982 447.486252 393 418 363.500982 447.486252 334"></polygon>
                                <polygon id="Fill-125" fill="#F2F2F2" points="449 391.499018 419.485284 421 390 391.499018 419.485284 362"></polygon>
                                <polygon id="Fill-126" fill="#F2F2F2" points="421 419.499018 391.501963 449 362 419.499018 391.501963 390"></polygon>
                                <polygon id="Fill-127" fill="#EDEDED" points="393 447.485284 363.501965 477 334 447.485284 363.501965 418"></polygon>
                                <polygon id="Fill-128" fill="#EFEFEF" points="365 476.528464 335.514731 506 306 476.528464 335.514731 447"></polygon>
                                <polygon id="Fill-129" fill="#FBFBFB" points="337 502.502947 307.483306 532 278 502.502947 307.483306 473"></polygon>
                                <polygon id="Fill-130" fill="#FEFEFE" points="309 530.443073 279.501963 560 250 530.443073 279.501963 501"></polygon>
                                <polygon id="Fill-135" fill="#E0E0E0" points="646 251.485284 616.5 281 587 251.485284 616.5 222"></polygon>
                                <polygon id="Fill-136" fill="#E2E2E2" points="618 279.5 588.5 309 559 279.5 588.5 250"></polygon>
                                <polygon id="Fill-137" fill="#E2E2E2" points="590 307.515712 560.5 337 531 307.515712 560.5 278"></polygon>
                                <polygon id="Fill-138" fill="#ECECEC" points="562 335.485284 532.514716 365 503 335.485284 532.514716 306"></polygon>
                                <polygon id="Fill-139" fill="#F2F2F2" points="534 363.500982 504.501963 393 475 363.500982 504.501963 334"></polygon>
                                <polygon id="Fill-140" fill="#EDEDED" points="506 391.499018 476.500982 421 447 391.499018 476.500982 362"></polygon>
                                <polygon id="Fill-141" fill="#EBEBEB" points="477 419.499018 447.486252 449 418 419.499018 447.486252 390"></polygon>
                                <polygon id="Fill-142" fill="#ECECEC" points="449 447.485284 419.485284 477 390 447.485284 419.485284 418"></polygon>
                                <polygon id="Fill-143" fill="#EEEEEE" points="421 476.528464 391.501963 506 362 476.528464 391.501963 447"></polygon>
                                <polygon id="Fill-144" fill="#F2F2F2" points="393 502.502947 363.501965 532 334 502.502947 363.501965 473"></polygon>
                                <polygon id="Fill-145" fill="#F8F8F8" points="365 530.443073 335.514731 560 306 530.443073 335.514731 501"></polygon>
                                <polygon id="Fill-148" fill="#DADADA" points="701 251.485284 671.5 281 642 251.485284 671.5 222"></polygon>
                                <polygon id="Fill-149" fill="#E2E2E2" points="674 279.5 644.512766 309 615 279.5 644.512766 250"></polygon>
                                <polygon id="Fill-150" fill="#DCDCDC" points="646 307.515712 616.5 337 587 307.515712 616.5 278"></polygon>
                                <polygon id="Fill-151" fill="#D3D3D3" points="618 335.485284 588.5 365 559 335.485284 588.5 306"></polygon>
                                <polygon id="Fill-152" fill="#D2D2D2" points="590 363.500982 560.5 393 531 363.500982 560.5 334"></polygon>
                                <polygon id="Fill-153" fill="#D8D8D8" points="562 391.499018 532.514716 421 503 391.499018 532.514716 362"></polygon>
                                <polygon id="Fill-154" fill="#EDEDED" points="534 419.499018 504.501963 449 475 419.499018 504.501963 390"></polygon>
                                <polygon id="Fill-155" fill="#EFEFEF" points="506 447.485284 476.500982 477 447 447.485284 476.500982 418"></polygon>
                                <polygon id="Fill-156" fill="#D0D0D0" points="477 476.528464 447.486252 506 418 476.528464 447.486252 447"></polygon>
                                <polygon id="Fill-157" fill="#EEEEEE" points="449 502.502947 419.485284 532 390 502.502947 419.485284 473"></polygon>
                                <polygon id="Fill-158" fill="#F0F0F0" points="421 530.443073 391.501963 560 362 530.443073 391.501963 501"></polygon>
                                <polygon id="Fill-162" fill="#DFDFDF" points="701 307.515712 671.5 337 642 307.515712 671.5 278"></polygon>
                                <polygon id="Fill-163" fill="#D9D9D9" points="674 335.485284 644.512766 365 615 335.485284 644.512766 306"></polygon>
                                <polygon id="Fill-164" fill="#DBDBDB" points="646 363.500982 616.5 393 587 363.500982 616.5 334"></polygon>
                                <polygon id="Fill-165" fill="#DCDCDC" points="618 391.499018 588.5 421 559 391.499018 588.5 362"></polygon>
                                <polygon id="Fill-166" fill="#DCDCDC" points="590 419.499018 560.5 449 531 419.499018 560.5 390"></polygon>
                                <polygon id="Fill-167" fill="#EAEAEA" points="562 447.485284 532.514716 477 503 447.485284 532.514716 418"></polygon>
                                <polygon id="Fill-168" fill="#F1F1F1" points="534 476.528464 504.501963 506 475 476.528464 504.501963 447"></polygon>
                                <polygon id="Fill-169" fill="#F1F1F1" points="506 502.502947 476.500982 532 447 502.502947 476.500982 473"></polygon>
                                <polygon id="Fill-170" fill="#E2E2E2" points="477 530.443073 447.486252 560 418 530.443073 447.486252 501"></polygon>
                                <polygon id="Fill-176" fill="#E2E2E2" points="701 363.500982 671.5 393 642 363.500982 671.5 334"></polygon>
                                <polygon id="Fill-177" fill="#E1E1E1" points="674 391.499018 644.512766 421 615 391.499018 644.512766 362"></polygon>
                                <polygon id="Fill-178" fill="#DCDCDC" points="646 419.499018 616.5 449 587 419.499018 616.5 390"></polygon>
                                <polygon id="Fill-179" fill="#E2E2E2" points="618 447.485284 588.5 477 559 447.485284 588.5 418"></polygon>
                                <polygon id="Fill-180" fill="#E2E2E2" points="590 476.528464 560.5 506 531 476.528464 560.5 447"></polygon>
                                <polygon id="Fill-181" fill="#EDEDED" points="562 502.502947 532.514716 532 503 502.502947 532.514716 473"></polygon>
                                <polygon id="Fill-182" fill="#D9D9D9" points="534 530.443073 504.501963 560 475 530.443073 504.501963 501"></polygon>
                                <polygon id="Fill-189" fill="#EDEDED" points="701 419.499018 671.5 449 642 419.499018 671.5 390"></polygon>
                                <polygon id="Fill-190" fill="#E5E5E5" points="674 447.485284 644.512766 477 615 447.485284 644.512766 418"></polygon>
                                <polygon id="Fill-191" fill="#E0E0E0" points="646 476.528464 616.5 506 587 476.528464 616.5 447"></polygon>
                                <polygon id="Fill-192" fill="#E2E2E2" points="618 502.502947 588.5 532 559 502.502947 588.5 473"></polygon>
                                <polygon id="Fill-193" fill="#F1F1F1" points="590 530.443073 560.5 560 531 530.443073 560.5 501"></polygon>
                                <polygon id="Fill-200" fill="#FCFCFC" points="701 476.528464 671.5 506 642 476.528464 671.5 447"></polygon>
                                <polygon id="Fill-201" fill="#E9E9E9" points="674 502.502947 644.512766 532 615 502.502947 644.512766 473"></polygon>
                                <polygon id="Fill-202" fill="#F9F9F9" points="646 530.443073 616.5 560 587 530.443073 616.5 501"></polygon>
                            </g>
                        </g>
                    </g>
                    <g id="Page-1" style="mix-blend-mode: multiply;" stroke-width="1" fill="none" transform="translate(1.000000, 0.000000)">
                        <mask id="mask-8" fill="white">
                            <use xlink:href="#path-7"></use>
                        </mask>
                        <g id="Mask"></g>
                        <g style="mix-blend-mode: multiply;" mask="url(#mask-8)">
                            <g transform="translate(-294.000000, -156.000000)">
                                <polygon id="Fill-1" fill="#FFFFFF" points="0 726 726 726 726 0 0 0"></polygon>
                                <polygon id="Fill-44" fill="#F9F9F9" points="309 251.485284 279.501963 281 250 251.485284 279.501963 222"></polygon>
                                <polygon id="Fill-56" fill="#FAFAFA" points="365 251.485284 335.514731 281 306 251.485284 335.514731 222"></polygon>
                                <polygon id="Fill-57" fill="#F8F8F8" points="337 279.5 307.483306 309 278 279.5 307.483306 250"></polygon>
                                <polygon id="Fill-58" fill="#F8F8F8" points="309 307.515712 279.501963 337 250 307.515712 279.501963 278"></polygon>
                                <polygon id="Fill-71" fill="#EEEEEE" points="421 251.485284 391.501963 281 362 251.485284 391.501963 222"></polygon>
                                <polygon id="Fill-72" fill="#F7F7F7" points="393 279.5 363.501965 309 334 279.5 363.501965 250"></polygon>
                                <polygon id="Fill-73" fill="#F7F7F7" points="365 307.515712 335.514731 337 306 307.515712 335.514731 278"></polygon>
                                <polygon id="Fill-74" fill="#FCFCFC" points="337 335.485284 307.483306 365 278 335.485284 307.483306 306"></polygon>
                                <polygon id="Fill-75" fill="#FCFCFC" points="309 363.500982 279.501963 393 250 363.500982 279.501963 334"></polygon>
                                <polygon id="Fill-89" fill="#ECECEC" points="477 251.485284 447.486252 281 418 251.485284 447.486252 222"></polygon>
                                <polygon id="Fill-90" fill="#F6F6F6" points="449 279.5 419.485284 309 390 279.5 419.485284 250"></polygon>
                                <polygon id="Fill-91" fill="#F6F6F6" points="421 307.515712 391.501963 337 362 307.515712 391.501963 278"></polygon>
                                <polygon id="Fill-92" fill="#F3F3F3" points="393 335.485284 363.501965 365 334 335.485284 363.501965 306"></polygon>
                                <polygon id="Fill-93" fill="#EDEDED" points="365 363.500982 335.514731 393 306 363.500982 335.514731 334"></polygon>
                                <polygon id="Fill-94" fill="#F6F6F6" points="337 391.499018 307.483306 421 278 391.499018 307.483306 362"></polygon>
                                <polygon id="Fill-95" fill="#F6F6F6" points="309 419.499018 279.501963 449 250 419.499018 279.501963 390"></polygon>
                                <polygon id="Fill-105" fill="#EDEDED" points="534 251.485284 504.501963 281 475 251.485284 504.501963 222"></polygon>
                                <polygon id="Fill-106" fill="#ECECEC" points="506 279.5 476.500982 309 447 279.5 476.500982 250"></polygon>
                                <polygon id="Fill-107" fill="#F0F0F0" points="477 307.515712 447.486252 337 418 307.515712 447.486252 278"></polygon>
                                <polygon id="Fill-108" fill="#F5F5F5" points="449 335.485284 419.485284 365 390 335.485284 419.485284 306"></polygon>
                                <polygon id="Fill-109" fill="#ECECEC" points="421 363.500982 391.501963 393 362 363.500982 391.501963 334"></polygon>
                                <polygon id="Fill-110" fill="#EDEDED" points="393 391.499018 363.501965 421 334 391.499018 363.501965 362"></polygon>
                                <polygon id="Fill-111" fill="#ECECEC" points="365 419.499018 335.514731 449 306 419.499018 335.514731 390"></polygon>
                                <polygon id="Fill-112" fill="#F9F9F9" points="337 447.485284 307.483306 477 278 447.485284 307.483306 418"></polygon>
                                <polygon id="Fill-113" fill="#FBFBFB" points="309 476.528464 279.501963 506 250 476.528464 279.501963 447"></polygon>
                                <polygon id="Fill-120" fill="#E3E3E3" points="590 251.485284 560.5 281 531 251.485284 560.5 222"></polygon>
                                <polygon id="Fill-121" fill="#E3E3E3" points="562 279.5 532.514716 309 503 279.5 532.514716 250"></polygon>
                                <polygon id="Fill-122" fill="#ECECEC" points="534 307.515712 504.501963 337 475 307.515712 504.501963 278"></polygon>
                                <polygon id="Fill-123" fill="#EFEFEF" points="506 335.485284 476.500982 365 447 335.485284 476.500982 306"></polygon>
                                <polygon id="Fill-124" fill="#EEEEEE" points="477 363.500982 447.486252 393 418 363.500982 447.486252 334"></polygon>
                                <polygon id="Fill-125" fill="#F2F2F2" points="449 391.499018 419.485284 421 390 391.499018 419.485284 362"></polygon>
                                <polygon id="Fill-126" fill="#F2F2F2" points="421 419.499018 391.501963 449 362 419.499018 391.501963 390"></polygon>
                                <polygon id="Fill-127" fill="#EDEDED" points="393 447.485284 363.501965 477 334 447.485284 363.501965 418"></polygon>
                                <polygon id="Fill-128" fill="#EFEFEF" points="365 476.528464 335.514731 506 306 476.528464 335.514731 447"></polygon>
                                <polygon id="Fill-129" fill="#FBFBFB" points="337 502.502947 307.483306 532 278 502.502947 307.483306 473"></polygon>
                                <polygon id="Fill-130" fill="#FEFEFE" points="309 530.443073 279.501963 560 250 530.443073 279.501963 501"></polygon>
                                <polygon id="Fill-135" fill="#E0E0E0" points="646 251.485284 616.5 281 587 251.485284 616.5 222"></polygon>
                                <polygon id="Fill-136" fill="#E2E2E2" points="618 279.5 588.5 309 559 279.5 588.5 250"></polygon>
                                <polygon id="Fill-137" fill="#E2E2E2" points="590 307.515712 560.5 337 531 307.515712 560.5 278"></polygon>
                                <polygon id="Fill-138" fill="#ECECEC" points="562 335.485284 532.514716 365 503 335.485284 532.514716 306"></polygon>
                                <polygon id="Fill-139" fill="#F2F2F2" points="534 363.500982 504.501963 393 475 363.500982 504.501963 334"></polygon>
                                <polygon id="Fill-140" fill="#EDEDED" points="506 391.499018 476.500982 421 447 391.499018 476.500982 362"></polygon>
                                <polygon id="Fill-141" fill="#EBEBEB" points="477 419.499018 447.486252 449 418 419.499018 447.486252 390"></polygon>
                                <polygon id="Fill-142" fill="#ECECEC" points="449 447.485284 419.485284 477 390 447.485284 419.485284 418"></polygon>
                                <polygon id="Fill-143" fill="#EEEEEE" points="421 476.528464 391.501963 506 362 476.528464 391.501963 447"></polygon>
                                <polygon id="Fill-144" fill="#F2F2F2" points="393 502.502947 363.501965 532 334 502.502947 363.501965 473"></polygon>
                                <polygon id="Fill-145" fill="#F8F8F8" points="365 530.443073 335.514731 560 306 530.443073 335.514731 501"></polygon>
                                <polygon id="Fill-148" fill="#DADADA" points="701 251.485284 671.5 281 642 251.485284 671.5 222"></polygon>
                                <polygon id="Fill-149" fill="#E2E2E2" points="674 279.5 644.512766 309 615 279.5 644.512766 250"></polygon>
                                <polygon id="Fill-150" fill="#DCDCDC" points="646 307.515712 616.5 337 587 307.515712 616.5 278"></polygon>
                                <polygon id="Fill-151" fill="#D3D3D3" points="618 335.485284 588.5 365 559 335.485284 588.5 306"></polygon>
                                <polygon id="Fill-152" fill="#D2D2D2" points="590 363.500982 560.5 393 531 363.500982 560.5 334"></polygon>
                                <polygon id="Fill-153" fill="#D8D8D8" points="562 391.499018 532.514716 421 503 391.499018 532.514716 362"></polygon>
                                <polygon id="Fill-154" fill="#EDEDED" points="534 419.499018 504.501963 449 475 419.499018 504.501963 390"></polygon>
                                <polygon id="Fill-155" fill="#EFEFEF" points="506 447.485284 476.500982 477 447 447.485284 476.500982 418"></polygon>
                                <polygon id="Fill-156" fill="#D0D0D0" points="477 476.528464 447.486252 506 418 476.528464 447.486252 447"></polygon>
                                <polygon id="Fill-157" fill="#EEEEEE" points="449 502.502947 419.485284 532 390 502.502947 419.485284 473"></polygon>
                                <polygon id="Fill-158" fill="#F0F0F0" points="421 530.443073 391.501963 560 362 530.443073 391.501963 501"></polygon>
                                <polygon id="Fill-162" fill="#DFDFDF" points="701 307.515712 671.5 337 642 307.515712 671.5 278"></polygon>
                                <polygon id="Fill-163" fill="#D9D9D9" points="674 335.485284 644.512766 365 615 335.485284 644.512766 306"></polygon>
                                <polygon id="Fill-164" fill="#DBDBDB" points="646 363.500982 616.5 393 587 363.500982 616.5 334"></polygon>
                                <polygon id="Fill-165" fill="#DCDCDC" points="618 391.499018 588.5 421 559 391.499018 588.5 362"></polygon>
                                <polygon id="Fill-166" fill="#DCDCDC" points="590 419.499018 560.5 449 531 419.499018 560.5 390"></polygon>
                                <polygon id="Fill-167" fill="#EAEAEA" points="562 447.485284 532.514716 477 503 447.485284 532.514716 418"></polygon>
                                <polygon id="Fill-168" fill="#F1F1F1" points="534 476.528464 504.501963 506 475 476.528464 504.501963 447"></polygon>
                                <polygon id="Fill-169" fill="#F1F1F1" points="506 502.502947 476.500982 532 447 502.502947 476.500982 473"></polygon>
                                <polygon id="Fill-170" fill="#E2E2E2" points="477 530.443073 447.486252 560 418 530.443073 447.486252 501"></polygon>
                                <polygon id="Fill-176" fill="#E2E2E2" points="701 363.500982 671.5 393 642 363.500982 671.5 334"></polygon>
                                <polygon id="Fill-177" fill="#E1E1E1" points="674 391.499018 644.512766 421 615 391.499018 644.512766 362"></polygon>
                                <polygon id="Fill-178" fill="#DCDCDC" points="646 419.499018 616.5 449 587 419.499018 616.5 390"></polygon>
                                <polygon id="Fill-179" fill="#E2E2E2" points="618 447.485284 588.5 477 559 447.485284 588.5 418"></polygon>
                                <polygon id="Fill-180" fill="#E2E2E2" points="590 476.528464 560.5 506 531 476.528464 560.5 447"></polygon>
                                <polygon id="Fill-181" fill="#EDEDED" points="562 502.502947 532.514716 532 503 502.502947 532.514716 473"></polygon>
                                <polygon id="Fill-182" fill="#D9D9D9" points="534 530.443073 504.501963 560 475 530.443073 504.501963 501"></polygon>
                                <polygon id="Fill-189" fill="#EDEDED" points="701 419.499018 671.5 449 642 419.499018 671.5 390"></polygon>
                                <polygon id="Fill-190" fill="#E5E5E5" points="674 447.485284 644.512766 477 615 447.485284 644.512766 418"></polygon>
                                <polygon id="Fill-191" fill="#E0E0E0" points="646 476.528464 616.5 506 587 476.528464 616.5 447"></polygon>
                                <polygon id="Fill-192" fill="#E2E2E2" points="618 502.502947 588.5 532 559 502.502947 588.5 473"></polygon>
                                <polygon id="Fill-193" fill="#F1F1F1" points="590 530.443073 560.5 560 531 530.443073 560.5 501"></polygon>
                                <polygon id="Fill-200" fill="#FCFCFC" points="701 476.528464 671.5 506 642 476.528464 671.5 447"></polygon>
                                <polygon id="Fill-201" fill="#E9E9E9" points="674 502.502947 644.512766 532 615 502.502947 644.512766 473"></polygon>
                                <polygon id="Fill-202" fill="#F9F9F9" points="646 530.443073 616.5 560 587 530.443073 616.5 501"></polygon>
                            </g>
                        </g>
                    </g>
                </g>
            </g>
        </g>
    </g>
</svg>