<?xml version="1.0" encoding="UTF-8"?>
<svg width="104px" height="84px" viewBox="0 0 104 84" version="1.1" xmlns="http://www.w3.org/2000/svg" xmlns:xlink="http://www.w3.org/1999/xlink">
    <!-- Generator: Sketch 48.2 (47327) - http://www.bohemiancoding.com/sketch -->
    <title>Page 1</title>
    <desc>Created with Sketch.</desc>
    <defs></defs>
    <g id="Desktop-HD" stroke="none" stroke-width="1" fill="none" fill-rule="evenodd" transform="translate(-211.000000, -2617.000000)">
        <g id="Page-1" transform="translate(211.000000, 2617.000000)">
            <polygon id="Fill-1" fill="#000000" points="53.5235669 0 0 23.6 0 59.4666667 53.1247898 84 104 47.7333333 104 13.7333333"></polygon>
            <polygon id="Fill-2" fill="#FFFFFF" points="38.5714286 40 5 59.2934871 52 81 52 45.2253194"></polygon>
            <polygon id="Fill-3" fill="#EF0F0F" points="54.0237099 2 100 14.5537459 53.3612273 43 5 23.7687296"></polygon>
            <polygon id="Fill-4" fill="#FFFFFF" points="53.8135593 16 59.100339 18.7027027 63.1681356 16.1351351 69 19.1081081 58.2881356 26 55.440678 24.5135135 60.4562712 21.2702703 57.0664407 19.5135135 55.3050847 20.7297297 56.5254237 21.4054054 51.2372881 24.5135135 45 21.1351351"></polygon>
            <g id="Group-11" transform="translate(32.000000, 11.000000)" fill="#FFFFFF">
                <path d="M39.695614,7.80869118 L26.8374744,1.45575 L23.6547535,1.98516176 L18.7514279,2.91163235 L13.4491023,3.97045588 C11.8584047,4.23516176 10.5328233,4.49986765 9.73747442,4.63222059 L9.3398,4.76457353 L13.183986,6.88222059 L4.3025907,6.48516176 L19.2816605,14.95575 L21.2700326,13.7645735 L26.1746837,16.5439853 L39.695614,7.80869118 Z M26.7049163,0.661632353 L27.1025907,0.661632353 L41.9491023,7.94104412 L26.4398,17.9998676 L21.5351488,15.0881029 L19.4142186,16.4116324 L0.193288372,5.42633824 L8.94212558,5.82339706 L6.42352093,4.36751471 L9.47235814,3.83810294 C10.4002651,3.70575 11.8584047,3.44104412 13.7142186,3.04398529 L19.5467767,1.98516176 L24.583986,1.05869118 L26.7049163,0.661632353 Z" id="Fill-5"></path>
                <polygon id="Fill-7" points="50.5656465 31.2354265 50.6982047 35.0736618 53.0829256 33.3530735 53.3493674 37.5883676 47.251693 41.8236618 47.1178093 39.9707206 49.9028558 37.8530735 49.7689721 35.6030735 48.7098326 36.2648382 48.8410651 37.1913088 45.9261116 39.1766029 45.7922279 34.6766029"></polygon>
                <path d="M54.4090372,37.9855588 L53.8801302,28.5885 L47.1183395,28.5885 L46.9857814,28.5885 L47.1183395,31.6326176 L44.732293,29.3826176 L45.2638512,40.8973235 L46.3229907,40.1032059 L46.4555488,43.5443824 L54.4090372,37.9855588 M54.2764791,27.5296765 L54.9392698,38.3826176 L45.7927581,44.8679118 L45.6602,41.4267353 L44.6010605,42.2208529 L43.804386,27.3973235 L46.1904326,29.6473235 L46.1904326,27.5296765 L47.2522233,27.5296765 C48.7090372,27.6620294 54.2764791,27.5296765 54.2764791,27.5296765" id="Fill-9"></path>
            </g>
        </g>
    </g>
</svg>