<?xml version="1.0" encoding="UTF-8"?>
<svg width="95px" height="76px" viewBox="0 0 95 76" version="1.1" xmlns="http://www.w3.org/2000/svg" xmlns:xlink="http://www.w3.org/1999/xlink">
    <!-- Generator: Sketch 48.2 (47327) - http://www.bohemiancoding.com/sketch -->
    <title>Page 1</title>
    <desc>Created with Sketch.</desc>
    <defs>
        <polygon id="path-1" points="0 0.21287234 95 0.21287234 95 27.4469149 0 27.4469149"></polygon>
    </defs>
    <g id="Page-1" stroke="none" stroke-width="1" fill="none" fill-rule="evenodd">
        <g transform="translate(0.000000, 1.000000)">
            <polygon id="Fill-1" fill="#FFFFFF" points="22.1492762 0.265957447 18.3702707 15.7446809 75.0028674 15.7446809 71.2238619 0.265957447"></polygon>
            <g id="Group-27" transform="translate(0.000000, 0.159574)">
                <polygon id="Stroke-2" stroke="#000000" stroke-width="1.57464" points="22.1492762 0.106382979 18.3702707 15.5851064 75.0028674 15.5851064 71.2238619 0.106382979"></polygon>
                <g id="Group-6" transform="translate(0.000000, 12.234043)">
                    <mask id="mask-2" fill="white">
                        <use xlink:href="#path-1"></use>
                    </mask>
                    <g id="Clip-5"></g>
                    <path d="M5.77348066,0.21287234 L88.859116,0.21287234 L92.0607735,2.76606383 C93.9287569,4.25170213 95.0136464,6.5293617 95,8.9362766 L95.0001272,27.4469149 L-1.61783646e-06,27.4469149 L-6.3527471e-22,8.51074468 C-0.00157458564,6.04106383 1.14629834,3.71446809 3.09668508,2.23414894 L5.77348066,0.21287234 Z" id="Fill-4" fill="#000000" mask="url(#mask-2)"></path>
                </g>
                <path d="M86.5499337,21.8084043 L9.7101547,21.8084043 C9.25195028,21.8142553 8.87614917,21.4429787 8.87037569,20.978617 L8.87037569,20.9573404 C8.86407735,20.4935106 9.2309558,20.1126596 9.68916022,20.1062766 C9.69598343,20.1062766 9.70280663,20.1062766 9.7101547,20.1062766 L86.5499337,20.1062766 C87.0076133,20.1004255 87.3839392,20.4717021 87.3897127,20.9360638 L87.3897127,20.9573404 C87.3949613,21.4217021 87.0286077,21.8025532 86.5709282,21.8084043 C86.5635801,21.8084043 86.5567569,21.8084043 86.5499337,21.8084043" id="Fill-7" fill="#FFFFFF"></path>
                <polygon id="Fill-9" fill="#000000" points="82.2982376 40.8508511 82.2982376 72.3402128 84.5026575 74.4678723 89.7512762 74.4678723 89.7512762 40.8508511"></polygon>
                <polygon id="Fill-11" fill="#000000" points="74.897895 40.8508511 74.897895 60.1598936 76.7873978 62.0215957 81.2487238 62.0215957 81.2487238 40.8508511"></polygon>
                <polygon id="Fill-13" fill="#000000" points="11.3370691 40.8508511 11.3370691 72.3402128 9.13264917 74.4678723 3.88403039 74.4678723 3.88403039 40.8508511"></polygon>
                <polygon id="Fill-15" fill="#000000" points="18.6851354 40.8508511 18.6851354 60.1598936 16.8481188 62.0215957 12.3867928 62.0215957 12.3867928 40.8508511"></polygon>
                <polygon id="Fill-17" fill="#EF0F0F" points="76.5247569 19.5212766 16.8479613 19.5212766 8.45017127 53.7765957 84.922547 53.7765957"></polygon>
                <polygon id="Stroke-19" stroke="#000000" stroke-width="1.57464" points="76.5247569 19.5212766 16.8479613 19.5212766 8.45017127 53.7765957 84.922547 53.7765957"></polygon>
                <polygon id="Fill-21" fill="#FFFFFF" points="49.9141547 26.7553723 49.9561436 20.2745213 35.6835746 20.2745213 34.7461713 28.5106915 43.563326 28.4575 43.6688232 26.4362234 46.9749282 26.3830319 46.8179945 31.8617553 37.8953425 31.8617553 37.4749282 36.7021809 57.7345967 36.7021809 57.315232 26.7021809"></polygon>
                <polygon id="Fill-23" fill="#FFFFFF" points="59.8025 20.462766 61.0941851 39.6276596 34.6411464 39.6808511 35.5334116 30.9574468 32.0693232 30.9574468 33.3757044 20.462766 31.5953729 20.462766 29.8643785 32.9255319 33.3814779 32.9255319 32.3317541 41.8617021 63.4560635 41.9680851 61.7549862 20.462766"></polygon>
                <path d="M34.9033149,8.19159574 L40.2044199,14.7341489 L40.7292818,9.30861702 L41.1491713,9.52138298 C41.9364641,9.8937234 43.1961326,10.4788298 44.8232044,11.2235106 C46.4502762,11.9681915 48.339779,12.7660638 50.281768,13.6703191 C52.2237569,14.5745745 54.1657459,15.4256383 55.8453039,16.1703191 C57.5248619,16.915 58.8895028,17.5001064 59.6243094,17.8192553 L59.8022376,20.4628723 L61.7547238,20.4628723 L61.461326,16.7554255 L60.9364641,16.5426596 C60.8839779,16.5426596 59.8342541,16.1171277 58.2596685,15.4256383 C56.6850829,14.7341489 54.5856354,13.7767021 52.4861878,12.8724468 C50.3867403,11.9681915 48.1823204,10.9575532 46.3453039,10.1596809 C44.5082873,9.36180851 42.9861878,8.67031915 42.1464088,8.24478723 L39.3646409,6.86180851 L38.9972376,10.4256383 L33.8535912,4.20223404 L31.5956354,20.4628723 L33.375442,20.4628723 L34.9033149,8.19159574 Z" id="Fill-25" fill="#000000"></path>
            </g>
        </g>
    </g>
</svg>