<?xml version="1.0" encoding="UTF-8"?>
<svg width="95px" height="64px" viewBox="0 0 95 64" version="1.1" xmlns="http://www.w3.org/2000/svg" xmlns:xlink="http://www.w3.org/1999/xlink">
    <!-- Generator: Sketch 48.2 (47327) - http://www.bohemiancoding.com/sketch -->
    <title>Page 1</title>
    <desc>Created with Sketch.</desc>
    <defs>
        <polygon id="path-1" points="0 0.190743338 86.9053527 0.190743338 86.9053527 54.7432903 0 54.7432903"></polygon>
    </defs>
    <g id="iPhone-8" stroke="none" stroke-width="1" fill="none" fill-rule="evenodd" transform="translate(-244.000000, -778.000000)">
        <g id="Page-1" transform="translate(244.000000, 778.000000)">
            <path d="M86.0215054,44.1582497 C86.0215054,44.7314158 85.5458826,45.1612903 84.9751352,45.1612903 L2.12163903,45.1612903 C1.55089164,45.1612903 1.07526882,44.7314158 1.07526882,44.1582497 L1.07526882,3.08134997 C1.07526882,1.98278172 1.97895218,1.07526882 3.07288468,1.07526882 L84.0238895,1.07526882 C85.117822,1.07526882 86.0215054,1.98278172 86.0215054,3.08134997 L86.0215054,44.1582497 Z" id="Fill-1" fill="#EF0F0F"></path>
            <g id="Group-5">
                <mask id="mask-2" fill="white">
                    <use xlink:href="#path-1"></use>
                </mask>
                <g id="Clip-4"></g>
                <path d="M3.11059908,1.62127069 C2.17167671,1.62127069 1.43566111,2.35467882 1.43566111,3.29027489 L1.43566111,51.6437111 C1.43566111,52.5640477 2.18699043,53.3127153 3.11059908,53.3127153 L83.7947536,53.3127153 C84.7183623,53.3127153 85.4696916,52.5640477 85.4696916,51.6437111 L85.4696916,3.29027489 C85.4696916,2.36993829 84.7183623,1.62127069 83.7947536,1.62127069 L3.11059908,1.62127069 Z M83.7947536,54.7432903 L3.11059908,54.7432903 C1.3954626,54.7432903 0,53.3527714 0,51.6437111 L0,3.29027489 C0,1.55212623 1.36627083,0.190695652 3.11059908,0.190695652 L83.7947536,0.190695652 C85.5098901,0.190695652 86.9053527,1.58121459 86.9053527,3.29027489 L86.9053527,51.6437111 C86.9053527,53.3527714 85.5098901,54.7432903 83.7947536,54.7432903 Z" id="Fill-3" fill="#000000" mask="url(#mask-2)"></path>
            </g>
            <path d="M49.4165705,61.4534837 L49.4165705,53.8517687 C49.4641974,53.8517687 36.6525618,53.6530311 36.6525618,53.8517687 L36.6525618,61.4534837 L29.984796,61.4534837 C29.4609001,61.4534837 29.0322581,61.9006434 29.0322581,62.447172 C29.0322581,62.9937005 29.4609001,63.4408602 29.984796,63.4408602 L56.0367093,63.4408602 C56.5606052,63.4408602 56.9892473,62.9937005 56.9892473,62.447172 C56.9892473,61.9006434 56.5606052,61.4534837 56.0367093,61.4534837 L49.4165705,61.4534837 Z" id="Fill-6" fill="#000000"></path>
            <path d="M36.4188873,34.3268566 L50.4441328,34.3268566 L50.4441328,21.5032803 C48.7611033,20.6355195 40.8602151,16.4413423 38.7564282,15.18791 L38.4759233,14.9950743 L38.4291725,19.0928336 L34.5021038,13.9826867 L34.5021038,29.5059632 L36.4656381,29.5059632 L36.4656381,34.3268566 L36.4188873,34.3268566 Z M51.5661524,35.483871 L35.2968677,35.483871 L35.2968677,30.7593955 L33.3333333,30.7593955 L33.3333333,10.7526882 L37.3071529,15.911044 L37.3539037,13.066717 L39.3174381,14.2237314 C41.654979,15.5735815 51.1921459,20.6355195 51.2856475,20.6837284 L51.6129032,20.8283552 L51.6129032,35.483871 L51.5661524,35.483871 Z" id="Fill-8" fill="#FFFFFF"></path>
            <polygon id="Fill-10" fill="#FFFFFF" points="38.5155856 29.6178955 43.5464462 29.6178955 43.5464462 26.4496928 41.5900004 26.4496928 41.5900004 27.6497696 36.5591398 27.6497696 36.5591398 21.5053763 45.2233997 21.5053763 45.2233997 26.6417051 49.4623656 26.6417051 49.4623656 32.2580645 38.5155856 32.2580645"></polygon>
            <polyline id="Stroke-12" stroke="#FFFFFF" stroke-width="2" points="56.9892473 20.4301075 61.2903226 25.4771827 56.9892473 30.1075269"></polyline>
            <polyline id="Stroke-14" stroke="#FFFFFF" stroke-width="2" points="29.0322581 30.1075269 24.7311828 25.0604517 29.0322581 20.4301075"></polyline>
            <polygon id="Fill-27" fill="#FFFFFF" points="92.9814272 40.8602151 92.4731183 40.3870968 93.7243402 38.7956989 92.4731183 37.0322581 92.9814272 36.5591398 94.6236559 38.7956989"></polygon>
        </g>
    </g>
</svg>