<?xml version="1.0" encoding="UTF-8"?>
<svg width="450px" height="355px" viewBox="0 0 450 355" version="1.1" xmlns="http://www.w3.org/2000/svg" xmlns:xlink="http://www.w3.org/1999/xlink">
    <!-- Generator: Sketch 48.2 (47327) - http://www.bohemiancoding.com/sketch -->
    <title>Page 1</title>
    <desc>Created with Sketch.</desc>
    <defs>
        <polygon id="path-1" points="0 0.40932966 449.80875 0.40932966 449.80875 253.41527 0 253.41527"></polygon>
        <polygon id="path-3" points="0.0544932731 0.860900023 449.601004 0.860900023 449.601004 102.119701 0.0544932731 102.119701"></polygon>
    </defs>
    <g id="Desktop-HD" stroke="none" stroke-width="1" fill="none" fill-rule="evenodd" transform="translate(-745.000000, -912.000000)">
        <g id="Page-1" transform="translate(745.000000, 912.000000)">
            <g id="Group-3">
                <mask id="mask-2" fill="white">
                    <use xlink:href="#path-1"></use>
                </mask>
                <g id="Clip-2"></g>
                <path d="M224.629983,7.29814509 C221.903784,7.34272002 220.388887,8.67228248 220.32262,11.439002 C220.247106,14.5346538 221.929983,16.2792242 224.901216,16.1700925 C227.864743,16.0594237 229.485976,14.0935158 229.279469,11.1208293 C229.091455,8.40175878 227.306866,7.21668057 224.629983,7.29814509 M224.548305,235.2743 C290.266798,235.2743 355.985291,235.168243 421.702243,235.434155 C428.40601,235.461822 430.190599,233.923219 430.161318,227.077125 C429.871592,161.020158 429.866969,94.9601174 430.164401,28.9031508 C430.196764,21.9725182 428.251901,20.5676395 421.640599,20.578399 C290.460976,20.7766806 159.281353,20.7766806 28.1017295,20.578399 C21.4457363,20.5676395 19.4854623,22.0662793 19.5147432,28.9723187 C19.7967637,95.0292854 19.8075514,161.089326 19.5039555,227.146293 C19.4715925,234.216798 21.6753596,235.440303 28.1649144,235.417247 C93.6260445,235.182076 159.087175,235.2743 224.548305,235.2743 M0.118510274,253.244144 C0.0661130137,174.876812 -0.0186472603,96.5079433 0.00292808219,18.1406117 C0.00601027397,8.17888415 5.92381849,1.88152301 15.7945377,0.733334391 C18.5870034,0.409013376 21.4287842,0.421309907 24.2489897,0.421309907 C157.775702,0.407476309 291.303955,0.407476309 424.830668,0.412087509 C444.587517,0.412087509 449.740942,5.61505736 449.747106,25.507771 C449.76714,101.315887 449.788716,177.12554 449.80875,252.933656 C446.484606,253.095048 443.162003,253.393239 439.83786,253.393239 C310.974503,253.417832 182.111147,253.420906 53.2477911,253.407073 C35.5375171,253.403999 17.8287842,253.301015 0.118510274,253.244144" id="Fill-1" fill="#F2F2F2" mask="url(#mask-2)"></path>
            </g>
            <circle id="Oval-2" fill="#D8D8D8" cx="226.122195" cy="11.7830424" r="5.04987531"></circle>
            <g id="Group-6" transform="translate(0.000000, 252.493766)">
                <mask id="mask-4" fill="white">
                    <use xlink:href="#path-3"></use>
                </mask>
                <g id="Clip-5"></g>
                <path d="M0.118246364,1.1734482 C17.8120903,1.23069712 35.5043945,1.33436409 53.1982384,1.33591136 C181.942046,1.34983677 310.685854,1.34674224 439.429662,1.32353321 C442.750721,1.32353321 446.071781,1.02181591 449.391302,0.860900023 C449.460587,8.33265813 449.526792,15.8044162 449.600696,23.2761743 C449.703854,33.9461358 442.881593,43.489686 429.618909,43.3272229 C382.435838,42.7531864 335.24199,43.0951326 288.052761,43.1152471 C279.911006,43.1183416 279.426011,43.9538665 280.973376,52.1389152 C283.019592,62.9558672 284.845636,73.8130481 286.705553,84.6640399 C287.609337,89.9417717 289.383032,93.6892553 295.974343,92.6742473 C299.178389,92.1791215 303.521787,91.2492133 303.466359,97.3021265 C303.412471,103.367418 299.109104,101.914533 295.837313,101.919175 C247.878251,101.979518 199.920728,101.981066 151.961666,101.905249 C149.425836,101.900608 145.881524,103.26994 144.980819,99.1464702 C143.876879,94.0745251 146.206394,91.5741397 151.202611,92.6139039 C159.723123,94.3839787 162.408301,89.8999955 163.102691,82.4916754 C164.154283,71.2724337 167.242853,60.3889492 168.306762,49.1000805 C168.913391,42.6618975 166.434528,43.0595455 162.242017,43.0750181 C142.751383,43.1446452 123.259209,43.1075108 103.768574,43.1059635 C75.3016862,43.1044162 46.8332583,43.1322671 18.3663701,43.0873963 C6.38622743,43.0672818 0.0859133736,36.5733972 0.0581993821,24.3669984 C0.0397233878,16.6368465 0.0951513707,8.90514736 0.118246364,1.1734482" id="Fill-4" fill="#FFFFFF" mask="url(#mask-4)"></path>
            </g>
            <path d="M224.152999,235.500178 C158.681985,235.500178 93.2094301,235.407694 27.7399577,235.643527 C21.2478818,235.666648 19.043782,234.441239 19.0776912,227.349277 C19.3813329,161.106254 19.3705436,94.8601478 19.0884805,28.6171246 C19.0591952,21.6916336 21.0197652,20.1887728 27.6767633,20.1995625 C158.876192,20.3984026 290.075622,20.3984026 421.275051,20.1995625 C427.88735,20.1887728 429.830966,21.5976085 429.800139,28.5477618 C429.502663,94.790785 429.505745,161.036891 429.795515,227.279914 C429.826342,234.145291 428.041483,235.688228 421.336704,235.660483 C355.60983,235.395363 289.881414,235.500178 224.152999,235.500178" id="Fill-7" fill="#FFFFFF"></path>
        </g>
    </g>
</svg>