<?xml version="1.0" encoding="UTF-8"?>
<svg width="76px" height="89px" viewBox="0 0 76 89" version="1.1" xmlns="http://www.w3.org/2000/svg" xmlns:xlink="http://www.w3.org/1999/xlink">
    <!-- Generator: Sketch 48.2 (47327) - http://www.bohemiancoding.com/sketch -->
    <title>Page 1</title>
    <desc>Created with Sketch.</desc>
    <defs></defs>
    <g id="Desktop-HD" stroke="none" stroke-width="1" fill="none" fill-rule="evenodd" transform="translate(-243.000000, -2136.000000)">
        <g id="Page-1" transform="translate(244.000000, 2137.000000)">
            <path d="M73.9510397,3.04158302 C73.9510397,1.33829653 72.5169133,0 70.8333736,0 L3.11766609,0 C1.37177308,0 0,1.39912819 0,3.04158302 L0,14.373913 L73.9510397,14.373913 L73.9510397,3.04158302 Z" id="Fill-1" fill="#FFFFFF"></path>
            <path d="M0,14.373913 L0,83.1922362 C0,84.9009318 1.4341264,86.2434783 3.11766609,86.2434783 L70.8333736,86.2434783 C72.5792666,86.2434783 73.9510397,84.9009318 73.9510397,83.1922362 L73.9510397,14.373913 L0,14.373913 Z" id="Stroke-3" stroke="#000000" stroke-width="0.5"></path>
            <path d="M0,30.4915994 C0,29.9274557 0.623533218,29.5043478 1.37177308,29.5043478 L72.5792666,29.5043478 C73.3275065,29.5043478 73.9510397,29.9274557 73.9510397,30.4915994 L73.9510397,85.0254968 C73.9510397,86.1067724 72.7663266,87 71.3322002,87 L2.61883952,87 C1.18471311,87 0,86.1067724 0,85.0254968 L0,30.4915994 Z" id="Fill-5" fill="#000000"></path>
            <path d="M0,13.8901845 C0,13.7343027 0.623533218,13.6173913 1.37177308,13.6173913 L72.5792666,13.6173913 C73.3275065,13.6173913 73.9510397,13.7343027 73.9510397,13.8901845 L73.9510397,28.9587614 C73.9510397,29.2575349 72.7663266,29.5043478 71.3322002,29.5043478 L2.61883952,29.5043478 C1.18471311,29.5043478 0,29.2575349 0,28.9587614 L0,13.8901845 Z" id="Fill-5" fill="#EF0F0F" transform="translate(36.975520, 21.560870) scale(1, -1) translate(-36.975520, -21.560870) "></path>
            <g id="Group-4" transform="translate(4.826087, 15.508696)" fill="#FFFFFF">
                <path d="M1.61771819,11.3373419 L8.67895831,11.3373419 L8.67895831,5.27519919 C7.83172105,4.86475567 3.85377756,2.88220547 2.79459154,2.28976266 L2.65347829,2.19849298 L2.62949461,4.13567837 L0.652793587,1.72000225 L0.652793587,9.05830029 L1.6411441,9.05830029 L1.6411441,11.3373419 L1.61771819,11.3373419 Z M9.24396907,11.8844199 L1.05270742,11.8844199 L1.05270742,9.6507431 L0.0643569096,9.6507431 L0.0643569096,0.192720323 L2.06504161,2.63161891 L2.08846753,1.28687633 L3.0773758,1.83395433 C4.25424915,2.47176196 9.05544623,4.86475567 9.10229806,4.88797813 L9.26739499,4.95602535 L9.26739499,11.8844199 L9.24396907,11.8844199 Z" id="Fill-7"></path>
                <polygon id="Fill-9" points="2.75228334 8.98389038 5.36162044 8.98389038 5.36162044 7.5076523 4.34697367 7.5076523 4.34697367 8.06687355 1.73763656 8.06687355 1.73763656 5.20344873 6.23197208 5.20344873 6.23197208 7.59723371 8.43075516 7.59723371 8.43075516 10.2141771 2.75228334 10.2141771"></polygon>
            </g>
            <path d="M51.8704695,25.7217391 L45.7144076,25.7217391 C45.3093257,25.7217391 44.9805293,25.2133273 44.9805293,24.5869565 C44.9805293,23.9596714 45.3093257,23.4521739 45.7144076,23.4521739 L51.8704695,23.4521739 C52.2761428,23.4521739 52.6043478,23.9596714 52.6043478,24.5869565 C52.6043478,25.2133273 52.2761428,25.7217391 51.8704695,25.7217391" id="Fill-11" fill="#FFFFFF"></path>
            <path d="M64.830961,25.7217391 L58.6748991,25.7217391 C58.2698172,25.7217391 57.9410208,25.2133273 57.9410208,24.5869565 C57.9410208,23.9596714 58.2698172,23.4521739 58.6748991,23.4521739 L64.830961,23.4521739 C65.2366343,23.4521739 65.5648393,23.9596714 65.5648393,24.5869565 C65.5648393,25.2133273 65.2366343,25.7217391 64.830961,25.7217391" id="Fill-13" fill="#FFFFFF"></path>
            <path d="M39.6723599,25.7217391 L33.5162979,25.7217391 C33.1112161,25.7217391 32.7824197,25.2133273 32.7824197,24.5869565 C32.7824197,23.9596714 33.1112161,23.4521739 33.5162979,23.4521739 L39.6723599,23.4521739 C40.0780332,23.4521739 40.4062382,23.9596714 40.4062382,24.5869565 C40.4062382,25.2133273 40.0780332,25.7217391 39.6723599,25.7217391" id="Fill-15" fill="#FFFFFF"></path>
            <path d="M25.1870478,77.1652174 L19.0310997,77.1652174 C18.625395,77.1652174 18.2971645,76.6568055 18.2971645,76.0304348 C18.2971645,75.4031496 18.625395,74.8956522 19.0310997,74.8956522 L25.1870478,74.8956522 C25.5927525,74.8956522 25.920983,75.4031496 25.920983,76.0304348 C25.920983,76.6568055 25.5927525,77.1652174 25.1870478,77.1652174" id="Fill-17" fill="#FFFFFF"></path>
            <path d="M36.6227756,77.1652174 L30.4668275,77.1652174 C30.0611227,77.1652174 29.7328922,76.6568055 29.7328922,76.0304348 C29.7328922,75.4031496 30.0611227,74.8956522 30.4668275,74.8956522 L36.6227756,74.8956522 C37.0284803,74.8956522 37.3567108,75.4031496 37.3567108,76.0304348 C37.3567108,76.6568055 37.0284803,77.1652174 36.6227756,77.1652174" id="Fill-19" fill="#FFFFFF"></path>
            <path d="M12.9889381,77.1652174 L6.83299003,77.1652174 C6.42728531,77.1652174 6.09905482,76.6568055 6.09905482,76.0304348 C6.09905482,75.4031496 6.42728531,74.8956522 6.83299003,74.8956522 L12.9889381,74.8956522 C13.3946429,74.8956522 13.7228733,75.4031496 13.7228733,76.0304348 C13.7228733,76.6568055 13.3946429,77.1652174 12.9889381,77.1652174" id="Fill-21" fill="#FFFFFF"></path>
            <path d="M64.7847903,58.2521739 L44.9981965,58.2521739 C44.5676295,58.2521739 44.2181474,57.743762 44.2181474,57.1173913 C44.2181474,56.4901062 44.5676295,55.9826087 44.9981965,55.9826087 L64.7847903,55.9826087 C65.2159858,55.9826087 65.5648393,56.4901062 65.5648393,57.1173913 C65.5648393,57.743762 65.2159858,58.2521739 64.7847903,58.2521739" id="Fill-23" fill="#FFFFFF"></path>
            <path d="M64.7847903,62.0347826 L44.9981965,62.0347826 C44.5676295,62.0347826 44.2181474,61.5263707 44.2181474,60.9 C44.2181474,60.2736293 44.5676295,59.7652174 44.9981965,59.7652174 L64.7847903,59.7652174 C65.2159858,59.7652174 65.5648393,60.2736293 65.5648393,60.9 C65.5648393,61.5263707 65.2159858,62.0347826 64.7847903,62.0347826" id="Fill-25" fill="#FFFFFF"></path>
            <path d="M64.7847903,66.573913 L44.9981965,66.573913 C44.5676295,66.573913 44.2181474,66.0655012 44.2181474,65.4391304 C44.2181474,64.8118453 44.5676295,64.3043478 44.9981965,64.3043478 L64.7847903,64.3043478 C65.2159858,64.3043478 65.5648393,64.8118453 65.5648393,65.4391304 C65.5648393,66.0655012 65.2159858,66.573913 64.7847903,66.573913" id="Fill-27" fill="#FFFFFF"></path>
            <path d="M64.7847903,71.8695652 L44.9981965,71.8695652 C44.5676295,71.8695652 44.2181474,71.3611533 44.2181474,70.7347826 C44.2181474,70.1084119 44.5676295,69.6 44.9981965,69.6 L64.7847903,69.6 C65.2159858,69.6 65.5648393,70.1084119 65.5648393,70.7347826 C65.5648393,71.3611533 65.2159858,71.8695652 64.7847903,71.8695652" id="Fill-29" fill="#FFFFFF"></path>
            <path d="M64.7847903,76.4086957 L44.9981965,76.4086957 C44.5676295,76.4086957 44.2181474,75.9002838 44.2181474,75.273913 C44.2181474,74.6466279 44.5676295,74.1391304 44.9981965,74.1391304 L64.7847903,74.1391304 C65.2159858,74.1391304 65.5648393,74.6466279 65.5648393,75.273913 C65.5648393,75.9002838 65.2159858,76.4086957 64.7847903,76.4086957" id="Fill-31" fill="#FFFFFF"></path>
            <path d="M64.7847903,80.9478261 L44.9981965,80.9478261 C44.5676295,80.9478261 44.2181474,80.4394142 44.2181474,79.8130435 C44.2181474,79.1866727 44.5676295,78.6782609 44.9981965,78.6782609 L64.7847903,78.6782609 C65.2159858,78.6782609 65.5648393,79.1866727 65.5648393,79.8130435 C65.5648393,80.4394142 65.2159858,80.9478261 64.7847903,80.9478261" id="Fill-33" fill="#FFFFFF"></path>
            <path d="M37.3316158,39.3391304 L6.88653162,39.3391304 C6.45186473,39.3391304 6.09905482,38.8307186 6.09905482,38.2043478 C6.09905482,37.5779771 6.45186473,37.0695652 6.88653162,37.0695652 L37.3316158,37.0695652 C37.7669173,37.0695652 38.1190926,37.5779771 38.1190926,38.2043478 C38.1190926,38.8307186 37.7669173,39.3391304 37.3316158,39.3391304" id="Fill-35" fill="#FFFFFF"></path>
            <path d="M37.3316158,43.8782609 L6.88653162,43.8782609 C6.45186473,43.8782609 6.09905482,43.369849 6.09905482,42.7434783 C6.09905482,42.1161931 6.45186473,41.6086957 6.88653162,41.6086957 L37.3316158,41.6086957 C37.7669173,41.6086957 38.1190926,42.1161931 38.1190926,42.7434783 C38.1190926,43.369849 37.7669173,43.8782609 37.3316158,43.8782609" id="Fill-37" fill="#FFFFFF"></path>
            <path d="M37.3316158,49.173913 L6.88653162,49.173913 C6.45186473,49.173913 6.09905482,48.6655012 6.09905482,48.0391304 C6.09905482,47.4127597 6.45186473,46.9043478 6.88653162,46.9043478 L37.3316158,46.9043478 C37.7669173,46.9043478 38.1190926,47.4127597 38.1190926,48.0391304 C38.1190926,48.6655012 37.7669173,49.173913 37.3316158,49.173913" id="Fill-39" fill="#FFFFFF"></path>
            <path d="M36.985786,67.3304348 L7.23236148,67.3304348 C6.60669498,67.3304348 6.09905482,66.8450474 6.09905482,66.2468075 L6.09905482,56.3091076 C6.09905482,55.7114743 6.60669498,55.226087 7.23236148,55.226087 L36.985786,55.226087 C37.6114525,55.226087 38.1190926,55.7114743 38.1190926,56.3091076 L38.1190926,66.2468075 C38.1190926,66.8450474 37.6114525,67.3304348 36.985786,67.3304348" id="Fill-41" fill="#FFFFFF"></path>
            <polygon id="Fill-43" fill="#000000" points="3.72862706 68.0869565 3.04952741 66.3621927 39.7271385 52.2 40.4062382 53.9247638"></polygon>
            <polygon id="Fill-45" fill="#000000" points="38.896616 69.6 3.04952741 53.8982093 3.79676773 52.2 39.6438563 67.9017907"></polygon>
            <path d="M63.6923922,48.4173913 L44.5658309,48.4173913 C43.9523737,48.4173913 43.4557656,47.9326107 43.4557656,47.333764 L43.4557656,37.3966708 C43.4557656,36.7984309 43.9523737,36.3130435 44.5658309,36.3130435 L63.6923922,36.3130435 C64.3052278,36.3130435 64.8024575,36.7984309 64.8024575,37.3966708 L64.8024575,47.333764 C64.8024575,47.9326107 64.3052278,48.4173913 63.6923922,48.4173913" id="Fill-47" fill="#FFFFFF"></path>
            <polygon id="Fill-49" fill="#000000" points="42.0985571 49.9304348 41.16862 48.3115244 66.1596659 34.0434783 67.089603 35.6623886"></polygon>
            <polygon id="Fill-51" fill="#000000" points="66.0617151 50.6869565 41.16862 34.8586338 42.196508 33.2869565 67.089603 49.1159025"></polygon>
            <path d="M10.6733459,8.32173913 C10.6733459,9.99300519 9.30803043,11.3478261 7.62381853,11.3478261 C5.93960663,11.3478261 4.57429112,9.99300519 4.57429112,8.32173913 C4.57429112,6.65047307 5.93960663,5.29565217 7.62381853,5.29565217 C9.30803043,5.29565217 10.6733459,6.65047307 10.6733459,8.32173913 Z" id="Stroke-53" fill="#000000"></path>
            <path d="M20.58431,8.32173913 C20.58431,9.99300519 19.2189945,11.3478261 17.5347826,11.3478261 C15.8505707,11.3478261 14.4852552,9.99300519 14.4852552,8.32173913 C14.4852552,6.65047307 15.8505707,5.29565217 17.5347826,5.29565217 C19.2189945,5.29565217 20.58431,6.65047307 20.58431,8.32173913 Z" id="Stroke-55" fill="#000000"></path>
            <path d="M29.7328922,8.32173913 C29.7328922,9.99300519 28.3675767,11.3478261 26.6833648,11.3478261 C24.9991529,11.3478261 23.6338374,9.99300519 23.6338374,8.32173913 C23.6338374,6.65047307 24.9991529,5.29565217 26.6833648,5.29565217 C28.3675767,5.29565217 29.7328922,6.65047307 29.7328922,8.32173913 Z" id="Stroke-57" fill="#000000"></path>
            <path d="M70.8333736,87 L3.11766609,87 C1.4341264,87 0,85.6463932 0,83.9236209 L0,3.07637907 C0,1.41513437 1.37177308,0 3.11766609,0 L70.8333736,0 C72.5169133,0 73.9510397,1.35360679 73.9510397,3.07637907 L73.9510397,83.9236209 C73.9510397,85.6463932 72.5792666,87 70.8333736,87 Z" id="Stroke-59" stroke="#000000" stroke-width="1.6"></path>
        </g>
    </g>
</svg>