<?xml version="1.0" encoding="UTF-8"?>
<svg width="67px" height="80px" viewBox="0 0 67 80" version="1.1" xmlns="http://www.w3.org/2000/svg" xmlns:xlink="http://www.w3.org/1999/xlink">
    <!-- Generator: Sketch 48.2 (47327) - http://www.bohemiancoding.com/sketch -->
    <title>Page 1</title>
    <desc>Created with Sketch.</desc>
    <defs></defs>
    <g id="iPhone-8" stroke="none" stroke-width="1" fill="none" fill-rule="evenodd" transform="translate(-264.000000, -1129.000000)">
        <g id="Page-1" transform="translate(265.000000, 1130.000000)">
            <path d="M65,2.67940617 C65,1.17893871 63.7394604,0 62.2596965,0 L2.74030354,0 C1.20573356,0 0,1.23252684 0,2.67940617 L0,12.6623377 L65,12.6623377 L65,2.67940617 Z" id="Fill-1" fill="#FFFFFF"></path>
            <path d="M0,12.6623377 L0,74.0944279 C0,75.6197301 1.26053963,76.8181818 2.74030354,76.8181818 L62.2596965,76.8181818 C63.7942664,76.8181818 65,75.6197301 65,74.0944279 L65,12.6623377 L0,12.6623377 Z" id="Stroke-3" stroke="#000000" stroke-width="0.25"></path>
            <path d="M0,27.4232305 C0,26.9216442 0.548060708,26.5454545 1.20573356,26.5454545 L63.7942664,26.5454545 C64.4519393,26.5454545 65,26.9216442 65,27.4232305 L65,75.9099016 C65,76.8712752 63.9586847,77.6654535 62.698145,77.6654535 L2.30185497,77.6654535 C1.04131535,77.6654535 0,76.8712752 0,75.9099016 L0,27.4232305 Z" id="Fill-5" fill="#000000"></path>
            <path d="M0,12.4412075 C0,12.3004062 0.548060708,12.1948052 1.20573356,12.1948052 L63.7942664,12.1948052 C64.4519393,12.1948052 65,12.3004062 65,12.4412075 L65,26.052001 C65,26.3218702 63.9586847,26.5448056 62.698145,26.5448056 L2.30185497,26.5448056 C1.04131535,26.5448056 0,26.3218702 0,26.052001 L0,12.4412075 Z" id="Fill-5" fill="#EF0F0F" transform="translate(32.500000, 19.369805) scale(1, -1) translate(-32.500000, -19.369805) "></path>
            <g id="Group-4" transform="translate(5.000000, 13.000000)" fill="#FFFFFF">
                <path d="M1.46902597,10.3139916 L7.88123377,10.3139916 L7.88123377,4.79904024 C7.11187013,4.42564487 3.49955844,2.62204697 2.53772727,2.08308023 L2.40958442,2.00004889 L2.38780519,3.76237678 L0.592792208,1.5647485 L0.592792208,8.24066467 L1.4902987,8.24066467 L1.4902987,10.3139916 L1.46902597,10.3139916 Z M8.39431169,10.8116883 L0.955948052,10.8116883 L0.955948052,8.7796314 L0.0584415584,8.7796314 L0.0584415584,0.175324675 L1.87523377,2.39407927 L1.89650649,1.17071812 L2.79451948,1.66841485 C3.86322078,2.2486516 8.22311688,4.42564487 8.26566234,4.44677118 L8.41558442,4.50867621 L8.41558442,10.8116883 L8.39431169,10.8116883 Z" id="Fill-7"></path>
                <polygon id="Fill-9" points="2.49930782 8.17297127 4.86880828 8.17297127 4.86880828 6.82998388 3.94742254 6.82998388 3.94742254 7.33872776 1.57792208 7.33872776 1.57792208 4.73376623 5.65916174 4.73376623 5.65916174 6.91147935 7.65584416 6.91147935 7.65584416 9.29220779 2.49930782 9.29220779"></polygon>
            </g>
            <path d="M45.7784955,22.7922078 L40.3254006,22.7922078 C39.9665755,22.7922078 39.6753247,22.4140042 39.6753247,21.9480519 C39.6753247,21.4814195 39.9665755,21.1038961 40.3254006,21.1038961 L45.7784955,21.1038961 C46.1378445,21.1038961 46.4285714,21.4814195 46.4285714,21.9480519 C46.4285714,22.4140042 46.1378445,22.7922078 45.7784955,22.7922078" id="Fill-11" fill="#FFFFFF"></path>
            <path d="M56.7525214,22.7922078 L51.2994266,22.7922078 C50.9406014,22.7922078 50.6493506,22.4140042 50.6493506,21.9480519 C50.6493506,21.4814195 50.9406014,21.1038961 51.2994266,21.1038961 L56.7525214,21.1038961 C57.1118704,21.1038961 57.4025974,21.4814195 57.4025974,21.9480519 C57.4025974,22.4140042 57.1118704,22.7922078 56.7525214,22.7922078" id="Fill-13" fill="#FFFFFF"></path>
            <path d="M34.8044695,22.7922078 L29.3513747,22.7922078 C28.9925495,22.7922078 28.7012987,22.4140042 28.7012987,21.9480519 C28.7012987,21.4814195 28.9925495,21.1038961 29.3513747,21.1038961 L34.8044695,21.1038961 C35.1638185,21.1038961 35.4545455,21.4814195 35.4545455,21.9480519 C35.4545455,22.4140042 35.1638185,22.7922078 34.8044695,22.7922078" id="Fill-15" fill="#FFFFFF"></path>
            <path d="M22.1420814,68.3766234 L16.6890874,68.3766234 C16.3297106,68.3766234 16.038961,67.9984198 16.038961,67.5324675 C16.038961,67.0658351 16.3297106,66.6883117 16.6890874,66.6883117 L22.1420814,66.6883117 C22.5014583,66.6883117 22.7922078,67.0658351 22.7922078,67.5324675 C22.7922078,67.9984198 22.5014583,68.3766234 22.1420814,68.3766234" id="Fill-17" fill="#FFFFFF"></path>
            <path d="M32.2719515,68.3766234 L26.8189576,68.3766234 C26.4595807,68.3766234 26.1688312,67.9984198 26.1688312,67.5324675 C26.1688312,67.0658351 26.4595807,66.6883117 26.8189576,66.6883117 L32.2719515,66.6883117 C32.6313284,66.6883117 32.9220779,67.0658351 32.9220779,67.5324675 C32.9220779,67.9984198 32.6313284,68.3766234 32.2719515,68.3766234" id="Fill-19" fill="#FFFFFF"></path>
            <path d="M11.1680554,68.3766234 L5.71506145,68.3766234 C5.35568458,68.3766234 5.06493506,67.9984198 5.06493506,67.5324675 C5.06493506,67.0658351 5.35568458,66.6883117 5.71506145,66.6883117 L11.1680554,66.6883117 C11.5274323,66.6883117 11.8181818,67.0658351 11.8181818,67.5324675 C11.8181818,67.9984198 11.5274323,68.3766234 11.1680554,68.3766234" id="Fill-21" fill="#FFFFFF"></path>
            <path d="M56.7239618,51.4935065 L39.5098044,51.4935065 C39.1352151,51.4935065 38.8311688,51.1153029 38.8311688,50.6493506 C38.8311688,50.1827182 39.1352151,49.8051948 39.5098044,49.8051948 L56.7239618,49.8051948 C57.099098,49.8051948 57.4025974,50.1827182 57.4025974,50.6493506 C57.4025974,51.1153029 57.099098,51.4935065 56.7239618,51.4935065" id="Fill-23" fill="#FFFFFF"></path>
            <path d="M56.7239618,54.8701299 L39.5098044,54.8701299 C39.1352151,54.8701299 38.8311688,54.4919263 38.8311688,54.025974 C38.8311688,53.5600218 39.1352151,53.1818182 39.5098044,53.1818182 L56.7239618,53.1818182 C57.099098,53.1818182 57.4025974,53.5600218 57.4025974,54.025974 C57.4025974,54.4919263 57.099098,54.8701299 56.7239618,54.8701299" id="Fill-25" fill="#FFFFFF"></path>
            <path d="M56.7239618,59.0909091 L39.5098044,59.0909091 C39.1352151,59.0909091 38.8311688,58.7127055 38.8311688,58.2467532 C38.8311688,57.7801208 39.1352151,57.4025974 39.5098044,57.4025974 L56.7239618,57.4025974 C57.099098,57.4025974 57.4025974,57.7801208 57.4025974,58.2467532 C57.4025974,58.7127055 57.099098,59.0909091 56.7239618,59.0909091" id="Fill-27" fill="#FFFFFF"></path>
            <path d="M56.7239618,63.3116883 L39.5098044,63.3116883 C39.1352151,63.3116883 38.8311688,62.9334847 38.8311688,62.4675325 C38.8311688,62.0015802 39.1352151,61.6233766 39.5098044,61.6233766 L56.7239618,61.6233766 C57.099098,61.6233766 57.4025974,62.0015802 57.4025974,62.4675325 C57.4025974,62.9334847 57.099098,63.3116883 56.7239618,63.3116883" id="Fill-29" fill="#FFFFFF"></path>
            <path d="M56.7239618,67.5324675 L39.5098044,67.5324675 C39.1352151,67.5324675 38.8311688,67.1542639 38.8311688,66.6883117 C38.8311688,66.2216792 39.1352151,65.8441558 39.5098044,65.8441558 L56.7239618,65.8441558 C57.099098,65.8441558 57.4025974,66.2216792 57.4025974,66.6883117 C57.4025974,67.1542639 57.099098,67.5324675 56.7239618,67.5324675" id="Fill-31" fill="#FFFFFF"></path>
            <path d="M56.7239618,71.7532468 L39.5098044,71.7532468 C39.1352151,71.7532468 38.8311688,71.3750432 38.8311688,70.9090909 C38.8311688,70.4431387 39.1352151,70.0649351 39.5098044,70.0649351 L56.7239618,70.0649351 C57.099098,70.0649351 57.4025974,70.4431387 57.4025974,70.9090909 C57.4025974,71.3750432 57.099098,71.7532468 56.7239618,71.7532468" id="Fill-33" fill="#FFFFFF"></path>
            <path d="M32.2369802,34.6103896 L5.75003275,34.6103896 C5.37187649,34.6103896 5.06493506,34.232186 5.06493506,33.7662338 C5.06493506,33.3002815 5.37187649,32.9220779 5.75003275,32.9220779 L32.2369802,32.9220779 C32.6156885,32.9220779 32.9220779,33.3002815 32.9220779,33.7662338 C32.9220779,34.232186 32.6156885,34.6103896 32.2369802,34.6103896" id="Fill-35" fill="#FFFFFF"></path>
            <path d="M32.2369802,38.8311688 L5.75003275,38.8311688 C5.37187649,38.8311688 5.06493506,38.4529652 5.06493506,37.987013 C5.06493506,37.5203805 5.37187649,37.1428571 5.75003275,37.1428571 L32.2369802,37.1428571 C32.6156885,37.1428571 32.9220779,37.5203805 32.9220779,37.987013 C32.9220779,38.4529652 32.6156885,38.8311688 32.2369802,38.8311688" id="Fill-37" fill="#FFFFFF"></path>
            <path d="M32.2369802,43.0519481 L5.75003275,43.0519481 C5.37187649,43.0519481 5.06493506,42.6737445 5.06493506,42.2077922 C5.06493506,41.7418399 5.37187649,41.3636364 5.75003275,41.3636364 L32.2369802,41.3636364 C32.6156885,41.3636364 32.9220779,41.7418399 32.9220779,42.2077922 C32.9220779,42.6737445 32.6156885,43.0519481 32.2369802,43.0519481" id="Fill-39" fill="#FFFFFF"></path>
            <path d="M31.9361114,59.9350649 L6.0509016,59.9350649 C5.50657741,59.9350649 5.06493506,59.4950037 5.06493506,58.9526283 L5.06493506,49.9429255 C5.06493506,49.4011002 5.50657741,48.961039 6.0509016,48.961039 L31.9361114,48.961039 C32.4804356,48.961039 32.9220779,49.4011002 32.9220779,49.9429255 L32.9220779,58.9526283 C32.9220779,59.4950037 32.4804356,59.9350649 31.9361114,59.9350649" id="Fill-41" fill="#FFFFFF"></path>
            <polygon id="Fill-43" fill="#000000" points="3.13095094 60.7792208 2.53246753 59.2212458 34.8560621 46.4285714 35.4545455 47.9865464"></polygon>
            <polygon id="Fill-45" fill="#000000" points="33.9553724 61.6233766 2.53246753 47.9115576 3.18748479 46.4285714 34.6103896 60.1403904"></polygon>
            <path d="M55.5926948,43.0519481 L38.9527597,43.0519481 C38.4190576,43.0519481 37.987013,42.6124369 37.987013,42.0695114 L37.987013,33.0603587 C37.987013,32.5179833 38.4190576,32.0779221 38.9527597,32.0779221 L55.5926948,32.0779221 C56.1258562,32.0779221 56.5584416,32.5179833 56.5584416,33.0603587 L56.5584416,42.0695114 C56.5584416,42.6124369 56.1258562,43.0519481 55.5926948,43.0519481" id="Fill-47" fill="#FFFFFF"></path>
            <polygon id="Fill-49" fill="#000000" points="37.1163909 44.7402597 36.2987013 43.277902 58.2732194 30.3896104 59.0909091 31.8519682"></polygon>
            <polygon id="Fill-51" fill="#000000" points="58.1870917 44.7402597 36.2987013 30.9179447 37.2025187 29.5454545 59.0909091 43.3683138"></polygon>
            <path d="M9.28571429,6.90909091 C9.28571429,8.30773777 8.15189362,9.44155844 6.75324675,9.44155844 C5.35459989,9.44155844 4.22077922,8.30773777 4.22077922,6.90909091 C4.22077922,5.51044404 5.35459989,4.37662338 6.75324675,4.37662338 C8.15189362,4.37662338 9.28571429,5.51044404 9.28571429,6.90909091 Z" id="Stroke-53" fill="#000000"></path>
            <path d="M17.7272727,6.90909091 C17.7272727,8.30773777 16.5934521,9.44155844 15.1948052,9.44155844 C13.7961583,9.44155844 12.6623377,8.30773777 12.6623377,6.90909091 C12.6623377,5.51044404 13.7961583,4.37662338 15.1948052,4.37662338 C16.5934521,4.37662338 17.7272727,5.51044404 17.7272727,6.90909091 Z" id="Stroke-55" fill="#000000"></path>
            <path d="M26.1688312,6.90909091 C26.1688312,8.30773777 25.0350105,9.44155844 23.6363636,9.44155844 C22.2377168,9.44155844 21.1038961,8.30773777 21.1038961,6.90909091 C21.1038961,5.51044404 22.2377168,4.37662338 23.6363636,4.37662338 C25.0350105,4.37662338 26.1688312,5.51044404 26.1688312,6.90909091 Z" id="Stroke-57" fill="#000000"></path>
            <path d="M62.2596965,77.6623377 L2.74030354,77.6623377 C1.26053963,77.6623377 0,76.4540127 0,74.9161447 L0,2.74619299 C0,1.26324877 1.20573356,0 2.74030354,0 L62.2596965,0 C63.7394604,0 65,1.20832491 65,2.74619299 L65,74.9161447 C65,76.4540127 63.7942664,77.6623377 62.2596965,77.6623377 Z" id="Stroke-59" stroke="#000000" stroke-width="2"></path>
        </g>
    </g>
</svg>